M48
;Layer_Color=9474304
;FILE_FORMAT=2:5
INCH,LZ
;TYPE=PLATED
T01F00S00C0.01181
T02F00S00C0.01378
T03F00S00C0.03150
T04F00S00C0.03386
T05F00S00C0.03543
T06F00S00C0.03937
T07F00S00C0.04331
%
T01
X0125Y0049547
X0123622Y00525
X0126378
X0125Y0055453
X0155Y0064547
X0156378Y00675
X0153622
X0155Y0070453
T02
X0005Y00095
X0013
X0021
X0033Y00175
X0013Y00255
X0005
X0009Y00495
X0005Y00575
X0009Y00655
X0017
X0025
X0021Y00735
X0017Y00815
X0015Y00875
X0036286Y0089987
X00375Y0085
X003866Y007893
X00425Y0071822
X004626Y0071811
X00425Y00675
X0037Y00575
X0053
X00625Y006
X00575Y0075
X007Y00875
X008Y007
X0073Y00335
X0081Y00175
X0048821Y0041238
X0021Y00415
X004Y00925
X00975Y008
X01Y00775
Y00825
X0115Y00675
X012Y00625
X011
X0122122Y0045
X0137012Y0056861
X0142988Y0062863
X0146614Y0072208
X01425Y008
X0143456Y009
X014
X0133Y00895
X0161Y00815
X0157776Y0075453
X016Y00575
X0165Y00525
X017Y00575
X0166503Y0043497
X0181Y00415
X0185Y00495
X0193
X0197Y00735
X0189
X01825Y008
X01775Y009
X0201Y00815
X0197Y00095
X0189
X0177Y00175
X0181Y00255
X0129Y00175
X0121
X0089
X0085Y00415
X0089Y00495
X0085Y00575
X01475Y00525
X0145Y01135
X0153
X014Y012
X0129Y01135
X0121
X0117Y01215
X0109
X0101
X0093
X00925Y01125
X00875
X00825
X0093Y01055
X0101
X0109
X0117
X0113Y00975
X0105
X01775Y012
X0201Y00975
X0077Y01055
X0065Y0105
X006
X00525
X0049428
X0046356
X0053298Y011
X00575Y01125
X0060678Y01175
X007Y01125
X00775Y012
Y0125
X0037Y01215
X003Y01175
X0025
X0021Y01215
X0015Y0095374
X003Y0095
X0035
T03
X001Y0079626
Y00875
Y0095374
T04
X0101063Y0112835
X0108937
T05
X0014Y00165
X0024
Y0056
X0014
X0065Y00325
Y00225
X0085
Y00325
X0095
Y00225
X0105
X0115
X0125
Y00325
X0115
X0105
X0145
Y00225
X01885Y0016
X01985
Y0056
X01885
X02025Y01075
Y01175
T06
X001Y0071752
Y0103248
T07
X00075Y0035
X00175
X00275
X00375
X01725
X01825
X01925
X02025
M30
