0
SECTION
2
HEADER
9
$INSUNITS
70
4
9
$ACADVER
1
AC1014
9
$HANDSEED
5
FFFF
0
ENDSEC
0
SECTION
2
TABLES
0
TABLE
2
VPORT
5
8
100
AcDbSymbolTable
0
ENDTAB
0
TABLE
2
LTYPE
5
5
100
AcDbSymbolTable
0
LTYPE
5
14
100
AcDbSymbolTableRecord
100
AcDbLinetypeTableRecord
2
BYBLOCK
70
0
0
LTYPE
5
15
100
AcDbSymbolTableRecord
100
AcDbLinetypeTableRecord
2
BYLAYER
70
0
0
ENDTAB
0
TABLE
2
LAYER
5
2
100
AcDbSymbolTable
70
2
0
LAYER
5
50
100
AcDbSymbolTableRecord
100
AcDbLayerTableRecord
2
0
70
0
6
CONTINUOUS
0
ENDTAB
0
TABLE
2
STYLE
5
3
100
AcDbSymbolTable
70
1
0
STYLE
5
11
100
AcDbSymbolTableRecord
100
AcDbTextStyleTableRecord
2
STANDARD
70
0
0
ENDTAB
0
TABLE
2
VIEW
5
6
100
AcDbSymbolTable
70
0
0
ENDTAB
0
TABLE
2
UCS
5
7
100
AcDbSymbolTable
70
0
0
ENDTAB
0
TABLE
2
APPID
5
9
100
AcDbSymbolTable
70
2
0
APPID
5
12
100
AcDbSymbolTableRecord
100
AcDbRegAppTableRecord
2
ACAD
70
0
0
ENDTAB
0
TABLE
2
DIMSTYLE
5
A
100
AcDbSymbolTable
70
1
0
ENDTAB
0
TABLE
2
BLOCK_RECORD
5
1
100
AcDbSymbolTable
70
1
0
BLOCK_RECORD
5
1F
100
AcDbSymbolTableRecord
100
AcDbBlockTableRecord
2
*MODEL_SPACE
0
BLOCK_RECORD
5
1B
100
AcDbSymbolTableRecord
100
AcDbBlockTableRecord
2
*PAPER_SPACE
0
ENDTAB
0
ENDSEC
0
SECTION
2
BLOCKS
0
BLOCK
5
20
100
AcDbEntity
100
AcDbBlockBegin
2
*MODEL_SPACE
0
ENDBLK
5
21
100
AcDbEntity
100
AcDbBlockEnd
0
BLOCK
5
1C
100
AcDbEntity
100
AcDbBlockBegin
2
*PAPER_SPACE
0
ENDBLK
5
1D
100
AcDbEntity
100
AcDbBlockEnd
0
ENDSEC
0
SECTION
2
ENTITIES
0
LWPOLYLINE
5
100
100
AcDbEntity
8
0
100
AcDbPolyline
90
10
70
1
43
0.0
10
-23.056455727687201
20
-17.3241401613706
10
-18.960695506242299
20
-14.456257979615401
10
15.841874010731001
20
-14.456257979615401
10
19.937634232175899
20
-17.3241401613706
10
24.054311423655399
20
-17.3241401613706
10
25.054311423655399
20
-16.3241401613706
10
25.054311423655399
20
15.6758598386294
10
-28.045688576344606
20
15.6758598386294
10
-28.045688576344602
20
-16.3241401613706
10
-27.045688576344599
20
-17.3241401613706
0
LWPOLYLINE
5
101
100
AcDbEntity
8
0
100
AcDbPolyline
90
4
70
1
43
0.0
10
21.949311423655399
20
-3.51414016137063
10
21.949311423655399
20
-2.8741401613706303
10
22.589311423655399
20
-2.8741401613706303
10
22.589311423655399
20
-3.51414016137063
0
LWPOLYLINE
5
102
100
AcDbEntity
8
0
100
AcDbPolyline
90
4
70
1
43
0.0
10
19.409311423655399
20
-3.51414016137063
10
19.409311423655399
20
-2.8741401613706303
10
20.049311423655404
20
-2.8741401613706303
10
20.049311423655404
20
-3.51414016137063
0
LWPOLYLINE
5
103
100
AcDbEntity
8
0
100
AcDbPolyline
90
4
70
1
43
0.0
10
-22.390688576344605
20
-3.51414016137063
10
-22.390688576344605
20
-2.8741401613706303
10
-21.750688576344604
20
-2.8741401613706303
10
-21.750688576344604
20
-3.51414016137063
0
LWPOLYLINE
5
104
100
AcDbEntity
8
0
100
AcDbPolyline
90
4
70
1
43
0.0
10
-24.930688576344604
20
-3.51414016137063
10
-24.930688576344604
20
-2.8741401613706303
10
-24.290688576344603
20
-2.8741401613706303
10
-24.290688576344603
20
-3.51414016137063
0
LWPOLYLINE
5
105
100
AcDbEntity
8
0
100
AcDbPolyline
90
4
70
1
43
0.0
10
21.949311423655399
20
-13.6741401613706
10
21.949311423655399
20
-13.034140161370599
10
22.589311423655399
20
-13.034140161370599
10
22.589311423655399
20
-13.6741401613706
0
LWPOLYLINE
5
106
100
AcDbEntity
8
0
100
AcDbPolyline
90
4
70
1
43
0.0
10
19.409311423655399
20
-13.6741401613706
10
19.409311423655399
20
-13.034140161370599
10
20.049311423655404
20
-13.034140161370599
10
20.049311423655404
20
-13.6741401613706
0
LWPOLYLINE
5
107
100
AcDbEntity
8
0
100
AcDbPolyline
90
4
70
1
43
0.0
10
-22.390688576344605
20
-13.5141401613706
10
-22.390688576344605
20
-12.874140161370599
10
-21.750688576344604
20
-12.874140161370599
10
-21.750688576344604
20
-13.5141401613706
0
LWPOLYLINE
5
108
100
AcDbEntity
8
0
100
AcDbPolyline
90
4
70
1
43
0.0
10
-24.290688576344603
20
-12.874140161370599
10
-24.290688576344603
20
-13.5141401613706
10
-24.930688576344604
20
-13.5141401613706
10
-24.930688576344604
20
-12.874140161370599
0
LWPOLYLINE
5
109
100
AcDbEntity
8
0
100
AcDbPolyline
90
10
70
1
43
0.0
10
-23.056455727687201
20
-17.3241401613706
10
-18.960695506242299
20
-14.456257979615401
10
15.841874010731001
20
-14.456257979615401
10
19.937634232175899
20
-17.3241401613706
10
24.054311423655399
20
-17.3241401613706
10
25.054311423655399
20
-16.3241401613706
10
25.054311423655399
20
15.6758598386294
10
-28.045688576344606
20
15.6758598386294
10
-28.045688576344602
20
-16.3241401613706
10
-27.045688576344599
20
-17.3241401613706
0
LWPOLYLINE
5
110
100
AcDbEntity
8
0
100
AcDbPolyline
90
4
70
1
43
0.0
10
21.949311423655399
20
-3.51414016137063
10
21.949311423655399
20
-2.8741401613706303
10
22.589311423655399
20
-2.8741401613706303
10
22.589311423655399
20
-3.51414016137063
0
LWPOLYLINE
5
111
100
AcDbEntity
8
0
100
AcDbPolyline
90
4
70
1
43
0.0
10
19.409311423655399
20
-3.51414016137063
10
19.409311423655399
20
-2.8741401613706303
10
20.049311423655404
20
-2.8741401613706303
10
20.049311423655404
20
-3.51414016137063
0
LWPOLYLINE
5
112
100
AcDbEntity
8
0
100
AcDbPolyline
90
4
70
1
43
0.0
10
-22.390688576344605
20
-3.51414016137063
10
-22.390688576344605
20
-2.8741401613706303
10
-21.750688576344604
20
-2.8741401613706303
10
-21.750688576344604
20
-3.51414016137063
0
LWPOLYLINE
5
113
100
AcDbEntity
8
0
100
AcDbPolyline
90
4
70
1
43
0.0
10
-24.930688576344604
20
-3.51414016137063
10
-24.930688576344604
20
-2.8741401613706303
10
-24.290688576344603
20
-2.8741401613706303
10
-24.290688576344603
20
-3.51414016137063
0
LWPOLYLINE
5
114
100
AcDbEntity
8
0
100
AcDbPolyline
90
4
70
1
43
0.0
10
21.949311423655399
20
-13.6741401613706
10
21.949311423655399
20
-13.034140161370599
10
22.589311423655399
20
-13.034140161370599
10
22.589311423655399
20
-13.6741401613706
0
LWPOLYLINE
5
115
100
AcDbEntity
8
0
100
AcDbPolyline
90
4
70
1
43
0.0
10
19.409311423655399
20
-13.6741401613706
10
19.409311423655399
20
-13.034140161370599
10
20.049311423655404
20
-13.034140161370599
10
20.049311423655404
20
-13.6741401613706
0
LWPOLYLINE
5
116
100
AcDbEntity
8
0
100
AcDbPolyline
90
4
70
1
43
0.0
10
-22.390688576344605
20
-13.5141401613706
10
-22.390688576344605
20
-12.874140161370599
10
-21.750688576344604
20
-12.874140161370599
10
-21.750688576344604
20
-13.5141401613706
0
LWPOLYLINE
5
117
100
AcDbEntity
8
0
100
AcDbPolyline
90
4
70
1
43
0.0
10
-24.290688576344603
20
-12.874140161370599
10
-24.290688576344603
20
-13.5141401613706
10
-24.930688576344604
20
-13.5141401613706
10
-24.930688576344604
20
-12.874140161370599
0
ENDSEC
0
SECTION
2
OBJECTS
0
DICTIONARY
5
C
100
AcDbDictionary
3
ACAD_GROUP
350
D
3
ACAD_MLINESTYLE
350
17
0
DICTIONARY
5
D
100
AcDbDictionary
0
DICTIONARY
5
1A
330
C
100
AcDbDictionary
0
DICTIONARY
5
17
100
AcDbDictionary
0
ENDSEC
0
EOF
