G04*
G04 #@! TF.GenerationSoftware,Altium Limited,Altium Designer,24.2.2 (26)*
G04*
G04 Layer_Color=8388736*
%FSLAX25Y25*%
%MOIN*%
G70*
G04*
G04 #@! TF.SameCoordinates,5F421DDB-3BC7-4088-8A48-602F4A50BB0D*
G04*
G04*
G04 #@! TF.FilePolarity,Negative*
G04*
G01*
G75*
%ADD35R,0.03550X0.04416*%
%ADD36R,0.04731X0.04337*%
G04:AMPARAMS|DCode=37|XSize=35.89mil|YSize=14.63mil|CornerRadius=3.33mil|HoleSize=0mil|Usage=FLASHONLY|Rotation=180.000|XOffset=0mil|YOffset=0mil|HoleType=Round|Shape=RoundedRectangle|*
%AMROUNDEDRECTD37*
21,1,0.03589,0.00797,0,0,180.0*
21,1,0.02923,0.01463,0,0,180.0*
1,1,0.00666,-0.01462,0.00399*
1,1,0.00666,0.01462,0.00399*
1,1,0.00666,0.01462,-0.00399*
1,1,0.00666,-0.01462,-0.00399*
%
%ADD37ROUNDEDRECTD37*%
%ADD38R,0.05124X0.08274*%
%ADD39R,0.11030X0.04337*%
%ADD40R,0.04101X0.04416*%
%ADD41C,0.05124*%
G04:AMPARAMS|DCode=42|XSize=29mil|YSize=54mil|CornerRadius=4.5mil|HoleSize=0mil|Usage=FLASHONLY|Rotation=180.000|XOffset=0mil|YOffset=0mil|HoleType=Round|Shape=RoundedRectangle|*
%AMROUNDEDRECTD42*
21,1,0.02900,0.04500,0,0,180.0*
21,1,0.02000,0.05400,0,0,180.0*
1,1,0.00900,-0.01000,0.02250*
1,1,0.00900,0.01000,0.02250*
1,1,0.00900,0.01000,-0.02250*
1,1,0.00900,-0.01000,-0.02250*
%
%ADD42ROUNDEDRECTD42*%
%ADD43R,0.04337X0.05912*%
G04:AMPARAMS|DCode=44|XSize=29mil|YSize=54mil|CornerRadius=4.5mil|HoleSize=0mil|Usage=FLASHONLY|Rotation=270.000|XOffset=0mil|YOffset=0mil|HoleType=Round|Shape=RoundedRectangle|*
%AMROUNDEDRECTD44*
21,1,0.02900,0.04500,0,0,270.0*
21,1,0.02000,0.05400,0,0,270.0*
1,1,0.00900,-0.02250,-0.01000*
1,1,0.00900,-0.02250,0.01000*
1,1,0.00900,0.02250,0.01000*
1,1,0.00900,0.02250,-0.01000*
%
%ADD44ROUNDEDRECTD44*%
%ADD45R,0.03156X0.05124*%
%ADD46R,0.03392X0.05124*%
%ADD47R,0.03550X0.05124*%
%ADD48R,0.07487X0.05715*%
%ADD49R,0.07487X0.06306*%
%ADD50R,0.02762X0.04928*%
%ADD51R,0.02762X0.03943*%
%ADD52R,0.07014X0.07014*%
G04:AMPARAMS|DCode=53|XSize=37.86mil|YSize=14.24mil|CornerRadius=3.28mil|HoleSize=0mil|Usage=FLASHONLY|Rotation=180.000|XOffset=0mil|YOffset=0mil|HoleType=Round|Shape=RoundedRectangle|*
%AMROUNDEDRECTD53*
21,1,0.03786,0.00768,0,0,180.0*
21,1,0.03130,0.01424,0,0,180.0*
1,1,0.00656,-0.01565,0.00384*
1,1,0.00656,0.01565,0.00384*
1,1,0.00656,0.01565,-0.00384*
1,1,0.00656,-0.01565,-0.00384*
%
%ADD53ROUNDEDRECTD53*%
G04:AMPARAMS|DCode=54|XSize=37.86mil|YSize=14.24mil|CornerRadius=3.28mil|HoleSize=0mil|Usage=FLASHONLY|Rotation=270.000|XOffset=0mil|YOffset=0mil|HoleType=Round|Shape=RoundedRectangle|*
%AMROUNDEDRECTD54*
21,1,0.03786,0.00768,0,0,270.0*
21,1,0.03130,0.01424,0,0,270.0*
1,1,0.00656,-0.00384,-0.01565*
1,1,0.00656,-0.00384,0.01565*
1,1,0.00656,0.00384,0.01565*
1,1,0.00656,0.00384,-0.01565*
%
%ADD54ROUNDEDRECTD54*%
%ADD55R,0.07093X0.04337*%
%ADD56C,0.06306*%
%ADD57R,0.06306X0.06306*%
%ADD58R,0.06699X0.08274*%
%ADD59O,0.06699X0.08274*%
%ADD60R,0.06306X0.06306*%
%ADD61C,0.05550*%
%ADD62C,0.06337*%
%ADD63R,0.05786X0.05786*%
%ADD64C,0.05786*%
%ADD65C,0.02169*%
D35*
X62012Y100000D02*
D03*
X67988D02*
D03*
X60488Y62500D02*
D03*
X54512D02*
D03*
X177988Y50000D02*
D03*
X172012D02*
D03*
X177988Y57500D02*
D03*
X172012D02*
D03*
X152012D02*
D03*
X157988D02*
D03*
X142988Y52500D02*
D03*
X137012D02*
D03*
Y67500D02*
D03*
X142988D02*
D03*
X127988Y62500D02*
D03*
X122012D02*
D03*
X102012Y70000D02*
D03*
X107988D02*
D03*
X102012Y62500D02*
D03*
X107988D02*
D03*
X47988D02*
D03*
X42012D02*
D03*
X87988Y117500D02*
D03*
X82012D02*
D03*
X72988Y125000D02*
D03*
X67012D02*
D03*
D36*
X61654Y52500D02*
D03*
X68347Y52500D02*
D03*
X33346Y80000D02*
D03*
X26654D02*
D03*
D37*
X159724Y63563D02*
D03*
X150276Y71437D02*
D03*
X159724Y65531D02*
D03*
Y67500D02*
D03*
Y69468D02*
D03*
Y71437D02*
D03*
X150276Y69468D02*
D03*
Y67500D02*
D03*
Y65531D02*
D03*
Y63563D02*
D03*
X120276Y56437D02*
D03*
X129724Y48563D02*
D03*
X120276Y54469D02*
D03*
Y52500D02*
D03*
Y50532D02*
D03*
Y48563D02*
D03*
X129724Y50532D02*
D03*
Y52500D02*
D03*
Y54469D02*
D03*
Y56437D02*
D03*
D38*
X155000Y67500D02*
D03*
X125000Y52500D02*
D03*
D39*
X172500Y65669D02*
D03*
Y74331D02*
D03*
X107500Y45669D02*
D03*
Y54331D02*
D03*
D40*
X94390Y100000D02*
D03*
X100610D02*
D03*
X186890Y95000D02*
D03*
X193110D02*
D03*
X30610Y100000D02*
D03*
X24390D02*
D03*
X36890D02*
D03*
X43110D02*
D03*
X55610D02*
D03*
X49390D02*
D03*
X26890Y72500D02*
D03*
X33110D02*
D03*
X69390Y90000D02*
D03*
X75610D02*
D03*
X124390Y95000D02*
D03*
X130610D02*
D03*
X149390D02*
D03*
X155610D02*
D03*
X161890D02*
D03*
X168110D02*
D03*
X158110Y42500D02*
D03*
X151890Y42500D02*
D03*
Y50000D02*
D03*
X158110D02*
D03*
X143110Y45000D02*
D03*
X136890D02*
D03*
X136890Y75000D02*
D03*
X143110Y75000D02*
D03*
X128110Y70000D02*
D03*
X121890D02*
D03*
X121890Y77500D02*
D03*
X128110D02*
D03*
X49390Y37500D02*
D03*
X55610D02*
D03*
X60610Y70000D02*
D03*
X54390D02*
D03*
X70610Y45000D02*
D03*
X64390Y45000D02*
D03*
X84390Y72500D02*
D03*
X90610D02*
D03*
X84390Y65000D02*
D03*
X90610D02*
D03*
X71890D02*
D03*
X78110D02*
D03*
X74390Y100000D02*
D03*
X80610D02*
D03*
D41*
X27500Y90000D02*
D03*
X60000Y92500D02*
D03*
X202500Y87500D02*
D03*
X135000Y60000D02*
D03*
X165000Y57500D02*
D03*
X115000Y62500D02*
D03*
X67500Y60000D02*
D03*
X100000Y92500D02*
D03*
X87500Y125000D02*
D03*
D42*
X143400Y95000D02*
D03*
X136600D02*
D03*
X140000D02*
D03*
X143400Y85000D02*
D03*
X136600D02*
D03*
X140000D02*
D03*
X180900Y95000D02*
D03*
X174100D02*
D03*
X177500D02*
D03*
X180900Y85000D02*
D03*
X174100D02*
D03*
X177500D02*
D03*
X157500Y22500D02*
D03*
X154100D02*
D03*
X160900D02*
D03*
X157500Y32500D02*
D03*
X154100D02*
D03*
X160900D02*
D03*
X59200Y45000D02*
D03*
X55800D02*
D03*
X85800Y100000D02*
D03*
X89200D02*
D03*
D43*
X46260Y20669D02*
D03*
X53740D02*
D03*
X50000Y29331D02*
D03*
X76240Y81831D02*
D03*
X68760D02*
D03*
X72500Y73169D02*
D03*
X83760Y80669D02*
D03*
X91240D02*
D03*
X87500Y89331D02*
D03*
D44*
X62500Y79200D02*
D03*
Y75800D02*
D03*
D45*
X25532Y111189D02*
D03*
X29469D02*
D03*
D46*
X21516D02*
D03*
X33484D02*
D03*
D47*
X16673D02*
D03*
X38327D02*
D03*
D48*
X47677Y111406D02*
D03*
X7323D02*
D03*
D49*
Y125500D02*
D03*
X47677D02*
D03*
D50*
X46260Y77382D02*
D03*
X50000D02*
D03*
X53740D02*
D03*
Y87618D02*
D03*
X50000D02*
D03*
X46260D02*
D03*
D51*
X48740Y55512D02*
D03*
X45000D02*
D03*
X41260D02*
D03*
Y44488D02*
D03*
X48740D02*
D03*
D52*
X70000Y112500D02*
D03*
D53*
X64350Y109547D02*
D03*
Y111516D02*
D03*
Y113484D02*
D03*
Y115453D02*
D03*
X75650D02*
D03*
Y113484D02*
D03*
Y111516D02*
D03*
Y109547D02*
D03*
D54*
X72953Y106850D02*
D03*
X70984D02*
D03*
X69016D02*
D03*
X67047D02*
D03*
Y118150D02*
D03*
X69016D02*
D03*
X70984D02*
D03*
X72953D02*
D03*
D55*
X152402Y119980D02*
D03*
X127598D02*
D03*
Y105020D02*
D03*
X152402D02*
D03*
X189902Y119980D02*
D03*
X165098D02*
D03*
Y105020D02*
D03*
X189902D02*
D03*
D56*
X202500Y117500D02*
D03*
X85000Y22500D02*
D03*
Y32500D02*
D03*
X95000D02*
D03*
X115000Y22500D02*
D03*
X105000D02*
D03*
X125000D02*
D03*
X95000D02*
D03*
X105000Y32500D02*
D03*
X115000D02*
D03*
X145000Y22500D02*
D03*
X65000D02*
D03*
X188500Y16000D02*
D03*
Y56000D02*
D03*
X14000Y16500D02*
D03*
Y56000D02*
D03*
D57*
X202500Y107500D02*
D03*
X145000Y32500D02*
D03*
X65000D02*
D03*
D58*
X37500Y35000D02*
D03*
X202500D02*
D03*
D59*
X27500D02*
D03*
X17500D02*
D03*
X7500D02*
D03*
X192500D02*
D03*
X182500D02*
D03*
X172500D02*
D03*
D60*
X125000Y32500D02*
D03*
X198500Y16000D02*
D03*
Y56000D02*
D03*
X24000Y16500D02*
D03*
Y56000D02*
D03*
D61*
X10000Y79626D02*
D03*
Y87500D02*
D03*
Y95374D02*
D03*
D62*
Y71752D02*
D03*
Y103248D02*
D03*
D63*
X108937Y112835D02*
D03*
D64*
X101063D02*
D03*
D65*
X156378Y67500D02*
D03*
X155000Y70453D02*
D03*
X153622Y67500D02*
D03*
X155000Y64547D02*
D03*
X123622Y52500D02*
D03*
X125000Y49547D02*
D03*
X126378Y52500D02*
D03*
X125000Y55453D02*
D03*
M02*
