G04*
G04 #@! TF.GenerationSoftware,Altium Limited,Altium Designer,24.2.2 (26)*
G04*
G04 Layer_Physical_Order=1*
G04 Layer_Color=6711008*
%FSLAX25Y25*%
%MOIN*%
G70*
G04*
G04 #@! TF.SameCoordinates,5F421DDB-3BC7-4088-8A48-602F4A50BB0D*
G04*
G04*
G04 #@! TF.FilePolarity,Positive*
G04*
G01*
G75*
%ADD14C,0.01000*%
%ADD18R,0.03150X0.04016*%
%ADD19R,0.04331X0.03937*%
G04:AMPARAMS|DCode=20|XSize=31.89mil|YSize=10.63mil|CornerRadius=1.33mil|HoleSize=0mil|Usage=FLASHONLY|Rotation=180.000|XOffset=0mil|YOffset=0mil|HoleType=Round|Shape=RoundedRectangle|*
%AMROUNDEDRECTD20*
21,1,0.03189,0.00797,0,0,180.0*
21,1,0.02923,0.01063,0,0,180.0*
1,1,0.00266,-0.01462,0.00399*
1,1,0.00266,0.01462,0.00399*
1,1,0.00266,0.01462,-0.00399*
1,1,0.00266,-0.01462,-0.00399*
%
%ADD20ROUNDEDRECTD20*%
%ADD21R,0.10630X0.03937*%
%ADD22R,0.03701X0.04016*%
%ADD24R,0.03937X0.05512*%
%ADD25R,0.02756X0.04724*%
%ADD26R,0.02992X0.04724*%
%ADD27R,0.03150X0.04724*%
%ADD28R,0.07087X0.05315*%
%ADD29R,0.07087X0.05906*%
%ADD30R,0.02362X0.04528*%
%ADD31R,0.02362X0.03543*%
G04:AMPARAMS|DCode=32|XSize=33.86mil|YSize=10.24mil|CornerRadius=1.28mil|HoleSize=0mil|Usage=FLASHONLY|Rotation=180.000|XOffset=0mil|YOffset=0mil|HoleType=Round|Shape=RoundedRectangle|*
%AMROUNDEDRECTD32*
21,1,0.03386,0.00768,0,0,180.0*
21,1,0.03130,0.01024,0,0,180.0*
1,1,0.00256,-0.01565,0.00384*
1,1,0.00256,0.01565,0.00384*
1,1,0.00256,0.01565,-0.00384*
1,1,0.00256,-0.01565,-0.00384*
%
%ADD32ROUNDEDRECTD32*%
G04:AMPARAMS|DCode=33|XSize=33.86mil|YSize=10.24mil|CornerRadius=1.28mil|HoleSize=0mil|Usage=FLASHONLY|Rotation=270.000|XOffset=0mil|YOffset=0mil|HoleType=Round|Shape=RoundedRectangle|*
%AMROUNDEDRECTD33*
21,1,0.03386,0.00768,0,0,270.0*
21,1,0.03130,0.01024,0,0,270.0*
1,1,0.00256,-0.00384,-0.01565*
1,1,0.00256,-0.00384,0.01565*
1,1,0.00256,0.00384,0.01565*
1,1,0.00256,0.00384,-0.01565*
%
%ADD33ROUNDEDRECTD33*%
%ADD34R,0.06693X0.03937*%
%ADD66R,0.04724X0.07874*%
%ADD67C,0.04724*%
G04:AMPARAMS|DCode=68|XSize=25mil|YSize=50mil|CornerRadius=2.5mil|HoleSize=0mil|Usage=FLASHONLY|Rotation=180.000|XOffset=0mil|YOffset=0mil|HoleType=Round|Shape=RoundedRectangle|*
%AMROUNDEDRECTD68*
21,1,0.02500,0.04500,0,0,180.0*
21,1,0.02000,0.05000,0,0,180.0*
1,1,0.00500,-0.01000,0.02250*
1,1,0.00500,0.01000,0.02250*
1,1,0.00500,0.01000,-0.02250*
1,1,0.00500,-0.01000,-0.02250*
%
%ADD68ROUNDEDRECTD68*%
G04:AMPARAMS|DCode=69|XSize=25mil|YSize=50mil|CornerRadius=2.5mil|HoleSize=0mil|Usage=FLASHONLY|Rotation=270.000|XOffset=0mil|YOffset=0mil|HoleType=Round|Shape=RoundedRectangle|*
%AMROUNDEDRECTD69*
21,1,0.02500,0.04500,0,0,270.0*
21,1,0.02000,0.05000,0,0,270.0*
1,1,0.00500,-0.02250,-0.01000*
1,1,0.00500,-0.02250,0.01000*
1,1,0.00500,0.02250,0.01000*
1,1,0.00500,0.02250,-0.01000*
%
%ADD69ROUNDEDRECTD69*%
%ADD70R,0.06614X0.06614*%
%ADD71C,0.02200*%
%ADD72C,0.02000*%
%ADD73C,0.03000*%
%ADD74C,0.04000*%
%ADD75C,0.05906*%
%ADD76R,0.05906X0.05906*%
%ADD77R,0.06299X0.07874*%
%ADD78O,0.06299X0.07874*%
%ADD79R,0.05906X0.05906*%
%ADD80C,0.05150*%
%ADD81C,0.05937*%
%ADD82R,0.05386X0.05386*%
%ADD83C,0.05386*%
%ADD84C,0.01968*%
%ADD85C,0.02756*%
G36*
X204793Y129050D02*
X205949Y128571D01*
X206943Y127809D01*
X207705Y126816D01*
X208184Y125659D01*
X208342Y124460D01*
X208334Y124417D01*
X208334Y4802D01*
X205053Y1522D01*
X189664D01*
X173829Y12610D01*
X173717Y12659D01*
X173615Y12727D01*
X173518Y12746D01*
X173428Y12786D01*
X173306Y12788D01*
X173186Y12812D01*
X168292D01*
X168202Y13304D01*
X168798Y13702D01*
X173798Y18702D01*
X174196Y19298D01*
X174335Y20000D01*
Y29755D01*
X174354Y30044D01*
X174403Y30431D01*
X174467Y30748D01*
X174516Y30908D01*
X175246Y31467D01*
X175863Y32271D01*
X176251Y33208D01*
X176383Y34213D01*
Y35787D01*
X176251Y36792D01*
X175863Y37729D01*
X175246Y38533D01*
X174441Y39150D01*
X173505Y39538D01*
X172500Y39670D01*
X171495Y39538D01*
X170559Y39150D01*
X169754Y38533D01*
X169137Y37729D01*
X168749Y36792D01*
X168617Y35787D01*
Y34213D01*
X168749Y33208D01*
X169137Y32271D01*
X169754Y31467D01*
X170484Y30908D01*
X170533Y30748D01*
X170595Y30442D01*
X170665Y29698D01*
Y20760D01*
X166740Y16835D01*
X138260D01*
X134335Y20760D01*
Y37500D01*
X134196Y38202D01*
X133798Y38798D01*
X131298Y41298D01*
X130702Y41696D01*
X130000Y41835D01*
X115849D01*
X115714Y42000D01*
Y49308D01*
X117524D01*
X117965Y48962D01*
Y48164D01*
X118029Y47839D01*
X118213Y47564D01*
X118489Y47380D01*
X118814Y47315D01*
X119046D01*
X119047Y47309D01*
X119052Y47250D01*
Y46847D01*
X119145Y46378D01*
X119410Y45981D01*
X119864Y45528D01*
X119873Y45517D01*
X119912Y45459D01*
X119944Y45403D01*
X119971Y45346D01*
X119992Y45288D01*
X120009Y45228D01*
X120021Y45164D01*
X120026Y45114D01*
X120003Y45000D01*
X120165Y44189D01*
X120624Y43502D01*
X121311Y43043D01*
X122122Y42881D01*
X122933Y43043D01*
X123620Y43502D01*
X124079Y44189D01*
X124241Y45000D01*
X124079Y45811D01*
X123620Y46498D01*
X122933Y46957D01*
X122468Y47050D01*
X122338Y47564D01*
X122522Y47839D01*
X122586Y48164D01*
Y48962D01*
X122522Y49287D01*
X122348Y49547D01*
X122522Y49808D01*
X122586Y50133D01*
Y50930D01*
X122522Y51255D01*
X122338Y51531D01*
X122062Y51715D01*
X121737Y51779D01*
X118814D01*
X118692Y51755D01*
X115714D01*
Y53245D01*
X118692D01*
X118814Y53221D01*
X121737D01*
X122062Y53285D01*
X122338Y53469D01*
X122522Y53745D01*
X122586Y54070D01*
Y54867D01*
X122522Y55192D01*
X122376Y55410D01*
X122394Y55436D01*
X122495Y55673D01*
X122522Y55713D01*
X122530Y55756D01*
X122594Y55906D01*
X122595Y55910D01*
X122597Y55913D01*
X122624Y56046D01*
X122652Y56178D01*
X122651Y56182D01*
X122652Y56186D01*
Y56453D01*
X122773Y56478D01*
X123005Y56632D01*
X123159Y56864D01*
X123214Y57137D01*
Y59792D01*
X124287D01*
Y64487D01*
X124288Y64496D01*
X124287Y64504D01*
Y65208D01*
X123924D01*
X123895Y65374D01*
X123847Y66062D01*
Y66486D01*
X123849Y66552D01*
X123876Y66840D01*
X123912Y67079D01*
X123953Y67258D01*
X123965Y67292D01*
X124440D01*
Y67996D01*
X124442Y68004D01*
X124440Y68013D01*
Y72708D01*
X120060D01*
X120051Y72710D01*
X120043Y72708D01*
X119339D01*
Y72055D01*
X119338Y72044D01*
X119322Y72032D01*
X119228Y71985D01*
X119070Y71932D01*
X118860Y71886D01*
X118357Y71835D01*
X111183D01*
X111032Y71846D01*
X110754Y71884D01*
X110533Y71932D01*
X110374Y71985D01*
X110281Y72032D01*
X110264Y72044D01*
X110263Y72055D01*
Y72708D01*
X109560D01*
X109551Y72710D01*
X109542Y72708D01*
X105713D01*
Y68013D01*
X105712Y68004D01*
X105713Y67996D01*
Y67292D01*
X106076D01*
X106105Y67126D01*
X106153Y66439D01*
Y65975D01*
X106135Y65633D01*
X106107Y65389D01*
X106076Y65208D01*
X105713D01*
Y64504D01*
X105712Y64496D01*
X105713Y64487D01*
Y59792D01*
X106786D01*
Y59214D01*
X100000D01*
X99727Y59159D01*
X99495Y59005D01*
X99341Y58773D01*
X99286Y58500D01*
Y42000D01*
X99341Y41727D01*
X99495Y41495D01*
X99727Y41341D01*
X100000Y41286D01*
X100538D01*
X100729Y40824D01*
X96939Y37035D01*
X96561Y36671D01*
X96560Y36670D01*
X96383Y36547D01*
X96204Y36443D01*
X96022Y36357D01*
X95837Y36287D01*
X95647Y36233D01*
X95451Y36195D01*
X95248Y36173D01*
X95115Y36169D01*
X95000Y36184D01*
X94046Y36059D01*
X93158Y35691D01*
X92611Y35271D01*
X91306Y35223D01*
X87924D01*
X87820Y35224D01*
X87427Y35242D01*
X86842Y35691D01*
X85954Y36059D01*
X85000Y36184D01*
X84046Y36059D01*
X83158Y35691D01*
X82395Y35105D01*
X81809Y34342D01*
X81441Y33454D01*
X81316Y32500D01*
X81441Y31546D01*
X81809Y30658D01*
X82395Y29895D01*
X82514Y29803D01*
X82343Y29304D01*
X81798Y29196D01*
X81202Y28798D01*
X79823Y27418D01*
X79680Y27442D01*
X79335Y27638D01*
Y61313D01*
X79353Y61509D01*
X79397Y61779D01*
X79454Y61990D01*
X79514Y62139D01*
X79569Y62229D01*
X79607Y62270D01*
X79628Y62284D01*
X79650Y62292D01*
X79940D01*
X79949Y62290D01*
X79957Y62292D01*
X80661D01*
Y62945D01*
X80662Y62956D01*
X80678Y62968D01*
X80772Y63015D01*
X80930Y63068D01*
X81140Y63113D01*
X81270Y63127D01*
X81349Y63116D01*
X81570Y63068D01*
X81728Y63015D01*
X81822Y62968D01*
X81838Y62956D01*
X81839Y62945D01*
Y62292D01*
X82543D01*
X82551Y62290D01*
X82560Y62292D01*
X86940D01*
Y67708D01*
X82560D01*
X82551Y67710D01*
X82543Y67708D01*
X81839D01*
Y67055D01*
X81838Y67044D01*
X81822Y67032D01*
X81728Y66985D01*
X81570Y66932D01*
X81360Y66887D01*
X81230Y66873D01*
X81151Y66884D01*
X80930Y66932D01*
X80772Y66985D01*
X80678Y67032D01*
X80662Y67044D01*
X80661Y67055D01*
X80661Y67587D01*
X80746Y67847D01*
X80906Y68106D01*
X81153Y68271D01*
X82154D01*
X82856Y68411D01*
X83451Y68809D01*
X84435Y69792D01*
X86940D01*
Y74487D01*
X86942Y74496D01*
X86940Y74505D01*
Y75208D01*
X86283D01*
X86193Y75218D01*
X86182Y75222D01*
X86168Y75231D01*
X86134Y75269D01*
X86082Y75358D01*
X86024Y75508D01*
X85969Y75719D01*
X85926Y75990D01*
X85910Y76178D01*
Y76384D01*
X85934Y76779D01*
X85966Y77016D01*
X86003Y77202D01*
X86007Y77213D01*
X86428D01*
Y77917D01*
X86430Y77925D01*
X86428Y77934D01*
Y84125D01*
X81091D01*
Y77213D01*
X81821D01*
X81925Y77202D01*
X81949Y77194D01*
X81970Y77180D01*
X82007Y77140D01*
X82061Y77052D01*
X82121Y76905D01*
X82178Y76696D01*
X82222Y76427D01*
X82240Y76231D01*
Y75935D01*
X82225Y75628D01*
X82199Y75380D01*
X82172Y75208D01*
X81839D01*
Y74505D01*
X81838Y74496D01*
X81839Y74487D01*
Y72388D01*
X81393Y71942D01*
X80834D01*
X80811Y71957D01*
X80000Y72119D01*
X79189Y71957D01*
X78502Y71498D01*
X78043Y70811D01*
X77881Y70000D01*
X78043Y69189D01*
X78502Y68502D01*
X78942Y68208D01*
X78790Y67708D01*
X75560D01*
Y63010D01*
X75558Y63002D01*
X75560Y62993D01*
Y62973D01*
X75559Y62968D01*
X75560Y62965D01*
Y62292D01*
X75621D01*
X75665Y61549D01*
Y28260D01*
X71740Y24335D01*
X69150D01*
X69051Y24346D01*
X68840Y24384D01*
X68640Y24437D01*
X68450Y24504D01*
X68270Y24586D01*
X68097Y24682D01*
X67932Y24794D01*
X67772Y24922D01*
X67676Y25013D01*
X67605Y25105D01*
X66842Y25691D01*
X65954Y26059D01*
X65000Y26184D01*
X64046Y26059D01*
X63158Y25691D01*
X62395Y25105D01*
X61809Y24342D01*
X61441Y23454D01*
X61316Y22500D01*
X61441Y21546D01*
X61809Y20658D01*
X62395Y19895D01*
X63158Y19309D01*
X64046Y18941D01*
X65000Y18816D01*
X65954Y18941D01*
X66842Y19309D01*
X67605Y19895D01*
X67676Y19987D01*
X67772Y20078D01*
X67932Y20206D01*
X68097Y20318D01*
X68270Y20414D01*
X68450Y20496D01*
X68640Y20563D01*
X68840Y20616D01*
X69051Y20654D01*
X69150Y20665D01*
X72362D01*
X72558Y20320D01*
X72582Y20177D01*
X69240Y16835D01*
X49223D01*
X48928Y17213D01*
Y24125D01*
X47255D01*
X47249Y24129D01*
X47224Y24156D01*
X47181Y24228D01*
X47129Y24355D01*
X47080Y24540D01*
X47040Y24780D01*
X47025Y24954D01*
Y25502D01*
X47332Y25875D01*
X47525Y25875D01*
X52668D01*
Y27183D01*
X52676Y27204D01*
X52690Y27224D01*
X52730Y27262D01*
X52819Y27316D01*
X52969Y27377D01*
X53179Y27433D01*
X53450Y27478D01*
X53647Y27495D01*
X54321D01*
X55024Y27635D01*
X55619Y28033D01*
X56908Y29322D01*
X57306Y29917D01*
X57446Y30619D01*
Y30665D01*
X60369D01*
X60566Y30647D01*
X60836Y30603D01*
X61047Y30546D01*
X61196Y30485D01*
X61286Y30431D01*
X61326Y30394D01*
X61340Y30373D01*
X61347Y30353D01*
Y28847D01*
X68653D01*
Y36153D01*
X61347D01*
Y34647D01*
X61340Y34627D01*
X61326Y34606D01*
X61286Y34569D01*
X61196Y34515D01*
X61047Y34454D01*
X60836Y34397D01*
X60566Y34353D01*
X60369Y34335D01*
X58265D01*
X58161Y34792D01*
X58161D01*
Y35495D01*
X58162Y35504D01*
X58161Y35513D01*
Y40208D01*
X53060D01*
Y35513D01*
X53058Y35504D01*
X53060Y35495D01*
Y34792D01*
X53621D01*
X53649Y34723D01*
X53695Y34554D01*
X53735Y34333D01*
X53775Y33861D01*
Y31586D01*
X53646Y31427D01*
X53349Y31200D01*
X53179Y31228D01*
X52969Y31285D01*
X52819Y31345D01*
X52730Y31400D01*
X52690Y31437D01*
X52676Y31458D01*
X52668Y31478D01*
Y32787D01*
X47525D01*
X47332Y32787D01*
X47025Y33160D01*
Y34792D01*
X51940D01*
Y40208D01*
X51206D01*
X51177Y40223D01*
X50835Y40708D01*
X50940Y41238D01*
X50779Y42049D01*
X50656Y42231D01*
Y44407D01*
X50621Y44584D01*
Y45303D01*
X50661Y45372D01*
X50878Y45681D01*
X51455Y46360D01*
X55760Y50665D01*
X58788D01*
Y49832D01*
X64519D01*
Y55168D01*
X62638D01*
X62617Y55176D01*
X62595Y55191D01*
X62557Y55232D01*
X62503Y55321D01*
X62442Y55471D01*
X62386Y55681D01*
X62341Y55951D01*
X62323Y56148D01*
Y57201D01*
X62344Y57402D01*
X62500Y57881D01*
X63311Y58043D01*
X63494Y58165D01*
X63680D01*
X63854Y58157D01*
X64135Y58124D01*
X64404Y58076D01*
X64655Y58017D01*
X64886Y57945D01*
X65099Y57863D01*
X65294Y57770D01*
X65472Y57667D01*
X65659Y57536D01*
X65709Y57515D01*
X65956Y57325D01*
X66701Y57017D01*
X67500Y56911D01*
X68299Y57017D01*
X69044Y57325D01*
X69684Y57816D01*
X70175Y58456D01*
X70483Y59201D01*
X70589Y60000D01*
X70483Y60799D01*
X70175Y61544D01*
X69985Y61792D01*
X70231Y62292D01*
X74440D01*
Y66987D01*
X74442Y66996D01*
X74440Y67005D01*
Y67708D01*
X74100D01*
X74074Y67868D01*
X74030Y68539D01*
Y68734D01*
X74047Y68931D01*
X74092Y69201D01*
X74149Y69412D01*
X74209Y69561D01*
X74264Y69650D01*
X74302Y69691D01*
X74323Y69706D01*
X74344Y69713D01*
X75169D01*
Y76625D01*
X72427D01*
X71954Y77098D01*
X71359Y77496D01*
X70657Y77635D01*
X68872D01*
X68641Y78135D01*
X68844Y78375D01*
X71428D01*
Y84566D01*
X71430Y84575D01*
X71428Y84583D01*
Y85287D01*
X71328D01*
X71176Y85787D01*
X71498Y86002D01*
X71957Y86689D01*
X72119Y87500D01*
X71957Y88311D01*
X71940Y88337D01*
Y92708D01*
X66839D01*
Y87292D01*
X67239D01*
Y86269D01*
X67222Y86073D01*
X67177Y85804D01*
X67121Y85595D01*
X67061Y85448D01*
X67007Y85360D01*
X66970Y85320D01*
X66949Y85306D01*
X66926Y85298D01*
X66821Y85287D01*
X66091D01*
Y81501D01*
X66084Y81479D01*
X66069Y81457D01*
X66027Y81419D01*
X65938Y81365D01*
X65789Y81304D01*
X65578Y81247D01*
X65308Y81203D01*
X65111Y81185D01*
X62650D01*
X62566Y81169D01*
X60250D01*
X59879Y81095D01*
X59565Y80885D01*
X59355Y80571D01*
X59281Y80200D01*
Y78200D01*
X59355Y77829D01*
X59556Y77500D01*
X59355Y77171D01*
X59298Y76881D01*
X59062Y76731D01*
X58781Y76643D01*
X58311Y76957D01*
X57500Y77119D01*
X56689Y76957D01*
X56515Y76841D01*
X56353Y76858D01*
X56094Y76908D01*
X55894Y76971D01*
X55753Y77038D01*
X55666Y77100D01*
X55621Y77149D01*
Y80346D01*
X51859D01*
Y74418D01*
X51905D01*
Y72708D01*
X51839D01*
Y72004D01*
X51838Y71996D01*
X51839Y71987D01*
Y67292D01*
X56940D01*
Y72483D01*
X57357Y72910D01*
X57500Y72881D01*
X58311Y73043D01*
X58998Y73502D01*
X59200Y73804D01*
X59565Y74115D01*
X59879Y73905D01*
X60250Y73831D01*
X64750D01*
X65121Y73905D01*
X65129Y73911D01*
X66593Y73965D01*
X68851D01*
X69048Y73947D01*
X69318Y73903D01*
X69529Y73846D01*
X69678Y73786D01*
X69767Y73731D01*
X69809Y73693D01*
X69824Y73671D01*
X69832Y73649D01*
Y70432D01*
X69830Y70423D01*
X69832Y70415D01*
Y69713D01*
X70260D01*
X70265Y69699D01*
X70299Y69532D01*
X70360Y68806D01*
Y68675D01*
X70344Y68489D01*
X70301Y68218D01*
X70247Y68006D01*
X70189Y67856D01*
X70137Y67767D01*
X70104Y67729D01*
X70092Y67721D01*
X70083Y67717D01*
X69997Y67708D01*
X69339D01*
Y67005D01*
X69338Y66996D01*
X69339Y66987D01*
Y63033D01*
X68839Y62760D01*
X68299Y62983D01*
X67500Y63089D01*
X66701Y62983D01*
X65956Y62675D01*
X65709Y62485D01*
X65659Y62464D01*
X65472Y62333D01*
X65294Y62230D01*
X65099Y62137D01*
X64886Y62055D01*
X64655Y61983D01*
X64404Y61924D01*
X64144Y61878D01*
X63684Y61835D01*
X63494D01*
X63311Y61957D01*
X62763Y62066D01*
Y65208D01*
X58213D01*
Y59792D01*
X58653D01*
Y54335D01*
X55000D01*
X54298Y54196D01*
X53702Y53798D01*
X47442Y47538D01*
X47056Y46960D01*
X46859D01*
Y46548D01*
X46855Y46532D01*
X46817Y46399D01*
X46817Y46399D01*
X46817Y46398D01*
X46811Y46328D01*
X46812Y46319D01*
X46810Y46310D01*
X46828Y46181D01*
X46843Y46051D01*
X46848Y46044D01*
X46849Y46034D01*
X46859Y46018D01*
Y44584D01*
X46824Y44407D01*
X46859Y44230D01*
Y42737D01*
X46857Y42728D01*
X46859Y42720D01*
Y42024D01*
X46703Y41238D01*
X46810Y40696D01*
X46839Y40208D01*
X46839Y40208D01*
X46839Y40208D01*
Y39505D01*
X46838Y39496D01*
X46839Y39487D01*
Y38310D01*
X46339Y38103D01*
X42926Y41517D01*
X43133Y42017D01*
X43141D01*
Y46960D01*
X39379D01*
Y42370D01*
X35081D01*
X34233Y43218D01*
Y68964D01*
X34249Y69138D01*
X34288Y69378D01*
X34338Y69562D01*
X34390Y69690D01*
X34433Y69761D01*
X34458Y69788D01*
X34464Y69792D01*
X34940D01*
X34949Y69790D01*
X34957Y69792D01*
X35661D01*
Y70445D01*
X35662Y70456D01*
X35678Y70468D01*
X35772Y70515D01*
X35930Y70568D01*
X36140Y70613D01*
X36643Y70665D01*
X37265D01*
X37968Y70804D01*
X38563Y71202D01*
X38824Y71464D01*
X39286Y71272D01*
Y65208D01*
X39341Y64935D01*
X39495Y64703D01*
X39727Y64548D01*
X40000Y64494D01*
X43784D01*
X44014Y64341D01*
X44287Y64286D01*
X45618D01*
X45713Y64191D01*
Y59792D01*
X46590D01*
X46612Y59784D01*
X46633Y59770D01*
X46671Y59729D01*
X46726Y59639D01*
X46786Y59490D01*
X46843Y59279D01*
X46888Y59009D01*
X46905Y58812D01*
Y57983D01*
X46859D01*
Y57280D01*
X46857Y57271D01*
X46859Y57263D01*
Y54454D01*
X46108Y53704D01*
X43892D01*
X43141Y54454D01*
Y57983D01*
X39379D01*
Y53040D01*
X39564D01*
X39564Y53038D01*
X39962Y52442D01*
X41834Y50571D01*
X42429Y50173D01*
X43131Y50033D01*
X46869D01*
X47571Y50173D01*
X48166Y50571D01*
X50038Y52442D01*
X50436Y53038D01*
X50436Y53040D01*
X50621D01*
Y57263D01*
X50623Y57271D01*
X50621Y57280D01*
Y57286D01*
X50623Y57294D01*
X50621Y57337D01*
Y57983D01*
X50601D01*
X50575Y58797D01*
Y63760D01*
X50436Y64462D01*
X50263Y64721D01*
Y65208D01*
X49888D01*
X48214Y66882D01*
Y70995D01*
X48217Y71000D01*
X48379Y71811D01*
X48217Y72622D01*
X48214Y72627D01*
Y80000D01*
X48159Y80273D01*
X48141Y80301D01*
Y80346D01*
X48111D01*
X48005Y80505D01*
X47773Y80659D01*
X47500Y80714D01*
X40916D01*
X40847Y80700D01*
X40777D01*
X40712Y80673D01*
X40643Y80659D01*
X40584Y80620D01*
X40519Y80593D01*
X40348Y80515D01*
X39958Y80577D01*
X39871Y80620D01*
X39471Y80887D01*
X39289Y80923D01*
X39090Y81452D01*
X39093Y81472D01*
X39229Y82157D01*
Y83847D01*
X39457Y84189D01*
X39619Y85000D01*
X39457Y85811D01*
X38998Y86498D01*
X38311Y86957D01*
X37500Y87119D01*
X36689Y86957D01*
X36002Y86498D01*
X35543Y85811D01*
X35381Y85000D01*
X35543Y84189D01*
X35558Y84166D01*
Y82917D01*
X35345Y82704D01*
X34215D01*
X34038Y82669D01*
X30481D01*
Y77332D01*
X36212D01*
Y77383D01*
X36712Y77618D01*
X36719Y77613D01*
Y74752D01*
X36651Y74657D01*
X36295Y74364D01*
X36151Y74384D01*
X35930Y74432D01*
X35772Y74485D01*
X35678Y74532D01*
X35662Y74544D01*
X35661Y74555D01*
Y75208D01*
X34957D01*
X34949Y75210D01*
X34940Y75208D01*
X30560D01*
Y70537D01*
X30559Y70532D01*
X30560Y70525D01*
Y70510D01*
X30558Y70502D01*
X30560Y70493D01*
Y69792D01*
X30727D01*
X30767Y69144D01*
Y42500D01*
X30899Y41837D01*
X31274Y41274D01*
X33137Y39411D01*
X33650Y39069D01*
Y30363D01*
X35246D01*
X35351Y30352D01*
X35374Y30344D01*
X35395Y30330D01*
X35432Y30290D01*
X35486Y30202D01*
X35546Y30054D01*
X35603Y29845D01*
X35647Y29577D01*
X35665Y29381D01*
Y19659D01*
X35804Y18957D01*
X36202Y18361D01*
X40861Y13702D01*
X41457Y13304D01*
X41367Y12812D01*
X36168D01*
X36048Y12788D01*
X35925Y12786D01*
X35835Y12746D01*
X35739Y12727D01*
X35637Y12659D01*
X35524Y12610D01*
X19689Y1522D01*
X4802D01*
X1522Y4802D01*
X1522Y124409D01*
X1523Y124417D01*
X1523D01*
X1574Y124896D01*
X1674Y125659D01*
X2153Y126816D01*
X2915Y127809D01*
X3909Y128571D01*
X5066Y129050D01*
X6264Y129208D01*
X6307Y129200D01*
X203551D01*
X203594Y129208D01*
X204793Y129050D01*
D02*
G37*
G36*
X70180Y86357D02*
X70262Y85367D01*
X70310Y85125D01*
X70370Y84927D01*
X70440Y84773D01*
X70521Y84663D01*
X70613Y84597D01*
X70716Y84575D01*
X66875D01*
X67084Y84597D01*
X67271Y84663D01*
X67436Y84773D01*
X67579Y84927D01*
X67700Y85125D01*
X67799Y85367D01*
X67876Y85653D01*
X67931Y85983D01*
X67964Y86357D01*
X67975Y86775D01*
X70175D01*
X70180Y86357D01*
D02*
G37*
G36*
X66810Y80449D02*
X66968Y80450D01*
X67067Y78250D01*
X66678Y78248D01*
X65320Y78166D01*
X65165Y78136D01*
X65048Y78101D01*
X64971Y78062D01*
X64932Y78018D01*
Y78257D01*
X64603Y78250D01*
Y80450D01*
X65023Y80461D01*
X65398Y80494D01*
X65729Y80549D01*
X66016Y80626D01*
X66260Y80725D01*
X66459Y80846D01*
X66614Y80989D01*
X66725Y81154D01*
X66792Y81341D01*
X66815Y81550D01*
X66810Y80449D01*
D02*
G37*
G36*
X64961Y76967D02*
X65032Y76953D01*
X65148Y76940D01*
X65753Y76913D01*
X67166Y76900D01*
Y74700D01*
X64932Y74618D01*
Y76982D01*
X64961Y76967D01*
D02*
G37*
G36*
X85614Y77903D02*
X85521Y77837D01*
X85440Y77727D01*
X85370Y77573D01*
X85310Y77375D01*
X85261Y77133D01*
X85224Y76847D01*
X85187Y76256D01*
X85217Y75904D01*
X85270Y75574D01*
X85343Y75288D01*
X85438Y75046D01*
X85554Y74848D01*
X85691Y74694D01*
X85849Y74584D01*
X86028Y74518D01*
X86228Y74496D01*
X82551D01*
X82632Y74518D01*
X82704Y74584D01*
X82767Y74694D01*
X82822Y74848D01*
X82869Y75046D01*
X82907Y75288D01*
X82937Y75574D01*
X82964Y76139D01*
X82964Y76143D01*
X82931Y76517D01*
X82876Y76847D01*
X82799Y77133D01*
X82700Y77375D01*
X82579Y77573D01*
X82436Y77727D01*
X82271Y77837D01*
X82084Y77903D01*
X81875Y77925D01*
X85716D01*
X85614Y77903D01*
D02*
G37*
G36*
X70543Y75913D02*
X70556Y73600D01*
X70532Y73809D01*
X70465Y73996D01*
X70354Y74161D01*
X70199Y74304D01*
X70000Y74425D01*
X69756Y74524D01*
X69469Y74601D01*
X69138Y74656D01*
X68763Y74689D01*
X68344Y74700D01*
Y76900D01*
X70543Y75913D01*
D02*
G37*
G36*
X54862Y77138D02*
X54928Y76920D01*
X55038Y76728D01*
X55192Y76561D01*
X55390Y76420D01*
X55632Y76305D01*
X55918Y76215D01*
X56248Y76151D01*
X56622Y76113D01*
X57040Y76100D01*
Y73900D01*
X56622Y73878D01*
X56248Y73812D01*
X55918Y73702D01*
X55632Y73548D01*
X55390Y73350D01*
X55192Y73108D01*
X55038Y72822D01*
X55022Y72774D01*
X55115Y72546D01*
X55236Y72348D01*
X55379Y72194D01*
X55544Y72084D01*
X55731Y72018D01*
X55940Y71996D01*
X54856D01*
X54840Y71700D01*
X54643Y71996D01*
X52551D01*
X52568Y72018D01*
X52583Y72084D01*
X52597Y72194D01*
X52618Y72546D01*
X52640Y74196D01*
X53176D01*
X52640Y75000D01*
X54840Y77382D01*
X54862Y77138D01*
D02*
G37*
G36*
X34971Y74326D02*
X35037Y74173D01*
X35147Y74039D01*
X35301Y73922D01*
X35499Y73824D01*
X35741Y73743D01*
X36027Y73681D01*
X36357Y73636D01*
X36731Y73609D01*
X37149Y73600D01*
Y71400D01*
X36731Y71391D01*
X36027Y71319D01*
X35741Y71257D01*
X35499Y71176D01*
X35301Y71078D01*
X35147Y70961D01*
X35037Y70827D01*
X34971Y70674D01*
X34949Y70504D01*
Y74496D01*
X34971Y74326D01*
D02*
G37*
G36*
X120051Y70000D02*
X122500D01*
Y68004D01*
X123728D01*
X123611Y67982D01*
X123506Y67916D01*
X123414Y67806D01*
X123334Y67652D01*
X123266Y67454D01*
X123210Y67212D01*
X123167Y66926D01*
X123136Y66596D01*
X123124Y66178D01*
X123186Y65288D01*
X123228Y65046D01*
X123278Y64848D01*
X123339Y64694D01*
X123408Y64584D01*
X123487Y64518D01*
X123575Y64496D01*
X122500D01*
Y57137D01*
X121938D01*
Y56186D01*
X121737Y55716D01*
X118814D01*
X118692Y55692D01*
X115714D01*
Y58500D01*
X115659Y58773D01*
X115505Y59005D01*
X115273Y59159D01*
X115000Y59214D01*
X107500D01*
Y64496D01*
X106425D01*
X106513Y64518D01*
X106592Y64584D01*
X106661Y64694D01*
X106722Y64848D01*
X106772Y65046D01*
X106814Y65288D01*
X106846Y65574D01*
X106882Y66246D01*
X106814Y67212D01*
X106772Y67454D01*
X106722Y67652D01*
X106661Y67806D01*
X106592Y67916D01*
X106513Y67982D01*
X106425Y68004D01*
X107500D01*
Y70000D01*
X109551D01*
Y71996D01*
X109573Y71826D01*
X109639Y71673D01*
X109749Y71539D01*
X109903Y71422D01*
X110101Y71324D01*
X110343Y71243D01*
X110629Y71181D01*
X110959Y71136D01*
X111333Y71109D01*
X111751Y71100D01*
Y70000D01*
X117851D01*
Y71100D01*
X118269Y71109D01*
X118973Y71181D01*
X119259Y71243D01*
X119501Y71324D01*
X119699Y71422D01*
X119853Y71539D01*
X119963Y71673D01*
X120029Y71826D01*
X120051Y71996D01*
Y70000D01*
D02*
G37*
G36*
X34310Y70495D02*
X34140Y70434D01*
X33990Y70333D01*
X33860Y70192D01*
X33750Y70011D01*
X33660Y69790D01*
X33590Y69529D01*
X33540Y69227D01*
X33510Y68886D01*
X33500Y68504D01*
X31500D01*
X31498Y68884D01*
X31418Y70184D01*
X31388Y70324D01*
X31354Y70424D01*
X31315Y70484D01*
X31272Y70504D01*
X34500Y70516D01*
X34310Y70495D01*
D02*
G37*
G36*
X74186Y70415D02*
X73999Y70348D01*
X73834Y70237D01*
X73691Y70082D01*
X73570Y69883D01*
X73471Y69639D01*
X73394Y69352D01*
X73339Y69021D01*
X73307Y68658D01*
X73364Y67788D01*
X73403Y67546D01*
X73451Y67348D01*
X73507Y67194D01*
X73572Y67084D01*
X73646Y67018D01*
X73728Y66996D01*
X70051D01*
X70250Y67018D01*
X70427Y67084D01*
X70584Y67194D01*
X70719Y67348D01*
X70834Y67546D01*
X70928Y67788D01*
X71001Y68074D01*
X71053Y68404D01*
X71081Y68740D01*
X71007Y69633D01*
X70957Y69875D01*
X70896Y70073D01*
X70825Y70227D01*
X70742Y70337D01*
X70648Y70403D01*
X70543Y70425D01*
X74395Y70437D01*
X74186Y70415D01*
D02*
G37*
G36*
X82551Y63004D02*
X82529Y63174D01*
X82463Y63327D01*
X82353Y63461D01*
X82199Y63578D01*
X82001Y63676D01*
X81759Y63757D01*
X81473Y63819D01*
X81282Y63845D01*
X81027Y63819D01*
X80741Y63757D01*
X80499Y63676D01*
X80301Y63578D01*
X80147Y63461D01*
X80037Y63327D01*
X79971Y63174D01*
X79949Y63004D01*
Y66996D01*
X79971Y66826D01*
X80037Y66673D01*
X80147Y66539D01*
X80301Y66422D01*
X80499Y66324D01*
X80741Y66243D01*
X81027Y66181D01*
X81218Y66155D01*
X81473Y66181D01*
X81759Y66243D01*
X82001Y66324D01*
X82199Y66422D01*
X82353Y66539D01*
X82463Y66673D01*
X82529Y66826D01*
X82551Y66996D01*
Y63004D01*
D02*
G37*
G36*
X47500Y66555D02*
X49551Y64496D01*
X46425D01*
X46420Y64505D01*
X46395Y64534D01*
X46097Y64844D01*
X45942Y65000D01*
X44287D01*
Y65208D01*
X40000D01*
Y72713D01*
X40249Y73086D01*
X40389Y73789D01*
Y77720D01*
X40422Y77753D01*
X40738Y78516D01*
Y79343D01*
X40638Y79584D01*
X40916Y80000D01*
X47500D01*
Y66555D01*
D02*
G37*
G36*
X79491Y62993D02*
X79304Y62926D01*
X79139Y62815D01*
X78996Y62660D01*
X78875Y62461D01*
X78776Y62218D01*
X78699Y61931D01*
X78644Y61599D01*
X78611Y61224D01*
X78600Y60804D01*
X76400D01*
X76399Y61222D01*
X76296Y62982D01*
X76272Y63004D01*
X79700Y63016D01*
X79491Y62993D01*
D02*
G37*
G36*
X66067Y58122D02*
X65855Y58270D01*
X65627Y58402D01*
X65382Y58519D01*
X65120Y58620D01*
X64843Y58706D01*
X64549Y58776D01*
X64239Y58830D01*
X63912Y58869D01*
X63209Y58900D01*
Y61100D01*
X63569Y61108D01*
X64239Y61170D01*
X64549Y61225D01*
X64843Y61295D01*
X65120Y61380D01*
X65382Y61481D01*
X65627Y61598D01*
X65855Y61730D01*
X66067Y61878D01*
Y58122D01*
D02*
G37*
G36*
X49551Y60504D02*
X49606Y60482D01*
X49655Y60416D01*
X49698Y60306D01*
X49736Y60152D01*
X49768Y59954D01*
X49810Y59471D01*
X49840D01*
X49909Y57271D01*
X47571D01*
X47584Y57293D01*
X47596Y57359D01*
X47606Y57469D01*
X47629Y58064D01*
X47633Y58573D01*
X47629Y58724D01*
X47596Y59099D01*
X47541Y59430D01*
X47464Y59718D01*
X47365Y59961D01*
X47244Y60160D01*
X47101Y60315D01*
X46936Y60426D01*
X46749Y60493D01*
X46540Y60516D01*
X49551Y60504D01*
D02*
G37*
G36*
X61597Y62234D02*
X61625Y61996D01*
X61670Y61786D01*
X61734Y61604D01*
X61816Y61450D01*
X61916Y61324D01*
X62035Y61226D01*
X62172Y61156D01*
X62327Y61114D01*
X62500Y61100D01*
Y58900D01*
X62327Y58878D01*
X62172Y58812D01*
X62035Y58702D01*
X61916Y58548D01*
X61816Y58350D01*
X61734Y58108D01*
X61670Y57822D01*
X61597Y57118D01*
X61588Y56700D01*
X59388Y60000D01*
X61588Y62500D01*
X61597Y62234D01*
D02*
G37*
G36*
X61599Y56237D02*
X61632Y55862D01*
X61687Y55530D01*
X61764Y55243D01*
X61863Y55000D01*
X61984Y54800D01*
X62127Y54645D01*
X62292Y54534D01*
X62479Y54467D01*
X62688Y54444D01*
X59500Y54457D01*
X59479Y54479D01*
X59460Y54545D01*
X59443Y54655D01*
X59429Y54808D01*
X59398Y55534D01*
X59388Y56656D01*
X61588D01*
X61599Y56237D01*
D02*
G37*
G36*
X121181Y48035D02*
X121096Y48005D01*
X121021Y47954D01*
X120956Y47884D01*
X120901Y47793D01*
X120856Y47681D01*
X120821Y47550D01*
X120796Y47398D01*
X120781Y47226D01*
X120776Y47034D01*
X119776D01*
X119771Y47226D01*
X119756Y47398D01*
X119731Y47550D01*
X119696Y47681D01*
X119651Y47793D01*
X119596Y47884D01*
X119531Y47954D01*
X119456Y48005D01*
X119371Y48035D01*
X119276Y48046D01*
X121276D01*
X121181Y48035D01*
D02*
G37*
G36*
X121080Y46756D02*
X121180Y46676D01*
X121284Y46605D01*
X121391Y46543D01*
X121502Y46492D01*
X121616Y46450D01*
X121734Y46417D01*
X121855Y46395D01*
X121980Y46381D01*
X122108Y46378D01*
X120744Y45014D01*
X120741Y45142D01*
X120728Y45267D01*
X120705Y45388D01*
X120672Y45506D01*
X120630Y45620D01*
X120579Y45731D01*
X120518Y45838D01*
X120447Y45942D01*
X120366Y46042D01*
X120276Y46139D01*
X120983Y46846D01*
X121080Y46756D01*
D02*
G37*
G36*
X51465Y47409D02*
X51016Y46945D01*
X50313Y46118D01*
X50059Y45756D01*
X49869Y45428D01*
X49745Y45134D01*
X49686Y44874D01*
X49691Y44648D01*
X49762Y44456D01*
X49897Y44298D01*
X47571Y46248D01*
X47522Y46271D01*
X47528Y46341D01*
X47588Y46458D01*
X47702Y46621D01*
X47870Y46831D01*
X48370Y47391D01*
X49526Y48581D01*
X51465Y47409D01*
D02*
G37*
G36*
X49911Y42714D02*
X49914Y42669D01*
X49921Y41238D01*
X49928Y40907D01*
X49979Y40349D01*
X50024Y40123D01*
X50082Y39931D01*
X50152Y39775D01*
X50236Y39653D01*
X50332Y39566D01*
X50441Y39513D01*
X50563Y39496D01*
X47551D01*
X47584Y39513D01*
X47613Y39566D01*
X47638Y39653D01*
X47660Y39775D01*
X47679Y39931D01*
X47706Y40349D01*
X47721Y41238D01*
X47720Y41521D01*
X47648Y42594D01*
X47625Y42669D01*
X47600Y42714D01*
X47571Y42728D01*
X49909D01*
X49911Y42714D01*
D02*
G37*
G36*
X57308Y35482D02*
X57183Y35416D01*
X57072Y35306D01*
X56976Y35152D01*
X56895Y34954D01*
X56828Y34712D01*
X56777Y34426D01*
X56740Y34096D01*
X56710Y33304D01*
X54510D01*
X54503Y33722D01*
X54444Y34426D01*
X54392Y34712D01*
X54326Y34954D01*
X54244Y35152D01*
X54148Y35306D01*
X54038Y35416D01*
X53912Y35482D01*
X53772Y35504D01*
X57449D01*
X57308Y35482D01*
D02*
G37*
G36*
X99787Y35732D02*
X99258Y35198D01*
X98484Y34322D01*
X98445Y34266D01*
X98312Y34037D01*
X98200Y33802D01*
X98109Y33561D01*
X98038Y33313D01*
X97989Y33058D01*
X97960Y32797D01*
X97953Y32530D01*
X97393Y33089D01*
X97112Y32771D01*
X97028Y32611D01*
X97000Y32499D01*
X94999Y34500D01*
X95111Y34528D01*
X95271Y34612D01*
X95477Y34751D01*
X95621Y34862D01*
X95029Y35453D01*
X95297Y35460D01*
X95558Y35489D01*
X95813Y35538D01*
X96061Y35609D01*
X96302Y35700D01*
X96537Y35812D01*
X96766Y35945D01*
X96988Y36098D01*
X97033Y36135D01*
X98232Y37287D01*
X99787Y35732D01*
D02*
G37*
G36*
X105001Y30500D02*
X104889Y30472D01*
X104729Y30388D01*
X104523Y30249D01*
X104379Y30138D01*
X104971Y29547D01*
X104703Y29540D01*
X104442Y29511D01*
X104187Y29462D01*
X103939Y29391D01*
X103698Y29300D01*
X103463Y29188D01*
X103234Y29056D01*
X103012Y28902D01*
X102967Y28865D01*
X101768Y27713D01*
X100213Y29268D01*
X100742Y29802D01*
X101516Y30678D01*
X101555Y30734D01*
X101688Y30963D01*
X101800Y31198D01*
X101891Y31439D01*
X101962Y31687D01*
X102011Y31942D01*
X102040Y32203D01*
X102047Y32471D01*
X102607Y31911D01*
X102888Y32229D01*
X102972Y32389D01*
X103000Y32501D01*
X105001Y30500D01*
D02*
G37*
G36*
X112891Y30433D02*
X112861Y30446D01*
X112797Y30457D01*
X112699Y30467D01*
X112199Y30489D01*
X111056Y30500D01*
Y34500D01*
X112891Y34567D01*
Y30433D01*
D02*
G37*
G36*
X107139Y34554D02*
X107203Y34543D01*
X107301Y34533D01*
X107801Y34511D01*
X108944Y34500D01*
Y30500D01*
X107109Y30433D01*
Y34567D01*
X107139Y34554D01*
D02*
G37*
G36*
X92891Y30433D02*
X92861Y30446D01*
X92797Y30457D01*
X92699Y30467D01*
X92199Y30489D01*
X91056Y30500D01*
Y34500D01*
X92891Y34567D01*
Y30433D01*
D02*
G37*
G36*
X87139Y34554D02*
X87203Y34543D01*
X87301Y34533D01*
X87801Y34511D01*
X88944Y34500D01*
Y30500D01*
X87109Y30433D01*
Y34567D01*
X87139Y34554D01*
D02*
G37*
G36*
X62071Y30300D02*
X62049Y30509D01*
X61983Y30696D01*
X61872Y30861D01*
X61717Y31004D01*
X61518Y31125D01*
X61275Y31224D01*
X60987Y31301D01*
X60656Y31356D01*
X60280Y31389D01*
X59859Y31400D01*
Y33600D01*
X60280Y33611D01*
X60656Y33644D01*
X60987Y33699D01*
X61275Y33776D01*
X61518Y33875D01*
X61717Y33996D01*
X61872Y34139D01*
X61983Y34304D01*
X62049Y34491D01*
X62071Y34700D01*
Y30300D01*
D02*
G37*
G36*
X174485Y31939D02*
X174299Y31852D01*
X174135Y31707D01*
X173993Y31504D01*
X173873Y31243D01*
X173775Y30924D01*
X173698Y30547D01*
X173644Y30112D01*
X173611Y29619D01*
X173600Y29068D01*
X171400D01*
X171389Y29619D01*
X171302Y30547D01*
X171225Y30924D01*
X171127Y31243D01*
X171007Y31504D01*
X170865Y31707D01*
X170701Y31852D01*
X170515Y31939D01*
X170308Y31968D01*
X174692D01*
X174485Y31939D01*
D02*
G37*
G36*
X39491Y31053D02*
X39304Y30987D01*
X39139Y30877D01*
X38996Y30723D01*
X38875Y30525D01*
X38776Y30283D01*
X38699Y29997D01*
X38644Y29667D01*
X38611Y29293D01*
X38600Y28875D01*
X36400D01*
X36389Y29293D01*
X36356Y29667D01*
X36301Y29997D01*
X36224Y30283D01*
X36125Y30525D01*
X36004Y30723D01*
X35861Y30877D01*
X35696Y30987D01*
X35509Y31053D01*
X35300Y31075D01*
X39700D01*
X39491Y31053D01*
D02*
G37*
G36*
X130665Y36740D02*
Y20000D01*
X130804Y19298D01*
X131202Y18702D01*
X136202Y13702D01*
X136798Y13304D01*
X136708Y12812D01*
X70792D01*
X70702Y13304D01*
X71298Y13702D01*
X80572Y22976D01*
X81045Y22742D01*
X81013Y22500D01*
X81149Y21468D01*
X81547Y20507D01*
X81720Y20281D01*
X82535Y21096D01*
X83596Y20035D01*
X82781Y19220D01*
X83007Y19047D01*
X83968Y18649D01*
X85000Y18513D01*
X86032Y18649D01*
X86993Y19047D01*
X87219Y19220D01*
X86404Y20035D01*
X87465Y21096D01*
X88280Y20281D01*
X88453Y20507D01*
X88851Y21468D01*
X88987Y22500D01*
X88851Y23532D01*
X88453Y24493D01*
X87938Y25165D01*
X88144Y25665D01*
X91856D01*
X92062Y25165D01*
X91547Y24493D01*
X91149Y23532D01*
X91013Y22500D01*
X91149Y21468D01*
X91547Y20507D01*
X91720Y20281D01*
X92535Y21096D01*
X93596Y20035D01*
X92781Y19220D01*
X93007Y19047D01*
X93968Y18649D01*
X95000Y18513D01*
X96032Y18649D01*
X96993Y19047D01*
X97219Y19220D01*
X96404Y20035D01*
X97465Y21096D01*
X98280Y20281D01*
X98453Y20507D01*
X98851Y21468D01*
X98987Y22500D01*
X98851Y23532D01*
X98453Y24493D01*
X97938Y25165D01*
X98144Y25665D01*
X100000D01*
X100702Y25804D01*
X101298Y26202D01*
X103061Y27965D01*
X103439Y28329D01*
X103440Y28330D01*
X103617Y28453D01*
X103796Y28556D01*
X103978Y28643D01*
X104163Y28713D01*
X104353Y28767D01*
X104549Y28805D01*
X104752Y28827D01*
X104885Y28831D01*
X105000Y28816D01*
X105954Y28941D01*
X106842Y29309D01*
X107389Y29729D01*
X108694Y29777D01*
X112076D01*
X112180Y29776D01*
X112573Y29758D01*
X113158Y29309D01*
X114046Y28941D01*
X115000Y28816D01*
X115954Y28941D01*
X116842Y29309D01*
X117605Y29895D01*
X118191Y30658D01*
X118559Y31546D01*
X118684Y32500D01*
X118559Y33454D01*
X118191Y34342D01*
X117605Y35105D01*
X116842Y35691D01*
X115954Y36059D01*
X115000Y36184D01*
X114046Y36059D01*
X113158Y35691D01*
X112611Y35271D01*
X111306Y35223D01*
X107924D01*
X107820Y35224D01*
X107427Y35242D01*
X106842Y35691D01*
X105954Y36059D01*
X105000Y36184D01*
X104046Y36059D01*
X103158Y35691D01*
X102395Y35105D01*
X101809Y34342D01*
X101441Y33454D01*
X101316Y32500D01*
X101331Y32385D01*
X101327Y32252D01*
X101305Y32049D01*
X101267Y31853D01*
X101213Y31663D01*
X101143Y31478D01*
X101057Y31296D01*
X100953Y31118D01*
X100421Y30516D01*
X99240Y29335D01*
X97654D01*
X97493Y29809D01*
X97605Y29895D01*
X98191Y30658D01*
X98559Y31546D01*
X98684Y32500D01*
X98669Y32615D01*
X98673Y32748D01*
X98695Y32951D01*
X98733Y33147D01*
X98787Y33337D01*
X98857Y33522D01*
X98944Y33704D01*
X99047Y33882D01*
X99579Y34484D01*
X103260Y38165D01*
X129240D01*
X130665Y36740D01*
D02*
G37*
G36*
X51967Y31322D02*
X52033Y31135D01*
X52144Y30970D01*
X52298Y30827D01*
X52498Y30706D01*
X52741Y30607D01*
X53028Y30530D01*
X53360Y30475D01*
X53736Y30442D01*
X54157Y30431D01*
Y28231D01*
X53736Y28220D01*
X53360Y28187D01*
X53028Y28132D01*
X52741Y28055D01*
X52498Y27956D01*
X52298Y27835D01*
X52144Y27692D01*
X52033Y27527D01*
X51967Y27340D01*
X51945Y27131D01*
Y31531D01*
X51967Y31322D01*
D02*
G37*
G36*
X46301Y25032D02*
X46331Y24690D01*
X46381Y24389D01*
X46451Y24127D01*
X46541Y23906D01*
X46651Y23725D01*
X46781Y23584D01*
X46931Y23483D01*
X47101Y23422D01*
X47291Y23401D01*
X44303Y23413D01*
X44301Y23433D01*
X44299Y23493D01*
X44291Y25413D01*
X46291D01*
X46301Y25032D01*
D02*
G37*
G36*
X67303Y24383D02*
X67508Y24219D01*
X67723Y24074D01*
X67948Y23948D01*
X68183Y23842D01*
X68429Y23755D01*
X68684Y23687D01*
X68950Y23639D01*
X69226Y23610D01*
X69512Y23600D01*
Y21400D01*
X69226Y21390D01*
X68950Y21361D01*
X68684Y21313D01*
X68429Y21245D01*
X68183Y21158D01*
X67948Y21052D01*
X67723Y20926D01*
X67508Y20781D01*
X67303Y20617D01*
X67109Y20433D01*
Y24567D01*
X67303Y24383D01*
D02*
G37*
%LPC*%
G36*
X186567Y122651D02*
X186558Y122649D01*
X185855D01*
Y122015D01*
X185853Y122013D01*
X185757Y121968D01*
X185595Y121917D01*
X185382Y121873D01*
X184887Y121825D01*
X178508D01*
X178311Y121957D01*
X177500Y122119D01*
X176689Y121957D01*
X176492Y121825D01*
X170046D01*
X169911Y121835D01*
X169629Y121871D01*
X169405Y121917D01*
X169243Y121968D01*
X169147Y122013D01*
X169145Y122015D01*
Y122649D01*
X168441D01*
X168433Y122651D01*
X168424Y122649D01*
X161052D01*
Y117312D01*
X168424D01*
X168433Y117310D01*
X168441Y117312D01*
X169145D01*
Y117957D01*
X169153Y117964D01*
X169248Y118009D01*
X169409Y118061D01*
X169620Y118106D01*
X170119Y118155D01*
X176521D01*
X176689Y118043D01*
X177500Y117881D01*
X178311Y118043D01*
X178479Y118155D01*
X184946D01*
X185088Y118145D01*
X185369Y118108D01*
X185591Y118061D01*
X185752Y118009D01*
X185847Y117964D01*
X185855Y117957D01*
Y117312D01*
X186558D01*
X186567Y117310D01*
X186576Y117312D01*
X193948D01*
Y122649D01*
X186576D01*
X186567Y122651D01*
D02*
G37*
G36*
X149067D02*
X149058Y122649D01*
X148355D01*
Y122015D01*
X148353Y122013D01*
X148257Y121968D01*
X148095Y121917D01*
X147882Y121873D01*
X147387Y121825D01*
X141008D01*
X140811Y121957D01*
X140000Y122119D01*
X139189Y121957D01*
X138992Y121825D01*
X132546D01*
X132411Y121835D01*
X132129Y121871D01*
X131905Y121917D01*
X131743Y121968D01*
X131647Y122013D01*
X131645Y122015D01*
Y122649D01*
X130941D01*
X130933Y122651D01*
X130924Y122649D01*
X123552D01*
Y117312D01*
X130924D01*
X130933Y117310D01*
X130941Y117312D01*
X131645D01*
Y117957D01*
X131653Y117964D01*
X131748Y118009D01*
X131909Y118061D01*
X132120Y118106D01*
X132619Y118155D01*
X139021D01*
X139189Y118043D01*
X140000Y117881D01*
X140811Y118043D01*
X140979Y118155D01*
X147446D01*
X147588Y118145D01*
X147869Y118108D01*
X148091Y118061D01*
X148252Y118009D01*
X148347Y117964D01*
X148355Y117957D01*
Y117312D01*
X149058D01*
X149067Y117310D01*
X149076Y117312D01*
X156448D01*
Y122649D01*
X149076D01*
X149067Y122651D01*
D02*
G37*
G36*
X69400Y120559D02*
X68632D01*
X68309Y120494D01*
X68035Y120311D01*
X67852Y120038D01*
X67788Y119715D01*
Y116585D01*
X67852Y116262D01*
X68035Y115988D01*
X68309Y115805D01*
X68632Y115741D01*
X69400D01*
X69723Y115805D01*
X69997Y115988D01*
X70179Y116262D01*
X70244Y116585D01*
Y119715D01*
X70179Y120038D01*
X69997Y120311D01*
X69723Y120494D01*
X69400Y120559D01*
D02*
G37*
G36*
X202500Y121184D02*
X201546Y121059D01*
X200658Y120691D01*
X199895Y120105D01*
X199824Y120013D01*
X199728Y119922D01*
X199568Y119794D01*
X199403Y119682D01*
X199230Y119586D01*
X199050Y119504D01*
X198860Y119437D01*
X198660Y119384D01*
X198449Y119346D01*
X198350Y119335D01*
X197500D01*
X196798Y119196D01*
X196202Y118798D01*
X191740Y114335D01*
X161260D01*
X160557Y114196D01*
X159962Y113798D01*
X154810Y108645D01*
X154396Y108261D01*
X154045Y107980D01*
X153733Y107761D01*
X153605Y107688D01*
X149076D01*
X149067Y107690D01*
X149058Y107688D01*
X148355D01*
Y107048D01*
X148350Y107045D01*
X148254Y106999D01*
X148093Y106948D01*
X147881Y106903D01*
X147384Y106855D01*
X132550D01*
X132411Y106865D01*
X132130Y106901D01*
X131907Y106948D01*
X131746Y106999D01*
X131650Y107045D01*
X131645Y107048D01*
Y107688D01*
X130941D01*
X130933Y107690D01*
X130924Y107688D01*
X123552D01*
Y102351D01*
X130924D01*
X130933Y102349D01*
X130941Y102351D01*
X131645D01*
Y102991D01*
X131650Y102995D01*
X131746Y103040D01*
X131907Y103092D01*
X132119Y103136D01*
X132616Y103184D01*
X138165D01*
Y98577D01*
X138160Y98568D01*
X137665Y98206D01*
X137600Y98219D01*
X135600D01*
X135229Y98145D01*
X134915Y97935D01*
X134705Y97621D01*
X134631Y97250D01*
Y97150D01*
X134623Y97127D01*
X134609Y97106D01*
X134569Y97069D01*
X134480Y97015D01*
X134330Y96954D01*
X134119Y96897D01*
X133864Y96855D01*
X133651Y96884D01*
X133430Y96932D01*
X133272Y96985D01*
X133178Y97032D01*
X133162Y97044D01*
X133161Y97055D01*
Y97708D01*
X132457D01*
X132449Y97710D01*
X132440Y97708D01*
X128060D01*
Y92292D01*
X132440D01*
X132449Y92290D01*
X132457Y92292D01*
X133161D01*
Y92945D01*
X133162Y92956D01*
X133178Y92968D01*
X133272Y93015D01*
X133430Y93068D01*
X133640Y93113D01*
X133896Y93140D01*
X134119Y93103D01*
X134330Y93046D01*
X134479Y92985D01*
X134569Y92931D01*
X134609Y92894D01*
X134623Y92873D01*
X134631Y92850D01*
Y92750D01*
X134705Y92379D01*
X134915Y92065D01*
X135229Y91855D01*
X135600Y91781D01*
X137600D01*
X137971Y91855D01*
X138037Y91840D01*
X138447Y91560D01*
X138450Y91420D01*
X138450Y91420D01*
X138043Y90811D01*
X137881Y90000D01*
X138043Y89189D01*
X138165Y89006D01*
Y88081D01*
X138148Y87701D01*
X138146Y87681D01*
X138105Y87621D01*
X138031Y87250D01*
Y82750D01*
X138105Y82379D01*
X138315Y82065D01*
X138629Y81855D01*
X139000Y81781D01*
X140594D01*
X140857Y81281D01*
X140543Y80811D01*
X140381Y80000D01*
X140543Y79189D01*
X141002Y78502D01*
X141442Y78208D01*
X141290Y77708D01*
X140560D01*
Y72292D01*
X142918D01*
Y70714D01*
X140000D01*
X139727Y70659D01*
X139495Y70505D01*
X139341Y70273D01*
X139286Y70000D01*
Y64613D01*
X136999Y62326D01*
X136544Y62675D01*
X135799Y62983D01*
X135634Y63005D01*
X134743Y63896D01*
Y80743D01*
X134572Y81601D01*
X134086Y82329D01*
X129829Y86586D01*
X129101Y87072D01*
X128243Y87243D01*
X102500D01*
X101642Y87072D01*
X100914Y86586D01*
X100041Y85714D01*
X95000D01*
X94727Y85659D01*
X94495Y85505D01*
X94341Y85273D01*
X94286Y85000D01*
Y75000D01*
X94341Y74727D01*
X94495Y74495D01*
X94727Y74341D01*
X95000Y74286D01*
X102500D01*
X102773Y74341D01*
X103005Y74495D01*
X103159Y74727D01*
X103214Y75000D01*
Y82542D01*
X103429Y82757D01*
X127313D01*
X129401Y80670D01*
X129209Y80208D01*
X125560D01*
Y75513D01*
X125558Y75504D01*
X125560Y75496D01*
Y74792D01*
X126121D01*
X126149Y74723D01*
X126195Y74554D01*
X126235Y74333D01*
X126275Y73861D01*
Y73631D01*
X126268Y73457D01*
X126237Y73177D01*
X126195Y72946D01*
X126149Y72777D01*
X126121Y72708D01*
X125560D01*
Y72004D01*
X125558Y71996D01*
X125560Y71987D01*
Y68013D01*
X125558Y68004D01*
X125560Y67996D01*
Y67292D01*
X126035D01*
X126047Y67258D01*
X126088Y67079D01*
X126123Y66848D01*
X126153Y66417D01*
Y65975D01*
X126135Y65633D01*
X126107Y65389D01*
X126076Y65208D01*
X125713D01*
Y64504D01*
X125712Y64496D01*
X125713Y64487D01*
Y59792D01*
X127430D01*
X127433Y59774D01*
X127438Y59717D01*
Y56958D01*
X127414Y56836D01*
Y56038D01*
X127478Y55713D01*
X127662Y55438D01*
X127938Y55254D01*
X128263Y55189D01*
X131186D01*
X131511Y55254D01*
X131787Y55438D01*
X131971Y55713D01*
X132035Y56038D01*
Y56836D01*
X131971Y57161D01*
X131787Y57436D01*
X131511Y57620D01*
X131186Y57685D01*
X129891D01*
X129890Y57688D01*
X129885Y57748D01*
Y59755D01*
X129887Y59792D01*
X130263D01*
Y60496D01*
X130265Y60504D01*
X130263Y60513D01*
Y61455D01*
X130763Y61606D01*
X130914Y61380D01*
X131936Y60359D01*
X131956Y60336D01*
X131911Y60000D01*
X132017Y59201D01*
X132325Y58456D01*
X132816Y57816D01*
X133456Y57325D01*
X134077Y57068D01*
X134286Y56858D01*
Y53724D01*
X131308D01*
X131186Y53748D01*
X128263D01*
X128091Y53714D01*
X128062D01*
X127789Y53659D01*
X127558Y53505D01*
X127403Y53273D01*
X127348Y53000D01*
Y50000D01*
X127403Y49727D01*
X127558Y49495D01*
X127571Y49426D01*
X127478Y49287D01*
X127414Y48962D01*
Y48164D01*
X127478Y47839D01*
X127662Y47564D01*
X127822Y47458D01*
Y44633D01*
X127876Y44360D01*
X128031Y44128D01*
X128262Y43973D01*
X128535Y43919D01*
X129651D01*
X129725Y43870D01*
X130193Y43777D01*
X134268D01*
X134327Y43771D01*
X134339Y43769D01*
Y42292D01*
X135659D01*
X135661Y42279D01*
X135666Y42220D01*
Y33008D01*
X135759Y32539D01*
X136025Y32142D01*
X141532Y26635D01*
X141929Y26370D01*
X142397Y26276D01*
X143266D01*
X143365Y25776D01*
X143158Y25691D01*
X142395Y25105D01*
X141809Y24342D01*
X141441Y23454D01*
X141316Y22500D01*
X141441Y21546D01*
X141809Y20658D01*
X142395Y19895D01*
X143158Y19309D01*
X144046Y18941D01*
X145000Y18816D01*
X145954Y18941D01*
X146842Y19309D01*
X147605Y19895D01*
X147676Y19987D01*
X147772Y20078D01*
X147932Y20206D01*
X148097Y20318D01*
X148270Y20414D01*
X148450Y20496D01*
X148640Y20563D01*
X148840Y20616D01*
X149051Y20654D01*
X149150Y20665D01*
X151152D01*
X151349Y20647D01*
X151620Y20603D01*
X151830Y20546D01*
X151979Y20485D01*
X152069Y20431D01*
X152109Y20394D01*
X152123Y20373D01*
X152131Y20350D01*
Y20250D01*
X152205Y19879D01*
X152415Y19565D01*
X152729Y19355D01*
X153100Y19281D01*
X155100D01*
X155471Y19355D01*
X155800Y19556D01*
X156129Y19355D01*
X156500Y19281D01*
X158500D01*
X158871Y19355D01*
X159200Y19556D01*
X159529Y19355D01*
X159900Y19281D01*
X161900D01*
X162271Y19355D01*
X162585Y19565D01*
X162795Y19879D01*
X162869Y20250D01*
Y24750D01*
X162795Y25121D01*
X162789Y25129D01*
X162735Y26593D01*
Y29419D01*
X162752Y29798D01*
X162754Y29819D01*
X162795Y29879D01*
X162869Y30250D01*
Y32829D01*
X163004Y33066D01*
X163210Y33364D01*
X163745Y34000D01*
X167694Y37949D01*
X168092Y38544D01*
X168232Y39246D01*
Y42344D01*
X168460Y42686D01*
X168622Y43497D01*
X168460Y44308D01*
X168001Y44995D01*
X167314Y45454D01*
X166503Y45616D01*
X165692Y45454D01*
X165005Y44995D01*
X164546Y44308D01*
X164384Y43497D01*
X164546Y42686D01*
X164561Y42663D01*
Y40007D01*
X161072Y36518D01*
X160609Y36130D01*
X160411Y35985D01*
X160234Y35871D01*
X160087Y35791D01*
X159978Y35745D01*
X159914Y35727D01*
X159826Y35717D01*
X159782Y35704D01*
X159736Y35702D01*
X159673Y35673D01*
X159529Y35645D01*
X159200Y35444D01*
X158871Y35645D01*
X158583Y35702D01*
X158579Y35726D01*
X158573Y35787D01*
Y36211D01*
X158480Y36680D01*
X158215Y37076D01*
X156926Y38365D01*
X156529Y38630D01*
X156061Y38723D01*
X149295D01*
X148723Y39296D01*
Y50413D01*
X148996Y50564D01*
X149298Y50379D01*
X149339Y50330D01*
Y48013D01*
X149338Y48004D01*
X149339Y47995D01*
Y47292D01*
X149900D01*
X149928Y47223D01*
X149975Y47054D01*
X150015Y46833D01*
X150055Y46361D01*
Y46131D01*
X150048Y45957D01*
X150017Y45677D01*
X149975Y45446D01*
X149928Y45277D01*
X149900Y45208D01*
X149339D01*
Y44504D01*
X149338Y44496D01*
X149339Y44487D01*
Y39792D01*
X154440D01*
Y44487D01*
X154442Y44496D01*
X154440Y44504D01*
Y45208D01*
X153879D01*
X153851Y45277D01*
X153805Y45446D01*
X153765Y45667D01*
X153725Y46139D01*
Y46369D01*
X153732Y46543D01*
X153763Y46823D01*
X153805Y47054D01*
X153851Y47223D01*
X153879Y47292D01*
X154440D01*
Y47995D01*
X154442Y48004D01*
X154440Y48013D01*
Y51987D01*
X154442Y51996D01*
X154440Y52004D01*
Y52708D01*
X153965D01*
X153953Y52742D01*
X153912Y52921D01*
X153877Y53152D01*
X153847Y53583D01*
Y54025D01*
X153865Y54367D01*
X153893Y54611D01*
X153924Y54792D01*
X154287D01*
Y55496D01*
X154288Y55504D01*
X154287Y55513D01*
Y60208D01*
X152592D01*
X152589Y60226D01*
X152584Y60283D01*
Y63151D01*
X152586Y63164D01*
Y63962D01*
X152522Y64287D01*
X152338Y64562D01*
X152062Y64746D01*
X151737Y64811D01*
X148814D01*
X148489Y64746D01*
X148214Y64562D01*
X148029Y64287D01*
X147965Y63962D01*
Y63164D01*
X148029Y62839D01*
X148214Y62564D01*
X148489Y62380D01*
X148814Y62315D01*
X150131D01*
X150132Y62312D01*
X150137Y62252D01*
Y60253D01*
X150134Y60210D01*
X150133Y60208D01*
X149737D01*
Y59504D01*
X149735Y59496D01*
X149737Y59487D01*
Y55513D01*
X149735Y55504D01*
X149737Y55496D01*
Y54792D01*
X150100D01*
X150128Y54626D01*
X150177Y53939D01*
Y53615D01*
X150167Y53474D01*
X150138Y53250D01*
X150022Y53131D01*
X149981Y53107D01*
X149457Y53311D01*
X148998Y53998D01*
X148311Y54457D01*
X147500Y54619D01*
X146689Y54457D01*
X146002Y53998D01*
X145543Y53311D01*
X145381Y52500D01*
X145543Y51689D01*
X146002Y51002D01*
X146098Y50937D01*
X146130Y50898D01*
X146167Y50845D01*
X146197Y50790D01*
X146223Y50734D01*
X146245Y50675D01*
X146262Y50612D01*
X146275Y50544D01*
X146276Y50530D01*
Y38789D01*
X146370Y38320D01*
X146635Y37924D01*
X147906Y36653D01*
X147902Y36576D01*
X147745Y36153D01*
X141347D01*
Y30934D01*
X140885Y30742D01*
X138113Y33514D01*
Y42220D01*
X138118Y42279D01*
X138120Y42292D01*
X139440D01*
Y47708D01*
X136986D01*
Y49014D01*
X137210Y49286D01*
X140000D01*
X140273Y49341D01*
X140505Y49495D01*
X140659Y49727D01*
X140714Y50000D01*
Y54704D01*
X145505Y59495D01*
X145659Y59727D01*
X145714Y60000D01*
Y66277D01*
X148692D01*
X148814Y66252D01*
X151737D01*
X151909Y66286D01*
X151938D01*
X152211Y66341D01*
X152443Y66495D01*
X152597Y66727D01*
X152652Y67000D01*
Y70000D01*
X152597Y70273D01*
X152443Y70505D01*
X152429Y70574D01*
X152522Y70713D01*
X152586Y71038D01*
Y71836D01*
X152522Y72161D01*
X152338Y72436D01*
X152214Y72519D01*
Y75500D01*
X152159Y75773D01*
X152005Y76005D01*
X151773Y76159D01*
X151500Y76214D01*
X149739D01*
X149690Y76223D01*
X145732D01*
X145673Y76229D01*
X145661Y76231D01*
Y77708D01*
X143710D01*
X143558Y78208D01*
X143998Y78502D01*
X144457Y79189D01*
X144538Y79593D01*
X144548Y79603D01*
X144946Y80198D01*
X145085Y80900D01*
Y81684D01*
X145116Y82010D01*
X145133Y82110D01*
X145141Y82144D01*
X145201Y82212D01*
X145216Y82256D01*
X145241Y82295D01*
X145243Y82301D01*
X145295Y82379D01*
X145369Y82750D01*
Y82850D01*
X145377Y82873D01*
X145391Y82894D01*
X145431Y82931D01*
X145520Y82985D01*
X145670Y83046D01*
X145880Y83103D01*
X146151Y83147D01*
X146348Y83165D01*
X153711D01*
X154414Y83304D01*
X155009Y83702D01*
X156908Y85601D01*
X157306Y86197D01*
X157446Y86899D01*
Y91369D01*
X157452Y91543D01*
X157483Y91823D01*
X157525Y92054D01*
X157572Y92223D01*
X157600Y92292D01*
X158161D01*
Y92996D01*
X158162Y93004D01*
X158161Y93013D01*
Y97708D01*
X153060D01*
Y93013D01*
X153058Y93004D01*
X153060Y92996D01*
Y92292D01*
X153621D01*
X153649Y92223D01*
X153695Y92054D01*
X153735Y91833D01*
X153775Y91361D01*
Y87659D01*
X152951Y86835D01*
X146348D01*
X146151Y86853D01*
X145880Y86897D01*
X145670Y86954D01*
X145520Y87015D01*
X145431Y87069D01*
X145391Y87106D01*
X145377Y87127D01*
X145369Y87150D01*
Y87250D01*
X145295Y87621D01*
X145291Y87626D01*
X145263Y88780D01*
Y88965D01*
X145413Y89189D01*
X145575Y90000D01*
X145413Y90811D01*
X145000Y91430D01*
X144976Y91629D01*
X145045Y92039D01*
X145085Y92065D01*
X145295Y92379D01*
X145369Y92750D01*
Y92850D01*
X145377Y92873D01*
X145391Y92894D01*
X145431Y92931D01*
X145520Y92985D01*
X145670Y93046D01*
X145880Y93103D01*
X146136Y93145D01*
X146349Y93116D01*
X146570Y93068D01*
X146728Y93015D01*
X146822Y92968D01*
X146838Y92956D01*
X146839Y92945D01*
Y92292D01*
X147543D01*
X147551Y92290D01*
X147560Y92292D01*
X151940D01*
Y97708D01*
X147560D01*
X147551Y97710D01*
X147543Y97708D01*
X146839D01*
Y97055D01*
X146838Y97044D01*
X146822Y97032D01*
X146728Y96985D01*
X146570Y96932D01*
X146360Y96886D01*
X146104Y96860D01*
X145880Y96897D01*
X145670Y96954D01*
X145520Y97015D01*
X145431Y97069D01*
X145391Y97106D01*
X145377Y97127D01*
X145369Y97150D01*
Y97250D01*
X145295Y97621D01*
X145085Y97935D01*
X144771Y98145D01*
X144400Y98219D01*
X142400D01*
X142368Y98212D01*
X141854Y98583D01*
X141835Y99093D01*
Y103184D01*
X147450D01*
X147589Y103175D01*
X147870Y103138D01*
X148093Y103092D01*
X148254Y103040D01*
X148350Y102995D01*
X148355Y102991D01*
Y102351D01*
X149058D01*
X149067Y102349D01*
X149076Y102351D01*
X156448D01*
Y104846D01*
X156521Y104973D01*
X156734Y105278D01*
X157297Y105941D01*
X162020Y110665D01*
X192500D01*
X193202Y110804D01*
X193798Y111202D01*
X198260Y115665D01*
X198350D01*
X198449Y115654D01*
X198660Y115616D01*
X198860Y115563D01*
X199050Y115496D01*
X199230Y115414D01*
X199403Y115318D01*
X199568Y115206D01*
X199728Y115078D01*
X199824Y114987D01*
X199895Y114895D01*
X200658Y114309D01*
X201546Y113941D01*
X202500Y113816D01*
X203454Y113941D01*
X204342Y114309D01*
X205105Y114895D01*
X205691Y115658D01*
X206059Y116546D01*
X206184Y117500D01*
X206059Y118454D01*
X205691Y119342D01*
X205105Y120105D01*
X204342Y120691D01*
X203454Y121059D01*
X202500Y121184D01*
D02*
G37*
G36*
X80500Y128422D02*
X70713D01*
X70440Y128367D01*
X70209Y128212D01*
X70054Y127981D01*
X70000Y127708D01*
Y122292D01*
X70054Y122019D01*
X70209Y121788D01*
X70440Y121633D01*
X70713Y121578D01*
X71729D01*
Y119737D01*
X71725Y119715D01*
Y116585D01*
X71789Y116262D01*
X71972Y115988D01*
X72246Y115805D01*
X72569Y115741D01*
X73337D01*
X73660Y115805D01*
X73662Y115806D01*
X73667Y115807D01*
X73737D01*
X73802Y115834D01*
X73871Y115848D01*
X73929Y115887D01*
X73994Y115914D01*
X74040Y115944D01*
X74155Y115967D01*
X77144D01*
X77259Y115944D01*
X77315Y115907D01*
X77381Y115880D01*
X77439Y115841D01*
X77508Y115827D01*
X77533Y115816D01*
X77558Y115751D01*
X77572Y115684D01*
X77571Y115301D01*
X77526Y115256D01*
X77467Y115217D01*
X77428Y115158D01*
X77379Y115109D01*
X77297Y114987D01*
X77259Y114961D01*
X77144Y114938D01*
X74085D01*
X73982Y114918D01*
X73878Y114908D01*
X73846Y114891D01*
X73812Y114884D01*
X73724Y114826D01*
X73632Y114776D01*
X73554Y114713D01*
X73532Y114685D01*
X73502Y114666D01*
X73444Y114578D01*
X73378Y114497D01*
X73367Y114464D01*
X73348Y114434D01*
X73327Y114331D01*
X73297Y114231D01*
X73300Y114196D01*
X73293Y114161D01*
Y114134D01*
X73241Y113868D01*
Y113100D01*
X73293Y112835D01*
Y112165D01*
X73241Y111900D01*
Y111132D01*
X73293Y110866D01*
Y110839D01*
X73300Y110804D01*
X73297Y110769D01*
X73327Y110669D01*
X73348Y110566D01*
X73367Y110536D01*
X73378Y110503D01*
X73429Y110440D01*
X73305Y110254D01*
X73241Y109931D01*
Y109259D01*
X72569D01*
X72246Y109195D01*
X71972Y109012D01*
X71789Y108738D01*
X71725Y108415D01*
Y105285D01*
X71729Y105263D01*
Y101437D01*
X71822Y100969D01*
X71839Y100943D01*
Y97292D01*
X76940D01*
Y102708D01*
X74184D01*
X74181Y102726D01*
X74176Y102783D01*
Y105263D01*
X74181Y105285D01*
Y108319D01*
X77215D01*
X77237Y108324D01*
X82446D01*
X84576Y106193D01*
Y103291D01*
X84571Y103233D01*
X84561Y103171D01*
X84429Y103145D01*
X84115Y102935D01*
X83905Y102621D01*
X83831Y102250D01*
Y97750D01*
X83905Y97379D01*
X84115Y97066D01*
Y96634D01*
X84254Y95932D01*
X84652Y95336D01*
X85941Y94047D01*
X86536Y93650D01*
X87239Y93510D01*
X96373D01*
X96465Y93404D01*
X96602Y93221D01*
X96715Y93049D01*
X96802Y92895D01*
X96863Y92763D01*
X96900Y92655D01*
X96918Y92573D01*
X96919Y92557D01*
X96911Y92500D01*
X97017Y91701D01*
X97325Y90956D01*
X97816Y90316D01*
X98456Y89825D01*
X99201Y89517D01*
X100000Y89411D01*
X100799Y89517D01*
X101544Y89825D01*
X102184Y90316D01*
X102675Y90956D01*
X102983Y91701D01*
X103089Y92500D01*
X102983Y93299D01*
X102675Y94044D01*
X102184Y94684D01*
X101544Y95175D01*
X100799Y95483D01*
X100000Y95589D01*
X99943Y95581D01*
X99927Y95582D01*
X99845Y95600D01*
X99737Y95637D01*
X99605Y95698D01*
X99451Y95785D01*
X99279Y95898D01*
X99096Y96035D01*
X98833Y96262D01*
X98453Y96643D01*
X97857Y97041D01*
X97376Y97136D01*
X96940Y97292D01*
Y102708D01*
X92560D01*
X92551Y102710D01*
X92543Y102708D01*
X91839D01*
Y102561D01*
X91347Y102279D01*
X91139Y102400D01*
X91095Y102621D01*
X90885Y102935D01*
X90571Y103145D01*
X90200Y103219D01*
X88200D01*
X87829Y103145D01*
X87500Y102944D01*
X87171Y103145D01*
X87038Y103171D01*
X87028Y103232D01*
X87024Y103290D01*
Y106700D01*
X86930Y107168D01*
X86665Y107565D01*
X85406Y108824D01*
X85597Y109286D01*
X104500D01*
X104744Y109335D01*
X104786Y109335D01*
X105244Y109142D01*
X105324Y109142D01*
X108187D01*
Y110262D01*
X109687D01*
Y109142D01*
X112630D01*
Y112085D01*
X111510D01*
Y113585D01*
X112630D01*
Y116528D01*
X109687D01*
Y115408D01*
X108187D01*
Y116528D01*
X105244D01*
Y116446D01*
X104782Y116165D01*
X104744Y116165D01*
X104500Y116214D01*
X101391D01*
X101063Y116257D01*
X100735Y116214D01*
X90263D01*
Y119487D01*
X90265Y119496D01*
X90263Y119504D01*
Y120208D01*
X89608D01*
X89564Y120213D01*
X89542Y120242D01*
X89493Y120333D01*
X89438Y120488D01*
X89388Y120706D01*
X89348Y120982D01*
X89335Y121147D01*
Y121180D01*
X89343Y121354D01*
X89376Y121635D01*
X89424Y121904D01*
X89483Y122155D01*
X89555Y122386D01*
X89637Y122599D01*
X89730Y122794D01*
X89833Y122972D01*
X89964Y123159D01*
X89985Y123209D01*
X90175Y123456D01*
X90483Y124201D01*
X90589Y125000D01*
X90483Y125799D01*
X90175Y126544D01*
X89684Y127184D01*
X89044Y127675D01*
X88299Y127983D01*
X87500Y128089D01*
X86701Y127983D01*
X85956Y127675D01*
X85316Y127184D01*
X84825Y126544D01*
X84517Y125799D01*
X84411Y125000D01*
X84517Y124201D01*
X84825Y123456D01*
X85015Y123209D01*
X85036Y123159D01*
X85167Y122972D01*
X85270Y122794D01*
X85363Y122599D01*
X85445Y122386D01*
X85517Y122155D01*
X85576Y121904D01*
X85622Y121644D01*
X85665Y121184D01*
Y118421D01*
X85713Y118177D01*
Y115723D01*
X85417Y115426D01*
X80290D01*
X80138Y115926D01*
X80242Y115995D01*
X80396Y116227D01*
X80451Y116500D01*
Y119494D01*
X80500D01*
X80773Y119548D01*
X81005Y119703D01*
X81159Y119935D01*
X81214Y120208D01*
Y127708D01*
X81159Y127981D01*
X81005Y128212D01*
X80773Y128367D01*
X80500Y128422D01*
D02*
G37*
G36*
X60678Y119619D02*
X59867Y119457D01*
X59180Y118998D01*
X58721Y118311D01*
X58559Y117500D01*
X58721Y116689D01*
X59180Y116002D01*
X59324Y115906D01*
X59331Y115883D01*
X59343Y115832D01*
X59353Y115771D01*
X59362Y115656D01*
Y115453D01*
X59410Y115214D01*
X59081Y114714D01*
X52000D01*
X51727Y114659D01*
X51495Y114505D01*
X51341Y114273D01*
X51286Y114000D01*
Y110536D01*
X51180Y110000D01*
X51286Y109465D01*
Y108683D01*
X51138Y108214D01*
X35714D01*
Y115000D01*
X35659Y115273D01*
X35505Y115505D01*
X35273Y115659D01*
X35000Y115714D01*
X31898D01*
X31696Y115953D01*
X31624Y116190D01*
X31957Y116689D01*
X32119Y117500D01*
X31957Y118311D01*
X31498Y118998D01*
X30811Y119457D01*
X30000Y119619D01*
X29189Y119457D01*
X28502Y118998D01*
X28043Y118311D01*
X27933Y117760D01*
X27773Y117520D01*
X27750Y117404D01*
X27245Y117430D01*
X27227Y117520D01*
X27067Y117760D01*
X26957Y118311D01*
X26498Y118998D01*
X25811Y119457D01*
X25000Y119619D01*
X24189Y119457D01*
X23502Y118998D01*
X23043Y118311D01*
X22881Y117500D01*
X23043Y116689D01*
X23388Y116173D01*
X23247Y115867D01*
X23102Y115714D01*
X20000D01*
X19727Y115659D01*
X19495Y115505D01*
X19341Y115273D01*
X19286Y115000D01*
Y103000D01*
X19341Y102727D01*
X19495Y102495D01*
X19727Y102341D01*
X20000Y102286D01*
X28060D01*
Y98013D01*
X28058Y98004D01*
X28060Y97996D01*
Y97973D01*
X28059Y97968D01*
X28060Y97965D01*
Y97292D01*
X28122D01*
X28165Y96549D01*
Y95994D01*
X28043Y95811D01*
X27881Y95000D01*
X28043Y94189D01*
X28103Y94098D01*
X27868Y93657D01*
X26438D01*
X23424Y96672D01*
X22828Y97070D01*
X22126Y97209D01*
X15994D01*
X15811Y97331D01*
X15000Y97493D01*
X14189Y97331D01*
X14006Y97209D01*
X13468D01*
X13443Y97211D01*
X13254Y97240D01*
X13081Y97278D01*
X12925Y97325D01*
X12785Y97380D01*
X12658Y97443D01*
X12544Y97513D01*
X12442Y97591D01*
X12390Y97639D01*
X12336Y97710D01*
X11652Y98235D01*
X10855Y98564D01*
X10000Y98677D01*
X9145Y98564D01*
X8348Y98235D01*
X7664Y97710D01*
X7140Y97026D01*
X6809Y96229D01*
X6697Y95374D01*
X6809Y94519D01*
X7140Y93722D01*
X7664Y93038D01*
X8348Y92514D01*
X9145Y92184D01*
X10000Y92071D01*
X10855Y92184D01*
X11652Y92514D01*
X12336Y93038D01*
X12390Y93109D01*
X12442Y93158D01*
X12545Y93235D01*
X12658Y93305D01*
X12784Y93368D01*
X12925Y93423D01*
X13081Y93470D01*
X13254Y93508D01*
X13443Y93537D01*
X13468Y93539D01*
X14006D01*
X14189Y93417D01*
X15000Y93255D01*
X15811Y93417D01*
X15994Y93539D01*
X21366D01*
X24380Y90524D01*
X24472Y90463D01*
X24411Y90000D01*
X24517Y89201D01*
X24825Y88456D01*
X25316Y87816D01*
X25956Y87325D01*
X26701Y87017D01*
X27500Y86911D01*
X28299Y87017D01*
X29044Y87325D01*
X29288Y87512D01*
X29337Y87534D01*
X29524Y87663D01*
X29702Y87766D01*
X29896Y87858D01*
X30109Y87940D01*
X30340Y88011D01*
X30590Y88070D01*
X30851Y88116D01*
X31311Y88158D01*
X35283D01*
X35476Y88029D01*
X36286Y87868D01*
X37097Y88029D01*
X37280Y88152D01*
X44344D01*
Y87699D01*
X44379Y87522D01*
Y84654D01*
X48141D01*
Y89987D01*
X51610D01*
X51824Y89773D01*
Y87699D01*
X51859Y87522D01*
Y84654D01*
X55621D01*
Y90582D01*
X55485D01*
X55355Y91236D01*
X54957Y91831D01*
X53668Y93120D01*
X53073Y93518D01*
X52370Y93657D01*
X41726D01*
X41498Y93998D01*
X40811Y94457D01*
X40000Y94619D01*
X39189Y94457D01*
X38847Y94229D01*
X38844D01*
X38141Y94089D01*
X37590Y93721D01*
X37236Y93770D01*
X37181Y93853D01*
X36969Y94248D01*
X37119Y95000D01*
X36957Y95811D01*
X36835Y95994D01*
Y97292D01*
X39440D01*
Y102286D01*
X53060D01*
Y97292D01*
X58131D01*
X58161Y97286D01*
X60101D01*
X60128Y97126D01*
X60176Y96438D01*
Y96040D01*
X60000Y95589D01*
X59201Y95483D01*
X58456Y95175D01*
X57816Y94684D01*
X57325Y94044D01*
X57017Y93299D01*
X56911Y92500D01*
X57017Y91701D01*
X57325Y90956D01*
X57816Y90316D01*
X58456Y89825D01*
X59201Y89517D01*
X60000Y89411D01*
X60799Y89517D01*
X61544Y89825D01*
X62184Y90316D01*
X62675Y90956D01*
X62983Y91701D01*
X63089Y92500D01*
X62983Y93299D01*
X62974Y93322D01*
X63310Y93657D01*
X63707Y94253D01*
X63847Y94955D01*
Y96525D01*
X63865Y96867D01*
X63893Y97111D01*
X63923Y97286D01*
X64122D01*
X64151Y97292D01*
X64287D01*
Y97319D01*
X64395Y97341D01*
X64626Y97495D01*
X66218Y99087D01*
X66373Y99319D01*
X66427Y99592D01*
Y101994D01*
X67500D01*
X67773Y102049D01*
X68005Y102203D01*
X68159Y102435D01*
X68214Y102708D01*
Y104976D01*
X68275Y105285D01*
Y108415D01*
X68211Y108738D01*
X68028Y109012D01*
X67754Y109195D01*
X67431Y109259D01*
X66760D01*
Y109931D01*
X66695Y110254D01*
X66516Y110523D01*
X66652Y110727D01*
X66657Y110752D01*
X66695Y110809D01*
X66760Y111132D01*
Y111900D01*
X66707Y112165D01*
Y112835D01*
X66760Y113100D01*
Y113868D01*
X66695Y114191D01*
X66657Y114248D01*
X66652Y114273D01*
X66516Y114477D01*
X66695Y114746D01*
X66760Y115069D01*
Y115837D01*
X66695Y116160D01*
X66512Y116434D01*
X66238Y116616D01*
X65915Y116681D01*
X63143D01*
X62734Y117151D01*
X62732Y117176D01*
X62797Y117500D01*
X62635Y118311D01*
X62176Y118998D01*
X61489Y119457D01*
X60678Y119619D01*
D02*
G37*
G36*
X206153Y111153D02*
X198847D01*
Y107170D01*
X198839Y107148D01*
X198825Y107127D01*
X198784Y107089D01*
X198694Y107034D01*
X198545Y106974D01*
X198334Y106917D01*
X198064Y106872D01*
X197867Y106855D01*
X194853D01*
X194714Y106865D01*
X194433Y106901D01*
X194210Y106948D01*
X194049Y106999D01*
X193953Y107045D01*
X193948Y107048D01*
Y107688D01*
X193245D01*
X193236Y107690D01*
X193227Y107688D01*
X186576D01*
X186567Y107690D01*
X186558Y107688D01*
X185855D01*
Y107048D01*
X185850Y107045D01*
X185754Y106999D01*
X185593Y106948D01*
X185381Y106903D01*
X184884Y106855D01*
X177500D01*
X177490Y106853D01*
X177480Y106855D01*
X170050D01*
X169911Y106865D01*
X169630Y106901D01*
X169407Y106948D01*
X169246Y106999D01*
X169150Y107045D01*
X169145Y107048D01*
Y107688D01*
X168441D01*
X168433Y107690D01*
X168424Y107688D01*
X161052D01*
Y102351D01*
X168424D01*
X168433Y102349D01*
X168441Y102351D01*
X169145D01*
Y102991D01*
X169150Y102995D01*
X169246Y103040D01*
X169407Y103092D01*
X169619Y103136D01*
X170116Y103184D01*
X175665D01*
Y98577D01*
X175660Y98568D01*
X175165Y98206D01*
X175100Y98219D01*
X173100D01*
X172729Y98145D01*
X172415Y97935D01*
X172205Y97621D01*
X172131Y97250D01*
Y97150D01*
X172123Y97127D01*
X172109Y97106D01*
X172069Y97069D01*
X171980Y97015D01*
X171830Y96954D01*
X171619Y96897D01*
X171364Y96855D01*
X171151Y96884D01*
X170930Y96932D01*
X170772Y96985D01*
X170678Y97032D01*
X170662Y97044D01*
X170661Y97055D01*
Y97708D01*
X169957D01*
X169949Y97710D01*
X169940Y97708D01*
X165560D01*
Y92292D01*
X169940D01*
X169949Y92290D01*
X169957Y92292D01*
X170661D01*
Y92945D01*
X170662Y92956D01*
X170678Y92968D01*
X170772Y93015D01*
X170930Y93068D01*
X171140Y93113D01*
X171396Y93140D01*
X171619Y93103D01*
X171830Y93046D01*
X171979Y92985D01*
X172069Y92931D01*
X172109Y92894D01*
X172123Y92873D01*
X172131Y92850D01*
Y92750D01*
X172205Y92379D01*
X172415Y92065D01*
X172729Y91855D01*
X173100Y91781D01*
X175100D01*
X175471Y91855D01*
X175537Y91840D01*
X175947Y91560D01*
X175950Y91420D01*
X175950Y91420D01*
X175543Y90811D01*
X175381Y90000D01*
X175543Y89189D01*
X175665Y89006D01*
Y88081D01*
X175648Y87701D01*
X175646Y87681D01*
X175605Y87621D01*
X175531Y87250D01*
Y82750D01*
X175605Y82379D01*
X175815Y82065D01*
X176129Y81855D01*
X176500Y81781D01*
X178500D01*
X178563Y81794D01*
X178935Y81748D01*
X179123Y81434D01*
X179203Y81030D01*
X179601Y80435D01*
X180467Y79569D01*
X180514Y79332D01*
X180461Y79239D01*
X180229Y79004D01*
X180121Y78940D01*
X180000Y78964D01*
X165000D01*
X164727Y78909D01*
X164495Y78755D01*
X164341Y78523D01*
X164286Y78250D01*
Y70692D01*
X162476D01*
X162035Y71038D01*
Y71836D01*
X161971Y72161D01*
X161786Y72436D01*
X161511Y72620D01*
X161186Y72685D01*
X160954D01*
X160953Y72691D01*
X160948Y72750D01*
Y73504D01*
X160855Y73972D01*
X160590Y74369D01*
X160034Y74925D01*
X160025Y74936D01*
X159986Y74993D01*
X159953Y75050D01*
X159927Y75107D01*
X159906Y75165D01*
X159889Y75225D01*
X159877Y75289D01*
X159872Y75339D01*
X159894Y75453D01*
X159733Y76263D01*
X159274Y76951D01*
X158586Y77410D01*
X157776Y77571D01*
X156965Y77410D01*
X156278Y76951D01*
X155818Y76263D01*
X155657Y75453D01*
X155818Y74642D01*
X156278Y73955D01*
X156965Y73495D01*
X157776Y73334D01*
X157880Y73355D01*
X158053Y73241D01*
X158108Y73135D01*
X157938Y72620D01*
X157662Y72436D01*
X157478Y72161D01*
X157414Y71836D01*
Y71038D01*
X157478Y70713D01*
X157652Y70453D01*
X157478Y70192D01*
X157414Y69867D01*
Y69070D01*
X157478Y68745D01*
X157662Y68469D01*
X157938Y68285D01*
X158263Y68221D01*
X161186D01*
X161308Y68245D01*
X164286D01*
Y66755D01*
X161308D01*
X161186Y66779D01*
X158263D01*
X157938Y66715D01*
X157662Y66531D01*
X157478Y66255D01*
X157414Y65930D01*
Y65133D01*
X157478Y64808D01*
X157624Y64590D01*
X157606Y64564D01*
X157505Y64327D01*
X157478Y64287D01*
X157470Y64244D01*
X157406Y64094D01*
X157405Y64090D01*
X157403Y64087D01*
X157376Y63954D01*
X157349Y63822D01*
X157323Y63577D01*
X157050Y63522D01*
X156818Y63368D01*
X156663Y63136D01*
X156609Y62863D01*
Y60208D01*
X155713D01*
Y55513D01*
X155712Y55504D01*
X155713Y55496D01*
Y54792D01*
X156076D01*
X156105Y54626D01*
X156153Y53939D01*
Y53514D01*
X156151Y53448D01*
X156124Y53160D01*
X156088Y52921D01*
X156047Y52742D01*
X156035Y52708D01*
X155560D01*
Y52004D01*
X155558Y51996D01*
X155560Y51987D01*
Y47292D01*
X159940D01*
X159949Y47290D01*
X159957Y47292D01*
X160661D01*
Y47945D01*
X160662Y47956D01*
X160678Y47968D01*
X160772Y48015D01*
X160930Y48068D01*
X161140Y48114D01*
X161643Y48165D01*
X168817D01*
X168967Y48154D01*
X169246Y48116D01*
X169467Y48068D01*
X169626Y48015D01*
X169720Y47968D01*
X169736Y47956D01*
X169737Y47945D01*
Y47292D01*
X170440D01*
X170449Y47290D01*
X170458Y47292D01*
X174287D01*
Y51987D01*
X174288Y51996D01*
X174287Y52004D01*
Y52708D01*
X173924D01*
X173895Y52874D01*
X173847Y53562D01*
Y54025D01*
X173865Y54367D01*
X173893Y54611D01*
X173924Y54792D01*
X174287D01*
Y55496D01*
X174288Y55504D01*
X174287Y55513D01*
Y60208D01*
X173037D01*
Y61036D01*
X180000D01*
X180273Y61091D01*
X180505Y61245D01*
X180659Y61477D01*
X180714Y61750D01*
Y78102D01*
X181049Y78333D01*
X181200Y78370D01*
X181689Y78043D01*
X182500Y77881D01*
X183311Y78043D01*
X183998Y78502D01*
X184457Y79189D01*
X184619Y80000D01*
X184457Y80811D01*
X183998Y81498D01*
X183311Y81957D01*
X183259Y81968D01*
X182804Y82423D01*
X182869Y82750D01*
Y82850D01*
X182877Y82873D01*
X182891Y82894D01*
X182931Y82931D01*
X183020Y82985D01*
X183170Y83046D01*
X183380Y83103D01*
X183651Y83147D01*
X183848Y83165D01*
X191211D01*
X191914Y83304D01*
X192509Y83702D01*
X194408Y85601D01*
X194806Y86197D01*
X194946Y86899D01*
Y91369D01*
X194952Y91543D01*
X194983Y91823D01*
X195025Y92054D01*
X195072Y92223D01*
X195100Y92292D01*
X195661D01*
Y92996D01*
X195662Y93004D01*
X195661Y93013D01*
Y97708D01*
X190560D01*
Y93013D01*
X190558Y93004D01*
X190560Y92996D01*
Y92292D01*
X191121D01*
X191149Y92223D01*
X191195Y92054D01*
X191235Y91833D01*
X191275Y91361D01*
Y87659D01*
X190451Y86835D01*
X183848D01*
X183651Y86853D01*
X183380Y86897D01*
X183170Y86954D01*
X183020Y87015D01*
X182931Y87069D01*
X182891Y87106D01*
X182877Y87127D01*
X182869Y87150D01*
Y87250D01*
X182795Y87621D01*
X182585Y87935D01*
X182271Y88145D01*
X181900Y88219D01*
X179900D01*
X179868Y88212D01*
X179354Y88583D01*
X179338Y89011D01*
X179457Y89189D01*
X179619Y90000D01*
X179457Y90811D01*
X179051Y91420D01*
X179050Y91420D01*
X179053Y91560D01*
X179463Y91840D01*
X179529Y91855D01*
X179900Y91781D01*
X181900D01*
X182271Y91855D01*
X182585Y92065D01*
X182795Y92379D01*
X182869Y92750D01*
Y92850D01*
X182877Y92873D01*
X182891Y92894D01*
X182931Y92931D01*
X183020Y92985D01*
X183170Y93046D01*
X183380Y93103D01*
X183636Y93145D01*
X183849Y93116D01*
X184070Y93068D01*
X184228Y93015D01*
X184322Y92968D01*
X184338Y92956D01*
X184339Y92945D01*
Y92292D01*
X185043D01*
X185051Y92290D01*
X185060Y92292D01*
X189440D01*
Y97708D01*
X185060D01*
X185051Y97710D01*
X185043Y97708D01*
X184339D01*
Y97055D01*
X184338Y97044D01*
X184322Y97032D01*
X184228Y96985D01*
X184070Y96932D01*
X183860Y96886D01*
X183604Y96860D01*
X183380Y96897D01*
X183170Y96954D01*
X183020Y97015D01*
X182931Y97069D01*
X182891Y97106D01*
X182877Y97127D01*
X182869Y97150D01*
Y97250D01*
X182795Y97621D01*
X182585Y97935D01*
X182271Y98145D01*
X181900Y98219D01*
X179900D01*
X179868Y98212D01*
X179354Y98583D01*
X179335Y99093D01*
Y103184D01*
X184950D01*
X185089Y103175D01*
X185370Y103138D01*
X185593Y103092D01*
X185754Y103040D01*
X185850Y102995D01*
X185855Y102991D01*
Y102351D01*
X186558D01*
X186567Y102349D01*
X186576Y102351D01*
X193227D01*
X193236Y102349D01*
X193245Y102351D01*
X193948D01*
Y102991D01*
X193953Y102995D01*
X194049Y103040D01*
X194210Y103092D01*
X194422Y103136D01*
X194919Y103184D01*
X200020D01*
X200722Y103324D01*
X201317Y103722D01*
X201443Y103847D01*
X206153D01*
Y111153D01*
D02*
G37*
G36*
X10000Y107251D02*
X8964Y107114D01*
X7999Y106714D01*
X7770Y106539D01*
X8584Y105725D01*
X7524Y104664D01*
X6709Y105478D01*
X6533Y105249D01*
X6134Y104284D01*
X5997Y103248D01*
X6134Y102212D01*
X6533Y101247D01*
X6709Y101018D01*
X7524Y101832D01*
X8584Y100771D01*
X7770Y99957D01*
X7999Y99782D01*
X8964Y99382D01*
X10000Y99245D01*
X11036Y99382D01*
X12001Y99782D01*
X12230Y99957D01*
X11416Y100771D01*
X12477Y101832D01*
X13291Y101018D01*
X13466Y101247D01*
X13866Y102212D01*
X14003Y103248D01*
X13866Y104284D01*
X13466Y105249D01*
X13291Y105478D01*
X12477Y104664D01*
X11416Y105725D01*
X12230Y106539D01*
X12001Y106714D01*
X11036Y107114D01*
X10000Y107251D01*
D02*
G37*
G36*
X90168Y92787D02*
X84832D01*
Y91813D01*
X84824Y91792D01*
X84810Y91772D01*
X84770Y91734D01*
X84681Y91680D01*
X84531Y91619D01*
X84321Y91563D01*
X84050Y91518D01*
X83853Y91501D01*
X79140D01*
X78943Y91518D01*
X78673Y91563D01*
X78462Y91619D01*
X78313Y91680D01*
X78224Y91734D01*
X78183Y91772D01*
X78168Y91794D01*
X78161Y91815D01*
Y92708D01*
X73060D01*
Y88013D01*
X73058Y88004D01*
X73060Y87995D01*
Y87292D01*
X73717D01*
X73807Y87282D01*
X73818Y87278D01*
X73832Y87269D01*
X73866Y87231D01*
X73918Y87142D01*
X73976Y86992D01*
X74031Y86781D01*
X74074Y86510D01*
X74090Y86322D01*
Y86116D01*
X74066Y85721D01*
X74034Y85484D01*
X73997Y85298D01*
X73993Y85287D01*
X73572D01*
Y84583D01*
X73570Y84575D01*
X73572Y84566D01*
Y78375D01*
X78909D01*
Y85287D01*
X78179D01*
X78075Y85298D01*
X78051Y85306D01*
X78030Y85320D01*
X77993Y85360D01*
X77939Y85448D01*
X77879Y85595D01*
X77823Y85804D01*
X77778Y86073D01*
X77760Y86269D01*
Y86565D01*
X77775Y86872D01*
X77801Y87120D01*
X77828Y87292D01*
X78161D01*
Y87728D01*
X78178Y87733D01*
X78344Y87768D01*
X79074Y87830D01*
X83853D01*
X84050Y87813D01*
X84321Y87768D01*
X84531Y87712D01*
X84681Y87651D01*
X84770Y87597D01*
X84810Y87559D01*
X84824Y87538D01*
X84832Y87518D01*
Y85875D01*
X90168D01*
Y92787D01*
D02*
G37*
G36*
X10000Y90803D02*
X9145Y90690D01*
X8348Y90360D01*
X7664Y89836D01*
X7140Y89152D01*
X6809Y88355D01*
X6697Y87500D01*
X6809Y86645D01*
X7140Y85848D01*
X7664Y85164D01*
X8348Y84640D01*
X9145Y84310D01*
X10000Y84197D01*
X10855Y84310D01*
X11652Y84640D01*
X12336Y85164D01*
X12390Y85235D01*
X12442Y85284D01*
X12545Y85361D01*
X12658Y85431D01*
X12784Y85494D01*
X12925Y85549D01*
X13081Y85596D01*
X13254Y85634D01*
X13443Y85663D01*
X13468Y85665D01*
X14006D01*
X14189Y85543D01*
X15000Y85381D01*
X15811Y85543D01*
X16498Y86002D01*
X16957Y86689D01*
X17119Y87500D01*
X16957Y88311D01*
X16498Y88998D01*
X15811Y89457D01*
X15000Y89619D01*
X14189Y89457D01*
X14006Y89335D01*
X13468D01*
X13443Y89337D01*
X13254Y89366D01*
X13081Y89404D01*
X12925Y89451D01*
X12785Y89506D01*
X12658Y89569D01*
X12544Y89639D01*
X12442Y89716D01*
X12390Y89765D01*
X12336Y89836D01*
X11652Y90360D01*
X10855Y90690D01*
X10000Y90803D01*
D02*
G37*
G36*
Y82929D02*
X9145Y82816D01*
X8348Y82486D01*
X7664Y81962D01*
X7140Y81278D01*
X6809Y80481D01*
X6697Y79626D01*
X6809Y78771D01*
X7140Y77974D01*
X7664Y77290D01*
X8348Y76765D01*
X9145Y76436D01*
X10000Y76323D01*
X10855Y76436D01*
X11652Y76765D01*
X12336Y77290D01*
X12860Y77974D01*
X13191Y78771D01*
X13303Y79626D01*
X13191Y80481D01*
X12860Y81278D01*
X12336Y81962D01*
X11652Y82486D01*
X10855Y82816D01*
X10000Y82929D01*
D02*
G37*
G36*
Y75755D02*
X8964Y75618D01*
X7999Y75218D01*
X7770Y75043D01*
X8584Y74229D01*
X7524Y73168D01*
X6709Y73982D01*
X6533Y73753D01*
X6134Y72788D01*
X5997Y71752D01*
X6134Y70716D01*
X6533Y69751D01*
X6709Y69522D01*
X7524Y70336D01*
X8584Y69275D01*
X7770Y68461D01*
X7999Y68286D01*
X8964Y67886D01*
X10000Y67749D01*
X11036Y67886D01*
X12001Y68286D01*
X12230Y68461D01*
X11416Y69275D01*
X12477Y70336D01*
X13291Y69522D01*
X13466Y69751D01*
X13866Y70716D01*
X14003Y71752D01*
X13866Y72788D01*
X13466Y73753D01*
X13291Y73982D01*
X12477Y73168D01*
X11416Y74229D01*
X12230Y75043D01*
X12001Y75218D01*
X11036Y75618D01*
X10000Y75755D01*
D02*
G37*
G36*
X29519Y82669D02*
X23788D01*
Y77332D01*
X24622D01*
X24644Y77324D01*
X24665Y77310D01*
X24703Y77269D01*
X24757Y77179D01*
X24818Y77030D01*
X24874Y76819D01*
X24919Y76549D01*
X24936Y76352D01*
Y76019D01*
X24934Y75949D01*
X24907Y75661D01*
X24871Y75422D01*
X24830Y75243D01*
X24817Y75208D01*
X24339D01*
Y74505D01*
X24338Y74496D01*
X24339Y74487D01*
Y69792D01*
X29440D01*
Y74487D01*
X29442Y74496D01*
X29440Y74505D01*
Y75208D01*
X28800D01*
X28796Y75213D01*
X28751Y75309D01*
X28700Y75470D01*
X28655Y75682D01*
X28607Y76179D01*
Y76397D01*
X28619Y76559D01*
X28658Y76836D01*
X28708Y77054D01*
X28763Y77210D01*
X28811Y77302D01*
X28830Y77327D01*
X28865Y77332D01*
X29519D01*
Y78033D01*
X29521Y78041D01*
X29519Y78050D01*
Y82669D01*
D02*
G37*
G36*
X188500Y59987D02*
X187468Y59851D01*
X186506Y59453D01*
X186281Y59280D01*
X187096Y58465D01*
X186035Y57404D01*
X185220Y58219D01*
X185047Y57993D01*
X184649Y57032D01*
X184513Y56000D01*
X184649Y54968D01*
X185047Y54007D01*
X185220Y53781D01*
X186035Y54596D01*
X187096Y53535D01*
X186281Y52720D01*
X186506Y52547D01*
X187468Y52149D01*
X188500Y52013D01*
X189532Y52149D01*
X190493Y52547D01*
X190719Y52720D01*
X189904Y53535D01*
X190965Y54596D01*
X191780Y53781D01*
X191953Y54007D01*
X192351Y54968D01*
X192487Y56000D01*
X192351Y57032D01*
X191953Y57993D01*
X191780Y58219D01*
X190965Y57404D01*
X189904Y58465D01*
X190719Y59280D01*
X190493Y59453D01*
X189532Y59851D01*
X188500Y59987D01*
D02*
G37*
G36*
X14000D02*
X12968Y59851D01*
X12007Y59453D01*
X11781Y59280D01*
X12596Y58465D01*
X11535Y57404D01*
X10720Y58219D01*
X10547Y57993D01*
X10149Y57032D01*
X10013Y56000D01*
X10149Y54968D01*
X10547Y54007D01*
X10720Y53781D01*
X11535Y54596D01*
X12596Y53535D01*
X11781Y52720D01*
X12007Y52547D01*
X12968Y52149D01*
X14000Y52013D01*
X15032Y52149D01*
X15993Y52547D01*
X16219Y52720D01*
X15404Y53535D01*
X16465Y54596D01*
X17280Y53781D01*
X17453Y54007D01*
X17851Y54968D01*
X17987Y56000D01*
X17851Y57032D01*
X17453Y57993D01*
X17280Y58219D01*
X16465Y57404D01*
X15404Y58465D01*
X16219Y59280D01*
X15993Y59453D01*
X15032Y59851D01*
X14000Y59987D01*
D02*
G37*
G36*
X202153Y59653D02*
X194847D01*
Y52347D01*
X202153D01*
Y59653D01*
D02*
G37*
G36*
X71212Y55168D02*
X65481D01*
Y49832D01*
X67746D01*
X67851Y49821D01*
X67874Y49812D01*
X67895Y49798D01*
X67932Y49758D01*
X67986Y49670D01*
X68046Y49523D01*
X68103Y49314D01*
X68147Y49045D01*
X68165Y48850D01*
Y47881D01*
X68156Y47708D01*
X68060D01*
Y47035D01*
X68059Y47032D01*
X68060Y47027D01*
Y47007D01*
X68058Y46998D01*
X68060Y46990D01*
Y42292D01*
X73161D01*
Y47708D01*
X72150D01*
X72128Y47715D01*
X72107Y47730D01*
X72069Y47771D01*
X72015Y47861D01*
X71954Y48010D01*
X71897Y48221D01*
X71853Y48491D01*
X71835Y48687D01*
Y50846D01*
X71696Y51549D01*
X71298Y52144D01*
X71212Y52230D01*
Y55168D01*
D02*
G37*
G36*
X60200Y48219D02*
X58200D01*
X57829Y48145D01*
X57515Y47935D01*
X57305Y47621D01*
X57231Y47250D01*
Y42750D01*
X57305Y42379D01*
X57515Y42065D01*
X57829Y41855D01*
X58200Y41781D01*
X60200D01*
X60571Y41855D01*
X60885Y42065D01*
X61095Y42379D01*
X61139Y42600D01*
X61347Y42721D01*
X61839Y42439D01*
Y42292D01*
X62543D01*
X62551Y42290D01*
X62560Y42292D01*
X66940D01*
Y47708D01*
X62560D01*
X62551Y47710D01*
X62543Y47708D01*
X61839D01*
Y47561D01*
X61347Y47279D01*
X61139Y47400D01*
X61095Y47621D01*
X60885Y47935D01*
X60571Y48145D01*
X60200Y48219D01*
D02*
G37*
G36*
X192500Y39670D02*
X191495Y39538D01*
X190559Y39150D01*
X190366Y39002D01*
X190323Y38982D01*
X189989Y38734D01*
X189649Y38528D01*
X189274Y38344D01*
X188862Y38181D01*
X188412Y38041D01*
X187924Y37925D01*
X187500Y37851D01*
X187076Y37925D01*
X186588Y38041D01*
X186138Y38181D01*
X185726Y38344D01*
X185351Y38528D01*
X185011Y38734D01*
X184677Y38982D01*
X184634Y39002D01*
X184441Y39150D01*
X183505Y39538D01*
X182500Y39670D01*
X181495Y39538D01*
X180559Y39150D01*
X179754Y38533D01*
X179137Y37729D01*
X178750Y36792D01*
X178617Y35787D01*
Y34213D01*
X178750Y33208D01*
X179137Y32271D01*
X179754Y31467D01*
X180559Y30850D01*
X181495Y30462D01*
X182500Y30330D01*
X183505Y30462D01*
X184441Y30850D01*
X184634Y30998D01*
X184677Y31018D01*
X185011Y31266D01*
X185351Y31472D01*
X185726Y31657D01*
X186138Y31819D01*
X186588Y31959D01*
X187076Y32075D01*
X187500Y32149D01*
X187924Y32075D01*
X188412Y31959D01*
X188862Y31819D01*
X189274Y31656D01*
X189649Y31472D01*
X189989Y31266D01*
X190323Y31018D01*
X190366Y30998D01*
X190559Y30850D01*
X191495Y30462D01*
X192500Y30330D01*
X193505Y30462D01*
X194441Y30850D01*
X195246Y31467D01*
X195863Y32271D01*
X196250Y33208D01*
X196383Y34213D01*
Y35787D01*
X196250Y36792D01*
X195863Y37729D01*
X195246Y38533D01*
X194441Y39150D01*
X193505Y39538D01*
X192500Y39670D01*
D02*
G37*
G36*
X27653Y59653D02*
X20347D01*
Y52347D01*
X21746D01*
X21851Y52336D01*
X21874Y52328D01*
X21895Y52314D01*
X21932Y52274D01*
X21986Y52186D01*
X22046Y52039D01*
X22103Y51829D01*
X22147Y51561D01*
X22165Y51365D01*
Y48500D01*
X22304Y47798D01*
X22702Y47202D01*
X25665Y44240D01*
Y40245D01*
X25646Y39956D01*
X25597Y39569D01*
X25533Y39252D01*
X25484Y39092D01*
X25366Y39002D01*
X25323Y38982D01*
X24989Y38734D01*
X24649Y38528D01*
X24274Y38344D01*
X23862Y38181D01*
X23412Y38041D01*
X22924Y37925D01*
X22500Y37851D01*
X22076Y37925D01*
X21588Y38041D01*
X21138Y38181D01*
X20726Y38344D01*
X20350Y38528D01*
X20011Y38734D01*
X19677Y38982D01*
X19634Y39002D01*
X19441Y39150D01*
X18505Y39538D01*
X17500Y39670D01*
X16495Y39538D01*
X15559Y39150D01*
X14754Y38533D01*
X14137Y37729D01*
X13749Y36792D01*
X13617Y35787D01*
Y34213D01*
X13749Y33208D01*
X14137Y32271D01*
X14754Y31467D01*
X15559Y30850D01*
X16495Y30462D01*
X17500Y30330D01*
X18505Y30462D01*
X19441Y30850D01*
X19634Y30998D01*
X19677Y31018D01*
X20011Y31266D01*
X20350Y31472D01*
X20726Y31657D01*
X21138Y31819D01*
X21588Y31959D01*
X22076Y32075D01*
X22500Y32149D01*
X22924Y32075D01*
X23412Y31959D01*
X23862Y31819D01*
X24274Y31656D01*
X24649Y31472D01*
X24989Y31266D01*
X25323Y31018D01*
X25366Y30998D01*
X25484Y30908D01*
X25533Y30748D01*
X25595Y30442D01*
X25665Y29698D01*
Y28260D01*
X23702Y26298D01*
X23304Y25702D01*
X23165Y25000D01*
Y21132D01*
X23147Y20935D01*
X23103Y20665D01*
X23046Y20454D01*
X22985Y20305D01*
X22931Y20216D01*
X22893Y20175D01*
X22872Y20160D01*
X22851Y20153D01*
X20347D01*
Y12847D01*
X27653D01*
Y19434D01*
X27654Y19443D01*
X27653Y19451D01*
Y20153D01*
X27022D01*
X27022Y20153D01*
X26977Y20249D01*
X26926Y20412D01*
X26882Y20625D01*
X26835Y21119D01*
Y24240D01*
X28798Y26202D01*
X29196Y26798D01*
X29335Y27500D01*
Y29755D01*
X29354Y30044D01*
X29403Y30431D01*
X29467Y30748D01*
X29517Y30908D01*
X30246Y31467D01*
X30863Y32271D01*
X31251Y33208D01*
X31383Y34213D01*
Y35787D01*
X31251Y36792D01*
X30863Y37729D01*
X30246Y38533D01*
X29517Y39092D01*
X29467Y39252D01*
X29405Y39558D01*
X29335Y40302D01*
Y45000D01*
X29196Y45702D01*
X28798Y46298D01*
X25835Y49260D01*
Y51365D01*
X25853Y51561D01*
X25897Y51829D01*
X25954Y52039D01*
X26014Y52186D01*
X26068Y52274D01*
X26105Y52314D01*
X26126Y52328D01*
X26149Y52336D01*
X26254Y52347D01*
X27653D01*
Y59653D01*
D02*
G37*
G36*
X206350Y39637D02*
X198650D01*
Y30363D01*
X206350D01*
Y39637D01*
D02*
G37*
G36*
X7500Y39670D02*
X6495Y39538D01*
X5559Y39150D01*
X4754Y38533D01*
X4137Y37729D01*
X3749Y36792D01*
X3617Y35787D01*
Y34213D01*
X3749Y33208D01*
X4137Y32271D01*
X4754Y31467D01*
X5559Y30850D01*
X6495Y30462D01*
X7500Y30330D01*
X8505Y30462D01*
X9441Y30850D01*
X10246Y31467D01*
X10863Y32271D01*
X11250Y33208D01*
X11383Y34213D01*
Y35787D01*
X11250Y36792D01*
X10863Y37729D01*
X10246Y38533D01*
X9441Y39150D01*
X8505Y39538D01*
X7500Y39670D01*
D02*
G37*
G36*
X14000Y20487D02*
X12968Y20351D01*
X12007Y19953D01*
X11781Y19780D01*
X12596Y18965D01*
X11535Y17904D01*
X10720Y18719D01*
X10547Y18493D01*
X10149Y17532D01*
X10013Y16500D01*
X10149Y15468D01*
X10547Y14507D01*
X10720Y14281D01*
X11535Y15096D01*
X12596Y14035D01*
X11781Y13220D01*
X12007Y13047D01*
X12968Y12649D01*
X14000Y12513D01*
X15032Y12649D01*
X15993Y13047D01*
X16219Y13220D01*
X15404Y14035D01*
X16465Y15096D01*
X17280Y14281D01*
X17453Y14507D01*
X17851Y15468D01*
X17987Y16500D01*
X17851Y17532D01*
X17453Y18493D01*
X17280Y18719D01*
X16465Y17904D01*
X15404Y18965D01*
X16219Y19780D01*
X15993Y19953D01*
X15032Y20351D01*
X14000Y20487D01*
D02*
G37*
G36*
X188500Y19987D02*
X187468Y19851D01*
X186506Y19453D01*
X186281Y19280D01*
X187096Y18465D01*
X186035Y17404D01*
X185220Y18219D01*
X185047Y17993D01*
X184649Y17032D01*
X184513Y16000D01*
X184649Y14968D01*
X185047Y14007D01*
X185220Y13781D01*
X186035Y14596D01*
X187096Y13535D01*
X186281Y12720D01*
X186506Y12547D01*
X187468Y12149D01*
X188500Y12013D01*
X189532Y12149D01*
X190493Y12547D01*
X190719Y12720D01*
X189904Y13535D01*
X190965Y14596D01*
X191780Y13781D01*
X191953Y14007D01*
X192351Y14968D01*
X192487Y16000D01*
X192351Y17032D01*
X191953Y17993D01*
X191780Y18219D01*
X190965Y17404D01*
X189904Y18465D01*
X190719Y19280D01*
X190493Y19453D01*
X189532Y19851D01*
X188500Y19987D01*
D02*
G37*
G36*
X202153Y19653D02*
X194847D01*
Y12347D01*
X202153D01*
Y19653D01*
D02*
G37*
%LPD*%
G36*
X186567Y118024D02*
X186545Y118188D01*
X186479Y118336D01*
X186369Y118466D01*
X186215Y118578D01*
X186017Y118674D01*
X185775Y118752D01*
X185489Y118812D01*
X185159Y118856D01*
X184785Y118881D01*
X184367Y118890D01*
Y121090D01*
X184785Y121099D01*
X185489Y121166D01*
X185775Y121226D01*
X186017Y121302D01*
X186215Y121395D01*
X186369Y121505D01*
X186479Y121632D01*
X186545Y121776D01*
X186567Y121937D01*
Y118024D01*
D02*
G37*
G36*
X168455Y121776D02*
X168521Y121632D01*
X168631Y121505D01*
X168785Y121395D01*
X168983Y121302D01*
X169225Y121226D01*
X169511Y121166D01*
X169841Y121124D01*
X170215Y121099D01*
X170633Y121090D01*
Y118890D01*
X170215Y118881D01*
X169511Y118812D01*
X169225Y118752D01*
X168983Y118674D01*
X168785Y118578D01*
X168631Y118466D01*
X168521Y118336D01*
X168455Y118188D01*
X168433Y118024D01*
Y121937D01*
X168455Y121776D01*
D02*
G37*
G36*
X149067Y118024D02*
X149045Y118188D01*
X148979Y118336D01*
X148869Y118466D01*
X148715Y118578D01*
X148517Y118674D01*
X148275Y118752D01*
X147989Y118812D01*
X147659Y118856D01*
X147285Y118881D01*
X146867Y118890D01*
Y121090D01*
X147285Y121099D01*
X147989Y121166D01*
X148275Y121226D01*
X148517Y121302D01*
X148715Y121395D01*
X148869Y121505D01*
X148979Y121632D01*
X149045Y121776D01*
X149067Y121937D01*
Y118024D01*
D02*
G37*
G36*
X130955Y121776D02*
X131021Y121632D01*
X131131Y121505D01*
X131285Y121395D01*
X131483Y121302D01*
X131725Y121226D01*
X132011Y121166D01*
X132341Y121124D01*
X132715Y121099D01*
X133133Y121090D01*
Y118890D01*
X132715Y118881D01*
X132011Y118812D01*
X131725Y118752D01*
X131483Y118674D01*
X131285Y118578D01*
X131131Y118466D01*
X131021Y118336D01*
X130955Y118188D01*
X130933Y118024D01*
Y121937D01*
X130955Y121776D01*
D02*
G37*
G36*
X200391Y115433D02*
X200197Y115617D01*
X199992Y115781D01*
X199777Y115926D01*
X199552Y116052D01*
X199317Y116158D01*
X199071Y116245D01*
X198816Y116313D01*
X198550Y116361D01*
X198274Y116390D01*
X197988Y116400D01*
Y118600D01*
X198274Y118610D01*
X198550Y118639D01*
X198816Y118687D01*
X199071Y118755D01*
X199317Y118842D01*
X199552Y118948D01*
X199777Y119074D01*
X199992Y119219D01*
X200197Y119383D01*
X200391Y119567D01*
Y115433D01*
D02*
G37*
G36*
X157292Y106976D02*
X156855Y106524D01*
X156168Y105714D01*
X155918Y105355D01*
X155730Y105029D01*
X155604Y104733D01*
X155541Y104469D01*
X155540Y104236D01*
X155601Y104035D01*
X155724Y103865D01*
X152625Y106964D01*
X152795Y106841D01*
X152996Y106780D01*
X153229Y106781D01*
X153493Y106844D01*
X153788Y106970D01*
X154115Y107158D01*
X154473Y107408D01*
X154863Y107720D01*
X155736Y108532D01*
X157292Y106976D01*
D02*
G37*
G36*
X149067Y103063D02*
X149045Y103226D01*
X148979Y103372D01*
X148869Y103500D01*
X148715Y103611D01*
X148517Y103706D01*
X148275Y103783D01*
X147989Y103843D01*
X147659Y103885D01*
X147285Y103911D01*
X146867Y103920D01*
Y106120D01*
X147285Y106128D01*
X147989Y106197D01*
X148275Y106257D01*
X148517Y106334D01*
X148715Y106428D01*
X148869Y106539D01*
X148979Y106668D01*
X149045Y106814D01*
X149067Y106976D01*
Y103063D01*
D02*
G37*
G36*
X130955Y106814D02*
X131021Y106668D01*
X131131Y106539D01*
X131285Y106428D01*
X131483Y106334D01*
X131725Y106257D01*
X132011Y106197D01*
X132341Y106154D01*
X132715Y106128D01*
X133133Y106120D01*
Y103920D01*
X132715Y103911D01*
X132011Y103843D01*
X131725Y103783D01*
X131483Y103706D01*
X131285Y103611D01*
X131131Y103500D01*
X131021Y103372D01*
X130955Y103226D01*
X130933Y103063D01*
Y106976D01*
X130955Y106814D01*
D02*
G37*
G36*
X141182Y97432D02*
X138818D01*
X138833Y97461D01*
X138847Y97532D01*
X138860Y97648D01*
X138887Y98253D01*
X138900Y99666D01*
X141100D01*
X141182Y97432D01*
D02*
G37*
G36*
X135354Y92800D02*
X135332Y93009D01*
X135266Y93196D01*
X135155Y93361D01*
X135001Y93504D01*
X134801Y93625D01*
X134558Y93724D01*
X134271Y93801D01*
X133939Y93856D01*
X133911Y93858D01*
X133527Y93819D01*
X133241Y93757D01*
X132999Y93676D01*
X132801Y93577D01*
X132647Y93461D01*
X132537Y93327D01*
X132471Y93174D01*
X132449Y93004D01*
Y96996D01*
X132471Y96826D01*
X132537Y96673D01*
X132647Y96539D01*
X132801Y96422D01*
X132999Y96324D01*
X133241Y96243D01*
X133527Y96181D01*
X133852Y96136D01*
X133939Y96144D01*
X134271Y96199D01*
X134558Y96276D01*
X134801Y96375D01*
X135001Y96496D01*
X135155Y96639D01*
X135266Y96804D01*
X135332Y96991D01*
X135354Y97200D01*
Y92800D01*
D02*
G37*
G36*
X144668Y96991D02*
X144734Y96804D01*
X144845Y96639D01*
X145000Y96496D01*
X145199Y96375D01*
X145442Y96276D01*
X145729Y96199D01*
X146061Y96144D01*
X146089Y96141D01*
X146473Y96181D01*
X146759Y96243D01*
X147001Y96324D01*
X147199Y96422D01*
X147353Y96539D01*
X147463Y96673D01*
X147529Y96826D01*
X147551Y96996D01*
Y93004D01*
X147529Y93174D01*
X147463Y93327D01*
X147353Y93461D01*
X147199Y93577D01*
X147001Y93676D01*
X146759Y93757D01*
X146473Y93819D01*
X146148Y93864D01*
X146061Y93856D01*
X145729Y93801D01*
X145442Y93724D01*
X145199Y93625D01*
X145000Y93504D01*
X144845Y93361D01*
X144734Y93196D01*
X144668Y93009D01*
X144646Y92800D01*
Y97200D01*
X144668Y96991D01*
D02*
G37*
G36*
X157308Y92982D02*
X157183Y92916D01*
X157072Y92806D01*
X156976Y92652D01*
X156895Y92454D01*
X156828Y92212D01*
X156777Y91926D01*
X156740Y91596D01*
X156710Y90804D01*
X154510D01*
X154503Y91222D01*
X154444Y91926D01*
X154392Y92212D01*
X154326Y92454D01*
X154244Y92652D01*
X154148Y92806D01*
X154038Y92916D01*
X153912Y92982D01*
X153772Y93004D01*
X157449D01*
X157308Y92982D01*
D02*
G37*
G36*
X144528Y89655D02*
X144582Y87432D01*
X142218D01*
X142239Y87463D01*
X142257Y87537D01*
X142274Y87653D01*
X142300Y88016D01*
X142328Y89678D01*
X144528Y89655D01*
D02*
G37*
G36*
X141182Y87432D02*
X138818D01*
X138833Y87461D01*
X138847Y87532D01*
X138860Y87647D01*
X138887Y88253D01*
X138900Y89666D01*
X141100D01*
X141182Y87432D01*
D02*
G37*
G36*
X144668Y86991D02*
X144734Y86804D01*
X144845Y86639D01*
X145000Y86496D01*
X145199Y86375D01*
X145442Y86276D01*
X145729Y86199D01*
X146061Y86144D01*
X146437Y86111D01*
X146858Y86100D01*
Y83900D01*
X146437Y83889D01*
X146061Y83856D01*
X145729Y83801D01*
X145442Y83724D01*
X145199Y83625D01*
X145000Y83504D01*
X144845Y83361D01*
X144734Y83196D01*
X144668Y83009D01*
X144646Y82800D01*
Y87200D01*
X144668Y86991D01*
D02*
G37*
G36*
X144538Y82534D02*
X144499Y82470D01*
X144464Y82377D01*
X144434Y82255D01*
X144408Y82103D01*
X144371Y81710D01*
X144352Y81200D01*
X144350Y80900D01*
X142150D01*
X142218Y82568D01*
X144582D01*
X144538Y82534D01*
D02*
G37*
G36*
X102500Y75000D02*
X95000D01*
Y85000D01*
X102500D01*
Y75000D01*
D02*
G37*
G36*
X129808Y75482D02*
X129683Y75416D01*
X129572Y75306D01*
X129476Y75152D01*
X129395Y74954D01*
X129328Y74712D01*
X129277Y74426D01*
X129240Y74096D01*
X129225Y73693D01*
X129277Y73074D01*
X129328Y72788D01*
X129395Y72546D01*
X129476Y72348D01*
X129572Y72194D01*
X129683Y72084D01*
X129808Y72018D01*
X129949Y71996D01*
X126272D01*
X126412Y72018D01*
X126538Y72084D01*
X126648Y72194D01*
X126744Y72348D01*
X126826Y72546D01*
X126892Y72788D01*
X126944Y73074D01*
X126981Y73404D01*
X126996Y73807D01*
X126944Y74426D01*
X126892Y74712D01*
X126826Y74954D01*
X126744Y75152D01*
X126648Y75306D01*
X126538Y75416D01*
X126412Y75482D01*
X126272Y75504D01*
X129949D01*
X129808Y75482D01*
D02*
G37*
G36*
X144947Y75905D02*
X144977Y75820D01*
X145028Y75745D01*
X145099Y75680D01*
X145190Y75625D01*
X145301Y75580D01*
X145432Y75545D01*
X145584Y75520D01*
X145756Y75505D01*
X145949Y75500D01*
Y75500D01*
X151500D01*
Y70716D01*
X148814D01*
X148801Y70714D01*
X143631D01*
Y75500D01*
X144937D01*
Y76000D01*
X144947Y75905D01*
D02*
G37*
G36*
X129785Y67982D02*
X129639Y67916D01*
X129510Y67806D01*
X129398Y67652D01*
X129303Y67454D01*
X129226Y67212D01*
X129166Y66926D01*
X129123Y66596D01*
X129097Y66222D01*
X129097Y66221D01*
X129162Y65288D01*
X129204Y65046D01*
X129255Y64848D01*
X129315Y64694D01*
X129384Y64584D01*
X129463Y64518D01*
X129551Y64496D01*
X126425D01*
X126513Y64518D01*
X126592Y64584D01*
X126661Y64694D01*
X126722Y64848D01*
X126772Y65046D01*
X126814Y65288D01*
X126847Y65574D01*
X126881Y66234D01*
X126833Y66926D01*
X126790Y67212D01*
X126734Y67454D01*
X126666Y67652D01*
X126586Y67806D01*
X126494Y67916D01*
X126389Y67982D01*
X126272Y68004D01*
X129949D01*
X129785Y67982D01*
D02*
G37*
G36*
X151836Y63065D02*
X151841Y63039D01*
X151845Y62994D01*
X151855Y62744D01*
X151860Y62146D01*
X150860Y62033D01*
X150855Y62227D01*
X150840Y62401D01*
X150815Y62553D01*
X150780Y62686D01*
X150735Y62797D01*
X150680Y62888D01*
X150615Y62958D01*
X150540Y63008D01*
X150455Y63037D01*
X150360Y63046D01*
X151830Y63072D01*
X151836Y63065D01*
D02*
G37*
G36*
X135135Y62358D02*
X132696Y60522D01*
X132688Y60555D01*
X132653Y60611D01*
X132593Y60690D01*
X132394Y60920D01*
X131439Y61906D01*
X133561Y64027D01*
X135135Y62358D01*
D02*
G37*
G36*
X129477Y60494D02*
X129411Y60464D01*
X129352Y60414D01*
X129302Y60344D01*
X129259Y60254D01*
X129224Y60144D01*
X129197Y60014D01*
X129177Y59864D01*
X129165Y59694D01*
X129161Y59504D01*
X128161D01*
X128156Y59694D01*
X128141Y59864D01*
X128116Y60014D01*
X128081Y60144D01*
X128036Y60254D01*
X127981Y60344D01*
X127916Y60414D01*
X127841Y60464D01*
X127756Y60494D01*
X127661Y60504D01*
X129551D01*
X129477Y60494D01*
D02*
G37*
G36*
X151865Y60306D02*
X151880Y60136D01*
X151905Y59986D01*
X151940Y59856D01*
X151985Y59746D01*
X152040Y59656D01*
X152105Y59586D01*
X152180Y59536D01*
X152265Y59506D01*
X152360Y59496D01*
X150449D01*
X150527Y59506D01*
X150597Y59536D01*
X150659Y59586D01*
X150712Y59656D01*
X150758Y59746D01*
X150794Y59856D01*
X150823Y59986D01*
X150844Y60136D01*
X150856Y60306D01*
X150860Y60496D01*
X151860D01*
X151865Y60306D01*
D02*
G37*
G36*
X129166Y57773D02*
X129181Y57599D01*
X129206Y57447D01*
X129241Y57314D01*
X129286Y57203D01*
X129341Y57112D01*
X129406Y57042D01*
X129481Y56992D01*
X129566Y56963D01*
X129661Y56954D01*
X128170Y56928D01*
X128169Y56937D01*
X128167Y56966D01*
X128161Y57907D01*
X129161Y57967D01*
X129166Y57773D01*
D02*
G37*
G36*
X153487Y55482D02*
X153408Y55416D01*
X153339Y55306D01*
X153278Y55152D01*
X153227Y54954D01*
X153186Y54712D01*
X153154Y54426D01*
X153119Y53766D01*
X153167Y53074D01*
X153210Y52788D01*
X153266Y52546D01*
X153334Y52348D01*
X153414Y52194D01*
X153506Y52084D01*
X153611Y52018D01*
X153728Y51996D01*
X150051D01*
X150215Y52018D01*
X150361Y52084D01*
X150490Y52194D01*
X150602Y52348D01*
X150697Y52546D01*
X150774Y52788D01*
X150834Y53074D01*
X150877Y53404D01*
X150903Y53778D01*
X150903Y53778D01*
X150838Y54712D01*
X150796Y54954D01*
X150745Y55152D01*
X150685Y55306D01*
X150616Y55416D01*
X150537Y55482D01*
X150449Y55504D01*
X153575D01*
X153487Y55482D01*
D02*
G37*
G36*
X148376Y51423D02*
X148297Y51325D01*
X148228Y51223D01*
X148167Y51117D01*
X148116Y51007D01*
X148074Y50892D01*
X148042Y50773D01*
X148019Y50649D01*
X148005Y50521D01*
X148000Y50389D01*
X147000D01*
X146995Y50521D01*
X146981Y50649D01*
X146958Y50773D01*
X146926Y50892D01*
X146884Y51007D01*
X146833Y51117D01*
X146772Y51223D01*
X146703Y51325D01*
X146624Y51423D01*
X146535Y51516D01*
X148465D01*
X148376Y51423D01*
D02*
G37*
G36*
X151938Y67835D02*
Y67165D01*
Y67000D01*
X146168D01*
X145762Y66997D01*
X145007Y66948D01*
X145000Y66946D01*
Y60000D01*
X140000Y55000D01*
Y50000D01*
X128062D01*
Y53000D01*
X133832D01*
X134238Y53003D01*
X134994Y53053D01*
X135000Y53054D01*
Y59317D01*
X140000Y64317D01*
Y70000D01*
X151938D01*
Y67835D01*
D02*
G37*
G36*
X153588Y47982D02*
X153462Y47916D01*
X153352Y47806D01*
X153256Y47652D01*
X153174Y47454D01*
X153108Y47212D01*
X153056Y46926D01*
X153019Y46596D01*
X153004Y46193D01*
X153056Y45574D01*
X153108Y45288D01*
X153174Y45046D01*
X153256Y44848D01*
X153352Y44694D01*
X153462Y44584D01*
X153588Y44518D01*
X153728Y44496D01*
X150051D01*
X150192Y44518D01*
X150317Y44584D01*
X150428Y44694D01*
X150524Y44848D01*
X150605Y45046D01*
X150672Y45288D01*
X150723Y45574D01*
X150760Y45904D01*
X150775Y46307D01*
X150723Y46926D01*
X150672Y47212D01*
X150605Y47454D01*
X150524Y47652D01*
X150428Y47806D01*
X150317Y47916D01*
X150192Y47982D01*
X150051Y48004D01*
X153728D01*
X153588Y47982D01*
D02*
G37*
G36*
X136272Y44633D02*
X135063D01*
Y44000D01*
X135053Y44095D01*
X135023Y44180D01*
X134972Y44255D01*
X134901Y44320D01*
X134810Y44375D01*
X134699Y44420D01*
X134567Y44455D01*
X134416Y44480D01*
X134244Y44495D01*
X134051Y44500D01*
Y44633D01*
X128535D01*
Y49014D01*
X136272Y49014D01*
Y44633D01*
D02*
G37*
G36*
X137795Y43006D02*
X137710Y42976D01*
X137635Y42925D01*
X137570Y42854D01*
X137515Y42763D01*
X137470Y42652D01*
X137435Y42520D01*
X137410Y42368D01*
X137395Y42196D01*
X137390Y42004D01*
X136390D01*
X136385Y42196D01*
X136370Y42368D01*
X136345Y42520D01*
X136310Y42652D01*
X136265Y42763D01*
X136210Y42854D01*
X136145Y42925D01*
X136070Y42976D01*
X135985Y43006D01*
X135890Y43016D01*
X137890D01*
X137795Y43006D01*
D02*
G37*
G36*
X157855Y35813D02*
X157870Y35638D01*
X157895Y35485D01*
X157930Y35353D01*
X157975Y35241D01*
X158030Y35150D01*
X158095Y35080D01*
X158170Y35031D01*
X158255Y35003D01*
X158350Y34996D01*
X156355Y34934D01*
X156449Y34948D01*
X156533Y34982D01*
X156607Y35037D01*
X156672Y35113D01*
X156726Y35210D01*
X156771Y35328D01*
X156805Y35467D01*
X156830Y35626D01*
X156845Y35806D01*
X156850Y36008D01*
X157850D01*
X157855Y35813D01*
D02*
G37*
G36*
X163713Y35008D02*
X163299Y34578D01*
X162642Y33797D01*
X162399Y33447D01*
X162214Y33122D01*
X162086Y32825D01*
X162015Y32553D01*
X162001Y32308D01*
X162045Y32089D01*
X162146Y31896D01*
X159900Y35008D01*
X160049Y35023D01*
X160215Y35070D01*
X160398Y35148D01*
X160598Y35256D01*
X160815Y35397D01*
X161050Y35568D01*
X161569Y36003D01*
X162158Y36563D01*
X163713Y35008D01*
D02*
G37*
G36*
X152854Y30300D02*
X152832Y30509D01*
X152766Y30696D01*
X152655Y30861D01*
X152500Y31004D01*
X152301Y31125D01*
X152058Y31224D01*
X151770Y31301D01*
X151439Y31356D01*
X151063Y31389D01*
X150642Y31400D01*
Y33600D01*
X151063Y33611D01*
X151439Y33644D01*
X151770Y33699D01*
X152058Y33776D01*
X152301Y33875D01*
X152500Y33996D01*
X152655Y34139D01*
X152766Y34304D01*
X152832Y34491D01*
X152854Y34700D01*
Y30300D01*
D02*
G37*
G36*
X147951Y34491D02*
X148017Y34304D01*
X148128Y34139D01*
X148283Y33996D01*
X148482Y33875D01*
X148725Y33776D01*
X149013Y33699D01*
X149344Y33644D01*
X149721Y33611D01*
X150141Y33600D01*
Y31400D01*
X149721Y31389D01*
X149344Y31356D01*
X149013Y31301D01*
X148725Y31224D01*
X148482Y31125D01*
X148283Y31004D01*
X148128Y30861D01*
X148017Y30696D01*
X147951Y30509D01*
X147929Y30300D01*
Y34700D01*
X147951Y34491D01*
D02*
G37*
G36*
X162067Y30039D02*
X162053Y29968D01*
X162040Y29853D01*
X162013Y29247D01*
X162000Y27834D01*
X159800D01*
X159718Y30068D01*
X162082D01*
X162067Y30039D01*
D02*
G37*
G36*
X158005Y25815D02*
X158020Y25644D01*
X158045Y25492D01*
X158079Y25360D01*
X158124Y25249D01*
X158178Y25158D01*
X158243Y25087D01*
X158317Y25037D01*
X158401Y25007D01*
X158495Y24996D01*
X156500Y24996D01*
X156595Y25006D01*
X156680Y25036D01*
X156755Y25087D01*
X156820Y25158D01*
X156875Y25249D01*
X156920Y25360D01*
X156955Y25492D01*
X156980Y25643D01*
X156995Y25815D01*
X157000Y26008D01*
X158000D01*
X158005Y25815D01*
D02*
G37*
G36*
X162082Y24932D02*
X159718D01*
X159733Y24961D01*
X159747Y25032D01*
X159760Y25148D01*
X159787Y25753D01*
X159800Y27166D01*
X162000D01*
X162082Y24932D01*
D02*
G37*
G36*
X147303Y24383D02*
X147508Y24219D01*
X147723Y24074D01*
X147948Y23948D01*
X148183Y23842D01*
X148429Y23755D01*
X148684Y23687D01*
X148950Y23639D01*
X149226Y23610D01*
X149512Y23600D01*
Y21400D01*
X149226Y21390D01*
X148950Y21361D01*
X148684Y21313D01*
X148429Y21245D01*
X148183Y21158D01*
X147948Y21052D01*
X147723Y20926D01*
X147508Y20781D01*
X147303Y20617D01*
X147109Y20433D01*
Y24567D01*
X147303Y24383D01*
D02*
G37*
G36*
X152854Y20300D02*
X152832Y20509D01*
X152766Y20696D01*
X152655Y20861D01*
X152500Y21004D01*
X152301Y21125D01*
X152058Y21224D01*
X151770Y21301D01*
X151439Y21356D01*
X151063Y21389D01*
X150642Y21400D01*
Y23600D01*
X151063Y23611D01*
X151439Y23644D01*
X151770Y23699D01*
X152058Y23776D01*
X152301Y23875D01*
X152500Y23996D01*
X152655Y24139D01*
X152766Y24304D01*
X152832Y24491D01*
X152854Y24700D01*
Y20300D01*
D02*
G37*
G36*
X89230Y123355D02*
X89098Y123127D01*
X88981Y122882D01*
X88880Y122620D01*
X88794Y122343D01*
X88724Y122049D01*
X88670Y121739D01*
X88631Y121412D01*
X88619Y121148D01*
X88638Y120904D01*
X88686Y120574D01*
X88752Y120288D01*
X88838Y120046D01*
X88942Y119848D01*
X89066Y119694D01*
X89209Y119584D01*
X89370Y119518D01*
X89551Y119496D01*
X86425D01*
X86421Y119518D01*
X86416Y119584D01*
X86403Y120710D01*
X86400D01*
X86392Y121069D01*
X86330Y121739D01*
X86276Y122049D01*
X86206Y122343D01*
X86120Y122620D01*
X86019Y122882D01*
X85902Y123127D01*
X85770Y123355D01*
X85622Y123567D01*
X89378D01*
X89230Y123355D01*
D02*
G37*
G36*
X80500Y120208D02*
X79737D01*
Y116500D01*
X77712D01*
X77538Y116616D01*
X77215Y116681D01*
X74085D01*
X73762Y116616D01*
X73598Y116507D01*
X72500D01*
Y122004D01*
X72453D01*
X72448Y122196D01*
X72439Y122292D01*
X70713D01*
Y127708D01*
X80500D01*
Y120208D01*
D02*
G37*
G36*
X88002Y115516D02*
X88500D01*
X88405Y115506D01*
X88400Y115504D01*
X89551D01*
X89534Y115500D01*
X104500D01*
Y110000D01*
X84230D01*
X83818Y110412D01*
X83421Y110678D01*
X82953Y110771D01*
X77237D01*
X77215Y110775D01*
X74085D01*
X74007Y110839D01*
Y114161D01*
X74085Y114225D01*
X77215D01*
X77538Y114289D01*
X77811Y114472D01*
X77972Y114712D01*
X85712D01*
X86488Y115488D01*
X86425Y115504D01*
X86600D01*
X86595Y115506D01*
X86500Y115516D01*
X86993D01*
X87000Y115830D01*
X88000D01*
X88002Y115516D01*
D02*
G37*
G36*
X73458Y102806D02*
X73473Y102636D01*
X73498Y102486D01*
X73533Y102356D01*
X73578Y102246D01*
X73633Y102156D01*
X73698Y102086D01*
X73773Y102036D01*
X73858Y102006D01*
X73953Y101996D01*
X72551D01*
X72533Y102006D01*
X72516Y102036D01*
X72501Y102086D01*
X72488Y102156D01*
X72477Y102246D01*
X72462Y102486D01*
X72453Y102996D01*
X73453D01*
X73458Y102806D01*
D02*
G37*
G36*
X86305Y103315D02*
X86320Y103144D01*
X86345Y102992D01*
X86379Y102860D01*
X86424Y102749D01*
X86478Y102658D01*
X86543Y102587D01*
X86617Y102537D01*
X86701Y102507D01*
X86795Y102497D01*
X86321Y102496D01*
X86400Y101295D01*
X86436Y101111D01*
X86478Y100963D01*
X86525Y100852D01*
X86578Y100777D01*
X85022D01*
X85075Y100852D01*
X85122Y100963D01*
X85164Y101111D01*
X85200Y101295D01*
X85230Y101517D01*
X85275Y102072D01*
X85285Y102496D01*
X84800Y102496D01*
X84895Y102506D01*
X84980Y102536D01*
X85055Y102587D01*
X85120Y102658D01*
X85175Y102749D01*
X85220Y102860D01*
X85255Y102992D01*
X85280Y103143D01*
X85295Y103315D01*
X85300Y103508D01*
X86300D01*
X86305Y103315D01*
D02*
G37*
G36*
X90468Y101991D02*
X90534Y101804D01*
X90645Y101639D01*
X90799Y101496D01*
X90999Y101375D01*
X91242Y101276D01*
X91530Y101199D01*
X91545Y101196D01*
X91759Y101243D01*
X92001Y101324D01*
X92199Y101423D01*
X92353Y101539D01*
X92463Y101673D01*
X92529Y101826D01*
X92551Y101996D01*
Y101103D01*
X92658Y101100D01*
Y98900D01*
X92551Y98897D01*
Y98004D01*
X92529Y98174D01*
X92463Y98327D01*
X92353Y98461D01*
X92199Y98577D01*
X92001Y98676D01*
X91759Y98757D01*
X91545Y98804D01*
X91530Y98801D01*
X91242Y98724D01*
X90999Y98625D01*
X90799Y98504D01*
X90645Y98361D01*
X90534Y98196D01*
X90468Y98009D01*
X90446Y97800D01*
Y98898D01*
X90351Y98900D01*
Y101100D01*
X90446Y101102D01*
Y102200D01*
X90468Y101991D01*
D02*
G37*
G36*
X98181Y95883D02*
X98649Y95478D01*
X98869Y95314D01*
X99079Y95175D01*
X99280Y95062D01*
X99471Y94974D01*
X99653Y94911D01*
X99825Y94874D01*
X99988Y94862D01*
X97638Y92512D01*
X97626Y92675D01*
X97589Y92847D01*
X97526Y93029D01*
X97438Y93220D01*
X97325Y93421D01*
X97186Y93631D01*
X97022Y93851D01*
X96617Y94319D01*
X96377Y94567D01*
X97933Y96123D01*
X98181Y95883D01*
D02*
G37*
G36*
X61385Y116317D02*
X61328Y116276D01*
X61277Y116225D01*
X61232Y116164D01*
X61193Y116093D01*
X61161Y116012D01*
X61134Y115920D01*
X61113Y115819D01*
X61098Y115707D01*
X61089Y115585D01*
X61086Y115453D01*
X60086D01*
X60083Y115599D01*
X60062Y115858D01*
X60043Y115971D01*
X60019Y116074D01*
X59990Y116165D01*
X59955Y116246D01*
X59915Y116315D01*
X59870Y116374D01*
X59820Y116422D01*
X61385Y116317D01*
D02*
G37*
G36*
X30571Y115321D02*
X30664Y113891D01*
X30699Y113737D01*
X30739Y113627D01*
X30784Y113561D01*
X30834Y113539D01*
X28103D01*
X28153Y113561D01*
X28198Y113627D01*
X28238Y113737D01*
X28273Y113891D01*
X28302Y114089D01*
X28345Y114617D01*
X28368Y115739D01*
X30569D01*
X30571Y115321D01*
D02*
G37*
G36*
X26634D02*
X26727Y113891D01*
X26762Y113737D01*
X26802Y113627D01*
X26847Y113561D01*
X26897Y113539D01*
X24166D01*
X24216Y113561D01*
X24261Y113627D01*
X24301Y113737D01*
X24336Y113891D01*
X24365Y114089D01*
X24408Y114617D01*
X24431Y115739D01*
X26632D01*
X26634Y115321D01*
D02*
G37*
G36*
X67500Y102708D02*
X65713D01*
Y99592D01*
X64122Y98000D01*
X63558D01*
X63487Y97982D01*
X63408Y97916D01*
X63339Y97806D01*
X63278Y97652D01*
X63227Y97454D01*
X63186Y97212D01*
X63153Y96926D01*
X63116Y96222D01*
X63112Y95804D01*
X60912D01*
X60907Y96222D01*
X60838Y97212D01*
X60796Y97454D01*
X60745Y97652D01*
X60685Y97806D01*
X60616Y97916D01*
X60537Y97982D01*
X60466Y98000D01*
X58161D01*
Y102708D01*
X56841D01*
X56839Y102721D01*
X56834Y102780D01*
Y105103D01*
X60054Y108324D01*
X62763D01*
X62785Y108319D01*
X65915D01*
X66238Y108384D01*
X66402Y108493D01*
X67500D01*
X67500Y102708D01*
D02*
G37*
G36*
X35000Y107500D02*
X51138D01*
X51300Y107006D01*
Y106997D01*
X51327Y106932D01*
X51341Y106863D01*
X51380Y106804D01*
X51407Y106739D01*
X51456Y106690D01*
X51495Y106631D01*
X51554Y106592D01*
X51604Y106543D01*
X51690Y106484D01*
X51755Y106458D01*
X51814Y106419D01*
X51882Y106405D01*
X51947Y106378D01*
X52018D01*
X52087Y106364D01*
X52771D01*
X53273Y106157D01*
X53567Y105862D01*
X53571Y105859D01*
X53575Y105855D01*
X53687Y105782D01*
X53798Y105708D01*
X53804Y105707D01*
X53808Y105704D01*
X53940Y105680D01*
X54071Y105654D01*
X54105Y105616D01*
X54387Y105158D01*
Y103000D01*
X20000D01*
Y115000D01*
X23127D01*
X23495Y114578D01*
X23453Y114251D01*
X23454D01*
Y113548D01*
X23452Y113539D01*
X23453Y113533D01*
X23452Y113526D01*
X23454Y113519D01*
Y108127D01*
X31546D01*
Y113519D01*
X31548Y113526D01*
X31547Y113533D01*
X31548Y113539D01*
X31546Y113548D01*
Y114251D01*
X31547D01*
X31476Y114582D01*
X31829Y115000D01*
X35000D01*
Y107500D01*
D02*
G37*
G36*
X65993Y111000D02*
X59535D01*
X59245Y110711D01*
X59079Y110678D01*
X58682Y110412D01*
X54745Y106475D01*
X54694Y106398D01*
X54650Y106376D01*
X54071Y106367D01*
X53677Y106762D01*
X52913Y107078D01*
X52087D01*
X52000Y107136D01*
Y114000D01*
X65993D01*
Y111000D01*
D02*
G37*
G36*
X56115Y102804D02*
X56130Y102631D01*
X56155Y102480D01*
X56190Y102348D01*
X56235Y102237D01*
X56290Y102146D01*
X56355Y102075D01*
X56430Y102024D01*
X56515Y101994D01*
X56610Y101984D01*
X54610D01*
X54705Y101994D01*
X54790Y102024D01*
X54865Y102075D01*
X54930Y102146D01*
X54985Y102237D01*
X55030Y102348D01*
X55065Y102480D01*
X55090Y102631D01*
X55105Y102804D01*
X55110Y102996D01*
X56110D01*
X56115Y102804D01*
D02*
G37*
G36*
X31991Y97982D02*
X31804Y97916D01*
X31639Y97806D01*
X31496Y97652D01*
X31375Y97454D01*
X31276Y97212D01*
X31199Y96926D01*
X31144Y96596D01*
X31111Y96222D01*
X31100Y95804D01*
X28900D01*
X28899Y96222D01*
X28796Y97982D01*
X28772Y98004D01*
X32200D01*
X31991Y97982D01*
D02*
G37*
G36*
X11983Y97043D02*
X12140Y96924D01*
X12311Y96818D01*
X12495Y96727D01*
X12691Y96650D01*
X12901Y96586D01*
X13125Y96537D01*
X13361Y96502D01*
X13610Y96481D01*
X13873Y96474D01*
Y94274D01*
X13610Y94267D01*
X13361Y94246D01*
X13125Y94211D01*
X12901Y94162D01*
X12691Y94098D01*
X12495Y94021D01*
X12311Y93930D01*
X12140Y93824D01*
X11983Y93705D01*
X11839Y93572D01*
Y97176D01*
X11983Y97043D01*
D02*
G37*
G36*
X40928Y90722D02*
X40494Y90707D01*
X40075Y90662D01*
X39669Y90586D01*
X39277Y90480D01*
X38899Y90344D01*
X38535Y90177D01*
X38184Y89981D01*
X37847Y89754D01*
X37524Y89496D01*
X37214Y89209D01*
X38272Y91822D01*
Y92922D01*
X40928Y90722D01*
D02*
G37*
G36*
X31949D02*
X31793Y90715D01*
X31787Y88893D01*
X31427Y88886D01*
X30757Y88824D01*
X30447Y88770D01*
X30153Y88700D01*
X29875Y88615D01*
X29614Y88514D01*
X29370Y88398D01*
X29142Y88267D01*
X28930Y88120D01*
X28934Y90637D01*
X27939Y92321D01*
X31203Y92922D01*
X31949Y90722D01*
D02*
G37*
G36*
X199559Y104559D02*
X197359Y103920D01*
Y106120D01*
X197779Y106131D01*
X198154Y106164D01*
X198485Y106219D01*
X198773Y106296D01*
X199016Y106395D01*
X199215Y106516D01*
X199370Y106659D01*
X199481Y106824D01*
X199548Y107011D01*
X199571Y107220D01*
X199559Y104559D01*
D02*
G37*
G36*
X193258Y106814D02*
X193324Y106668D01*
X193434Y106539D01*
X193588Y106428D01*
X193786Y106334D01*
X194028Y106257D01*
X194314Y106197D01*
X194644Y106154D01*
X195018Y106128D01*
X195436Y106120D01*
Y103920D01*
X195018Y103911D01*
X194314Y103843D01*
X194028Y103783D01*
X193786Y103706D01*
X193588Y103611D01*
X193434Y103500D01*
X193324Y103372D01*
X193258Y103226D01*
X193236Y103063D01*
Y106976D01*
X193258Y106814D01*
D02*
G37*
G36*
X186567Y103063D02*
X186545Y103226D01*
X186479Y103372D01*
X186369Y103500D01*
X186215Y103611D01*
X186017Y103706D01*
X185775Y103783D01*
X185489Y103843D01*
X185159Y103885D01*
X184785Y103911D01*
X184367Y103920D01*
Y106120D01*
X184785Y106128D01*
X185489Y106197D01*
X185775Y106257D01*
X186017Y106334D01*
X186215Y106428D01*
X186369Y106539D01*
X186479Y106668D01*
X186545Y106814D01*
X186567Y106976D01*
Y103063D01*
D02*
G37*
G36*
X168455Y106814D02*
X168521Y106668D01*
X168631Y106539D01*
X168785Y106428D01*
X168983Y106334D01*
X169225Y106257D01*
X169511Y106197D01*
X169841Y106154D01*
X170215Y106128D01*
X170633Y106120D01*
Y103920D01*
X170215Y103911D01*
X169511Y103843D01*
X169225Y103783D01*
X168983Y103706D01*
X168785Y103611D01*
X168631Y103500D01*
X168521Y103372D01*
X168455Y103226D01*
X168433Y103063D01*
Y106976D01*
X168455Y106814D01*
D02*
G37*
G36*
X178682Y97432D02*
X176318D01*
X176333Y97461D01*
X176347Y97532D01*
X176360Y97648D01*
X176387Y98253D01*
X176400Y99666D01*
X178600D01*
X178682Y97432D01*
D02*
G37*
G36*
X172854Y92800D02*
X172832Y93009D01*
X172766Y93196D01*
X172655Y93361D01*
X172501Y93504D01*
X172301Y93625D01*
X172058Y93724D01*
X171771Y93801D01*
X171439Y93856D01*
X171411Y93858D01*
X171027Y93819D01*
X170741Y93757D01*
X170499Y93676D01*
X170301Y93577D01*
X170147Y93461D01*
X170037Y93327D01*
X169971Y93174D01*
X169949Y93004D01*
Y96996D01*
X169971Y96826D01*
X170037Y96673D01*
X170147Y96539D01*
X170301Y96422D01*
X170499Y96324D01*
X170741Y96243D01*
X171027Y96181D01*
X171352Y96136D01*
X171439Y96144D01*
X171771Y96199D01*
X172058Y96276D01*
X172301Y96375D01*
X172501Y96496D01*
X172655Y96639D01*
X172766Y96804D01*
X172832Y96991D01*
X172854Y97200D01*
Y92800D01*
D02*
G37*
G36*
X182168Y96991D02*
X182234Y96804D01*
X182345Y96639D01*
X182500Y96496D01*
X182699Y96375D01*
X182942Y96276D01*
X183229Y96199D01*
X183561Y96144D01*
X183589Y96141D01*
X183973Y96181D01*
X184259Y96243D01*
X184501Y96324D01*
X184699Y96422D01*
X184853Y96539D01*
X184963Y96673D01*
X185029Y96826D01*
X185051Y96996D01*
Y93004D01*
X185029Y93174D01*
X184963Y93327D01*
X184853Y93461D01*
X184699Y93577D01*
X184501Y93676D01*
X184259Y93757D01*
X183973Y93819D01*
X183648Y93864D01*
X183561Y93856D01*
X183229Y93801D01*
X182942Y93724D01*
X182699Y93625D01*
X182500Y93504D01*
X182345Y93361D01*
X182234Y93196D01*
X182168Y93009D01*
X182146Y92800D01*
Y97200D01*
X182168Y96991D01*
D02*
G37*
G36*
X194808Y92982D02*
X194683Y92916D01*
X194572Y92806D01*
X194476Y92652D01*
X194395Y92454D01*
X194328Y92212D01*
X194277Y91926D01*
X194240Y91596D01*
X194210Y90804D01*
X192010D01*
X192003Y91222D01*
X191944Y91926D01*
X191892Y92212D01*
X191826Y92454D01*
X191744Y92652D01*
X191648Y92806D01*
X191538Y92916D01*
X191412Y92982D01*
X191272Y93004D01*
X194949D01*
X194808Y92982D01*
D02*
G37*
G36*
X178682Y87432D02*
X176318D01*
X176333Y87461D01*
X176347Y87532D01*
X176360Y87647D01*
X176387Y88253D01*
X176400Y89666D01*
X178600D01*
X178682Y87432D01*
D02*
G37*
G36*
X182168Y86991D02*
X182234Y86804D01*
X182345Y86639D01*
X182500Y86496D01*
X182699Y86375D01*
X182942Y86276D01*
X183229Y86199D01*
X183561Y86144D01*
X183937Y86111D01*
X184358Y86100D01*
Y83900D01*
X183937Y83889D01*
X183561Y83856D01*
X183229Y83801D01*
X182942Y83724D01*
X182699Y83625D01*
X182500Y83504D01*
X182345Y83361D01*
X182234Y83196D01*
X182168Y83009D01*
X182146Y82800D01*
Y87200D01*
X182168Y86991D01*
D02*
G37*
G36*
X159157Y75311D02*
X159170Y75186D01*
X159193Y75064D01*
X159225Y74947D01*
X159267Y74832D01*
X159319Y74722D01*
X159380Y74614D01*
X159451Y74511D01*
X159532Y74410D01*
X159622Y74314D01*
X158915Y73607D01*
X158818Y73697D01*
X158718Y73777D01*
X158614Y73848D01*
X158507Y73909D01*
X158396Y73961D01*
X158282Y74003D01*
X158164Y74036D01*
X158043Y74058D01*
X157918Y74071D01*
X157789Y74075D01*
X159153Y75439D01*
X159157Y75311D01*
D02*
G37*
G36*
X160229Y72774D02*
X160244Y72602D01*
X160269Y72450D01*
X160304Y72319D01*
X160349Y72207D01*
X160404Y72116D01*
X160469Y72045D01*
X160544Y71995D01*
X160629Y71965D01*
X160724Y71955D01*
X158724D01*
X158819Y71965D01*
X158904Y71995D01*
X158979Y72045D01*
X159044Y72116D01*
X159099Y72207D01*
X159144Y72319D01*
X159179Y72450D01*
X159204Y72602D01*
X159219Y72774D01*
X159224Y72966D01*
X160224D01*
X160229Y72774D01*
D02*
G37*
G36*
X164286Y61750D02*
X164341Y61477D01*
X164495Y61245D01*
X164727Y61091D01*
X165000Y61036D01*
X172323D01*
Y55504D01*
X173575D01*
X173487Y55482D01*
X173408Y55416D01*
X173339Y55306D01*
X173278Y55152D01*
X173228Y54954D01*
X173186Y54712D01*
X173153Y54426D01*
X173118Y53754D01*
X173186Y52788D01*
X173228Y52546D01*
X173278Y52348D01*
X173339Y52194D01*
X173408Y52084D01*
X173487Y52018D01*
X173575Y51996D01*
X172323D01*
Y50000D01*
X170449D01*
Y48004D01*
X170427Y48174D01*
X170361Y48327D01*
X170251Y48461D01*
X170097Y48577D01*
X169899Y48676D01*
X169657Y48757D01*
X169371Y48819D01*
X169041Y48864D01*
X168667Y48891D01*
X168249Y48900D01*
Y50000D01*
X162149D01*
Y48900D01*
X161731Y48891D01*
X161027Y48819D01*
X160741Y48757D01*
X160499Y48676D01*
X160301Y48577D01*
X160147Y48461D01*
X160037Y48327D01*
X159971Y48174D01*
X159949Y48004D01*
Y50000D01*
X157323D01*
Y51996D01*
X156272D01*
X156389Y52018D01*
X156494Y52084D01*
X156586Y52194D01*
X156666Y52348D01*
X156734Y52546D01*
X156790Y52788D01*
X156833Y53074D01*
X156863Y53404D01*
X156877Y53822D01*
X156814Y54712D01*
X156772Y54954D01*
X156722Y55152D01*
X156661Y55306D01*
X156592Y55416D01*
X156513Y55482D01*
X156425Y55504D01*
X157323D01*
Y62863D01*
X158062D01*
Y63814D01*
X158263Y64284D01*
X161186D01*
X161308Y64308D01*
X164286D01*
Y61750D01*
D02*
G37*
G36*
X85555Y87465D02*
X85533Y87674D01*
X85467Y87861D01*
X85356Y88026D01*
X85202Y88169D01*
X85002Y88290D01*
X84759Y88389D01*
X84472Y88466D01*
X84140Y88521D01*
X83764Y88554D01*
X83343Y88565D01*
Y90765D01*
X83764Y90776D01*
X84140Y90809D01*
X84472Y90864D01*
X84759Y90941D01*
X85002Y91040D01*
X85202Y91161D01*
X85356Y91304D01*
X85467Y91469D01*
X85533Y91656D01*
X85555Y91865D01*
Y87465D01*
D02*
G37*
G36*
X77459Y91656D02*
X77526Y91469D01*
X77637Y91304D01*
X77792Y91161D01*
X77991Y91040D01*
X78235Y90941D01*
X78522Y90864D01*
X78853Y90809D01*
X79229Y90776D01*
X79649Y90765D01*
Y88565D01*
X79231Y88560D01*
X78241Y88476D01*
X77999Y88425D01*
X77801Y88363D01*
X77647Y88290D01*
X77537Y88206D01*
X77471Y88111D01*
X77449Y88004D01*
X77368Y87982D01*
X77296Y87916D01*
X77233Y87806D01*
X77178Y87652D01*
X77131Y87454D01*
X77093Y87212D01*
X77063Y86926D01*
X77036Y86361D01*
X77036Y86357D01*
X77069Y85983D01*
X77124Y85653D01*
X77201Y85367D01*
X77300Y85125D01*
X77421Y84927D01*
X77564Y84773D01*
X77729Y84663D01*
X77916Y84597D01*
X78125Y84575D01*
X74284D01*
X74387Y84597D01*
X74479Y84663D01*
X74560Y84773D01*
X74630Y84927D01*
X74690Y85125D01*
X74739Y85367D01*
X74777Y85653D01*
X74813Y86244D01*
X74783Y86596D01*
X74730Y86926D01*
X74657Y87212D01*
X74562Y87454D01*
X74446Y87652D01*
X74309Y87806D01*
X74151Y87916D01*
X73972Y87982D01*
X73772Y88004D01*
X77449D01*
X77437Y91865D01*
X77459Y91656D01*
D02*
G37*
G36*
X11983Y89169D02*
X12140Y89050D01*
X12311Y88944D01*
X12495Y88853D01*
X12691Y88776D01*
X12901Y88712D01*
X13125Y88663D01*
X13361Y88628D01*
X13610Y88607D01*
X13873Y88600D01*
Y86400D01*
X13610Y86393D01*
X13361Y86372D01*
X13125Y86337D01*
X12901Y86288D01*
X12691Y86224D01*
X12495Y86147D01*
X12311Y86056D01*
X12140Y85950D01*
X11983Y85831D01*
X11839Y85698D01*
Y89302D01*
X11983Y89169D01*
D02*
G37*
G36*
X28807Y78044D02*
X28629Y78022D01*
X28470Y77956D01*
X28330Y77846D01*
X28208Y77692D01*
X28106Y77494D01*
X28021Y77251D01*
X27956Y76965D01*
X27909Y76635D01*
X27881Y76266D01*
X27949Y75574D01*
X28009Y75288D01*
X28086Y75046D01*
X28180Y74848D01*
X28291Y74694D01*
X28420Y74584D01*
X28565Y74518D01*
X28728Y74496D01*
X25051D01*
X25169Y74518D01*
X25275Y74584D01*
X25368Y74694D01*
X25448Y74848D01*
X25517Y75046D01*
X25572Y75288D01*
X25616Y75574D01*
X25647Y75904D01*
X25659Y76285D01*
X25628Y76639D01*
X25573Y76970D01*
X25496Y77258D01*
X25397Y77501D01*
X25276Y77700D01*
X25133Y77855D01*
X24968Y77966D01*
X24781Y78033D01*
X24572Y78056D01*
X28807Y78044D01*
D02*
G37*
G36*
X70614Y50521D02*
X70716Y50455D01*
X70806Y50345D01*
X70884Y50191D01*
X70950Y49994D01*
X71004Y49751D01*
X71046Y49466D01*
X71070Y49196D01*
X71100D01*
X71111Y48776D01*
X71144Y48401D01*
X71199Y48069D01*
X71276Y47782D01*
X71375Y47539D01*
X71496Y47340D01*
X71639Y47185D01*
X71804Y47074D01*
X71991Y47007D01*
X72200Y46984D01*
X68772Y46996D01*
X68796Y47018D01*
X68818Y47084D01*
X68837Y47194D01*
X68854Y47348D01*
X68888Y48074D01*
X68894Y48583D01*
X68889Y48761D01*
X68856Y49136D01*
X68801Y49466D01*
X68724Y49751D01*
X68625Y49994D01*
X68504Y50191D01*
X68361Y50345D01*
X68196Y50455D01*
X68009Y50521D01*
X67800Y50543D01*
X70500D01*
X70614Y50521D01*
D02*
G37*
G36*
X60468Y46991D02*
X60534Y46804D01*
X60645Y46639D01*
X60799Y46496D01*
X60999Y46375D01*
X61242Y46276D01*
X61529Y46199D01*
X61545Y46196D01*
X61759Y46243D01*
X62001Y46324D01*
X62199Y46422D01*
X62353Y46539D01*
X62463Y46673D01*
X62529Y46826D01*
X62551Y46996D01*
Y46103D01*
X62658Y46100D01*
Y43900D01*
X62551Y43897D01*
Y43004D01*
X62529Y43174D01*
X62463Y43327D01*
X62353Y43461D01*
X62199Y43578D01*
X62001Y43676D01*
X61759Y43757D01*
X61545Y43804D01*
X61529Y43801D01*
X61242Y43724D01*
X60999Y43625D01*
X60799Y43504D01*
X60645Y43361D01*
X60534Y43196D01*
X60468Y43009D01*
X60446Y42800D01*
Y43898D01*
X60351Y43900D01*
Y46100D01*
X60446Y46102D01*
Y47200D01*
X60468Y46991D01*
D02*
G37*
G36*
X190748Y31591D02*
X190388Y31859D01*
X189993Y32098D01*
X189563Y32310D01*
X189099Y32493D01*
X188601Y32648D01*
X188067Y32775D01*
X187500Y32873D01*
X186933Y32775D01*
X186399Y32648D01*
X185901Y32493D01*
X185437Y32310D01*
X185007Y32098D01*
X184612Y31859D01*
X184252Y31591D01*
Y38409D01*
X184612Y38141D01*
X185007Y37902D01*
X185437Y37690D01*
X185901Y37507D01*
X186399Y37352D01*
X186933Y37225D01*
X187500Y37127D01*
X188067Y37225D01*
X188601Y37352D01*
X189099Y37507D01*
X189563Y37690D01*
X189993Y37902D01*
X190388Y38141D01*
X190748Y38409D01*
Y31591D01*
D02*
G37*
G36*
X25991Y53037D02*
X25804Y52971D01*
X25639Y52861D01*
X25496Y52707D01*
X25375Y52509D01*
X25276Y52267D01*
X25199Y51981D01*
X25144Y51651D01*
X25111Y51277D01*
X25100Y50859D01*
X22900D01*
X22889Y51277D01*
X22856Y51651D01*
X22801Y51981D01*
X22724Y52267D01*
X22625Y52509D01*
X22504Y52707D01*
X22361Y52861D01*
X22196Y52971D01*
X22009Y53037D01*
X21800Y53059D01*
X26200D01*
X25991Y53037D01*
D02*
G37*
G36*
X28611Y40381D02*
X28698Y39453D01*
X28775Y39076D01*
X28873Y38757D01*
X28993Y38496D01*
X29135Y38293D01*
X29299Y38148D01*
X29485Y38061D01*
X29692Y38032D01*
X28719D01*
X28802Y36685D01*
X28855Y36513D01*
X28915Y36413D01*
X26085D01*
X26145Y36513D01*
X26198Y36685D01*
X26246Y36929D01*
X26287Y37246D01*
X26345Y38032D01*
X25748D01*
Y31968D01*
X26281D01*
X26198Y33315D01*
X26145Y33487D01*
X26085Y33587D01*
X28915D01*
X28855Y33487D01*
X28802Y33315D01*
X28754Y33071D01*
X28713Y32754D01*
X28655Y31968D01*
X29692D01*
X29485Y31939D01*
X29299Y31852D01*
X29135Y31707D01*
X28993Y31504D01*
X28873Y31243D01*
X28775Y30924D01*
X28698Y30547D01*
X28644Y30112D01*
X28611Y29619D01*
X28600Y29068D01*
X26400D01*
X26389Y29619D01*
X26302Y30547D01*
X26225Y30924D01*
X26127Y31243D01*
X26007Y31504D01*
X25865Y31707D01*
X25748Y31810D01*
Y31591D01*
X25388Y31859D01*
X24993Y32098D01*
X24563Y32310D01*
X24099Y32493D01*
X23601Y32648D01*
X23067Y32775D01*
X22500Y32873D01*
X21933Y32775D01*
X21399Y32648D01*
X20901Y32493D01*
X20437Y32310D01*
X20007Y32098D01*
X19612Y31859D01*
X19252Y31591D01*
Y38409D01*
X19612Y38141D01*
X20007Y37902D01*
X20437Y37690D01*
X20901Y37507D01*
X21399Y37352D01*
X21933Y37225D01*
X22500Y37127D01*
X23067Y37225D01*
X23601Y37352D01*
X24099Y37507D01*
X24563Y37690D01*
X24993Y37902D01*
X25388Y38141D01*
X25748Y38409D01*
Y38190D01*
X25865Y38293D01*
X26007Y38496D01*
X26127Y38757D01*
X26225Y39076D01*
X26302Y39453D01*
X26356Y39888D01*
X26389Y40381D01*
X26400Y40933D01*
X28600D01*
X28611Y40381D01*
D02*
G37*
G36*
X26108Y21223D02*
X26176Y20519D01*
X26234Y20233D01*
X26310Y19991D01*
X26403Y19793D01*
X26512Y19639D01*
X26638Y19529D01*
X26781Y19463D01*
X26941Y19441D01*
X22800Y19429D01*
X23009Y19451D01*
X23196Y19518D01*
X23361Y19629D01*
X23504Y19784D01*
X23625Y19983D01*
X23724Y20227D01*
X23801Y20514D01*
X23856Y20845D01*
X23889Y21221D01*
X23900Y21641D01*
X26100D01*
X26108Y21223D01*
D02*
G37*
%LPC*%
G36*
X128653Y36153D02*
X121347D01*
Y28847D01*
X128653D01*
Y36153D01*
D02*
G37*
G36*
X125000Y26487D02*
X123968Y26351D01*
X123007Y25953D01*
X122781Y25780D01*
X123596Y24965D01*
X122535Y23904D01*
X121720Y24719D01*
X121547Y24493D01*
X121149Y23532D01*
X121013Y22500D01*
X121149Y21468D01*
X121547Y20507D01*
X121720Y20281D01*
X122535Y21096D01*
X123596Y20035D01*
X122781Y19220D01*
X123007Y19047D01*
X123968Y18649D01*
X125000Y18513D01*
X126032Y18649D01*
X126993Y19047D01*
X127219Y19220D01*
X126404Y20035D01*
X127465Y21096D01*
X128280Y20281D01*
X128453Y20507D01*
X128851Y21468D01*
X128987Y22500D01*
X128851Y23532D01*
X128453Y24493D01*
X128280Y24719D01*
X127465Y23904D01*
X126404Y24965D01*
X127219Y25780D01*
X126993Y25953D01*
X126032Y26351D01*
X125000Y26487D01*
D02*
G37*
G36*
X115000D02*
X113968Y26351D01*
X113007Y25953D01*
X112781Y25780D01*
X113596Y24965D01*
X112535Y23904D01*
X111720Y24719D01*
X111547Y24493D01*
X111149Y23532D01*
X111013Y22500D01*
X111149Y21468D01*
X111547Y20507D01*
X111720Y20281D01*
X112535Y21096D01*
X113596Y20035D01*
X112781Y19220D01*
X113007Y19047D01*
X113968Y18649D01*
X115000Y18513D01*
X116032Y18649D01*
X116993Y19047D01*
X117219Y19220D01*
X116404Y20035D01*
X117465Y21096D01*
X118280Y20281D01*
X118453Y20507D01*
X118851Y21468D01*
X118987Y22500D01*
X118851Y23532D01*
X118453Y24493D01*
X118280Y24719D01*
X117465Y23904D01*
X116404Y24965D01*
X117219Y25780D01*
X116993Y25953D01*
X116032Y26351D01*
X115000Y26487D01*
D02*
G37*
G36*
X105000D02*
X103968Y26351D01*
X103007Y25953D01*
X102781Y25780D01*
X103596Y24965D01*
X102535Y23904D01*
X101720Y24719D01*
X101547Y24493D01*
X101149Y23532D01*
X101013Y22500D01*
X101149Y21468D01*
X101547Y20507D01*
X101720Y20281D01*
X102535Y21096D01*
X103596Y20035D01*
X102781Y19220D01*
X103007Y19047D01*
X103968Y18649D01*
X105000Y18513D01*
X106032Y18649D01*
X106993Y19047D01*
X107219Y19220D01*
X106404Y20035D01*
X107465Y21096D01*
X108280Y20281D01*
X108453Y20507D01*
X108851Y21468D01*
X108987Y22500D01*
X108851Y23532D01*
X108453Y24493D01*
X108280Y24719D01*
X107465Y23904D01*
X106404Y24965D01*
X107219Y25780D01*
X106993Y25953D01*
X106032Y26351D01*
X105000Y26487D01*
D02*
G37*
%LPD*%
D14*
X167685Y70239D02*
Y72862D01*
X166914Y69468D02*
X167685Y70239D01*
Y72862D02*
X169153Y74331D01*
X159724Y69468D02*
X166914D01*
X169153Y74331D02*
X170000D01*
X92500Y112500D02*
X100728D01*
X87500D02*
X92500D01*
X82500D02*
X87500D01*
X80000D02*
X82500D01*
X150276Y71437D02*
Y74414D01*
X143110Y75000D02*
X149690D01*
X150276Y74414D01*
X150244Y71469D02*
X150276Y71437D01*
X147829Y71469D02*
X150244D01*
X146614Y72208D02*
X147090D01*
X147829Y71469D01*
X120276Y46847D02*
Y48563D01*
Y46847D02*
X122122Y45000D01*
X62598Y106850D02*
X67047D01*
X151360Y58152D02*
X152012Y57500D01*
X151360Y58152D02*
Y63532D01*
X150276Y63563D02*
X151329D01*
X151360Y63532D01*
X158630Y58595D02*
Y63532D01*
X157988Y57953D02*
X158630Y58595D01*
X158661Y63563D02*
X159724D01*
X158630Y63532D02*
X158661Y63563D01*
X121306Y56437D02*
X121337Y56468D01*
Y61825D01*
X120276Y56437D02*
X121306D01*
X121337Y61825D02*
X122012Y62500D01*
X128661Y56468D02*
X128693Y56437D01*
X127988Y62500D02*
X128661Y61827D01*
X128693Y56437D02*
X129347D01*
X128661Y56468D02*
Y61827D01*
X62012Y106265D02*
X62598Y106850D01*
X62012Y102988D02*
Y106265D01*
X87500Y112650D02*
Y117012D01*
Y112500D02*
Y112650D01*
X60586Y115453D02*
X64350D01*
X60586Y117408D02*
X60678Y117500D01*
X60586Y115453D02*
Y117408D01*
X157350Y32650D02*
Y36211D01*
X147500Y38789D02*
X148789Y37500D01*
X147500Y38789D02*
Y52500D01*
X148789Y37500D02*
X156061D01*
X157350Y36211D01*
Y32650D02*
X157500Y32500D01*
Y22500D02*
Y26914D01*
X142397Y27500D02*
X156914D01*
X157500Y26914D01*
X136890Y33008D02*
X142397Y27500D01*
X136890Y33008D02*
Y45000D01*
X157776Y75453D02*
X159724Y73504D01*
Y71437D02*
Y73504D01*
X150276Y67500D02*
Y69468D01*
X142988Y67500D02*
X150276D01*
X159724Y65531D02*
X169587D01*
X107500Y54331D02*
X107638Y54469D01*
X120276D01*
X112415Y50063D02*
X112884Y50532D01*
X112415Y47238D02*
Y50063D01*
X112884Y50532D02*
X120276D01*
X110846Y45669D02*
X112415Y47238D01*
X107500Y45669D02*
X110846D01*
X129724Y48432D02*
X129724Y48432D01*
Y45469D02*
Y48432D01*
Y45469D02*
X130193Y45000D01*
X136512D01*
X129724Y48432D02*
Y48563D01*
Y50532D02*
Y52500D01*
X137012D01*
X169587Y65531D02*
X169724Y65669D01*
X87500Y117012D02*
X87988Y117500D01*
X57500Y112500D02*
X58484Y113484D01*
X64350D01*
X57500Y112500D02*
X58484Y111516D01*
X64350D01*
X72953Y124965D02*
X72988Y125000D01*
X72953Y118150D02*
Y124965D01*
X55610Y105610D02*
X59547Y109547D01*
X55610Y100000D02*
Y105610D01*
X59547Y109547D02*
X64350D01*
X72953Y101437D02*
X74390Y100000D01*
X72953Y101437D02*
Y106850D01*
X85800Y100000D02*
Y106700D01*
X82953Y109547D02*
X85800Y106700D01*
X75650Y109547D02*
X82953D01*
X100728Y112500D02*
X101063Y112835D01*
X79016Y111516D02*
X80000Y112500D01*
X75650Y113484D02*
X79016D01*
X80000Y112500D01*
X75650Y111516D02*
X79016D01*
D18*
X62012Y100000D02*
D03*
X67988D02*
D03*
X60488Y62500D02*
D03*
X54512D02*
D03*
X177988Y50000D02*
D03*
X172012D02*
D03*
X177988Y57500D02*
D03*
X172012D02*
D03*
X152012D02*
D03*
X157988D02*
D03*
X142988Y52500D02*
D03*
X137012D02*
D03*
Y67500D02*
D03*
X142988D02*
D03*
X127988Y62500D02*
D03*
X122012D02*
D03*
X102012Y70000D02*
D03*
X107988D02*
D03*
X102012Y62500D02*
D03*
X107988D02*
D03*
X47988D02*
D03*
X42012D02*
D03*
X87988Y117500D02*
D03*
X82012D02*
D03*
X72988Y125000D02*
D03*
X67012D02*
D03*
D19*
X61654Y52500D02*
D03*
X68347Y52500D02*
D03*
X33346Y80000D02*
D03*
X26654D02*
D03*
D20*
X159724Y63563D02*
D03*
X150276Y71437D02*
D03*
X159724Y65531D02*
D03*
Y67500D02*
D03*
Y69468D02*
D03*
Y71437D02*
D03*
X150276Y69468D02*
D03*
Y67500D02*
D03*
Y65531D02*
D03*
Y63563D02*
D03*
X120276Y56437D02*
D03*
X129724Y48563D02*
D03*
X120276Y54469D02*
D03*
Y52500D02*
D03*
Y50532D02*
D03*
Y48563D02*
D03*
X129724Y50532D02*
D03*
Y52500D02*
D03*
Y54469D02*
D03*
Y56437D02*
D03*
D21*
X172500Y65669D02*
D03*
Y74331D02*
D03*
X107500Y45669D02*
D03*
Y54331D02*
D03*
D22*
X94390Y100000D02*
D03*
X100610D02*
D03*
X186890Y95000D02*
D03*
X193110D02*
D03*
X30610Y100000D02*
D03*
X24390D02*
D03*
X36890D02*
D03*
X43110D02*
D03*
X55610D02*
D03*
X49390D02*
D03*
X26890Y72500D02*
D03*
X33110D02*
D03*
X69390Y90000D02*
D03*
X75610D02*
D03*
X124390Y95000D02*
D03*
X130610D02*
D03*
X149390D02*
D03*
X155610D02*
D03*
X161890D02*
D03*
X168110D02*
D03*
X158110Y42500D02*
D03*
X151890Y42500D02*
D03*
Y50000D02*
D03*
X158110D02*
D03*
X143110Y45000D02*
D03*
X136890D02*
D03*
X136890Y75000D02*
D03*
X143110Y75000D02*
D03*
X128110Y70000D02*
D03*
X121890D02*
D03*
X121890Y77500D02*
D03*
X128110D02*
D03*
X49390Y37500D02*
D03*
X55610D02*
D03*
X60610Y70000D02*
D03*
X54390D02*
D03*
X70610Y45000D02*
D03*
X64390Y45000D02*
D03*
X84390Y72500D02*
D03*
X90610D02*
D03*
X84390Y65000D02*
D03*
X90610D02*
D03*
X71890D02*
D03*
X78110D02*
D03*
X74390Y100000D02*
D03*
X80610D02*
D03*
D24*
X46260Y20669D02*
D03*
X53740D02*
D03*
X50000Y29331D02*
D03*
X76240Y81831D02*
D03*
X68760D02*
D03*
X72500Y73169D02*
D03*
X83760Y80669D02*
D03*
X91240D02*
D03*
X87500Y89331D02*
D03*
D25*
X25532Y111189D02*
D03*
X29469D02*
D03*
D26*
X21516D02*
D03*
X33484D02*
D03*
D27*
X16673D02*
D03*
X38327D02*
D03*
D28*
X47677Y111406D02*
D03*
X7323D02*
D03*
D29*
Y125500D02*
D03*
X47677D02*
D03*
D30*
X46260Y77382D02*
D03*
X50000D02*
D03*
X53740D02*
D03*
Y87618D02*
D03*
X50000D02*
D03*
X46260D02*
D03*
D31*
X48740Y55512D02*
D03*
X45000D02*
D03*
X41260D02*
D03*
Y44488D02*
D03*
X48740D02*
D03*
D32*
X64350Y109547D02*
D03*
Y111516D02*
D03*
Y113484D02*
D03*
Y115453D02*
D03*
X75650D02*
D03*
Y113484D02*
D03*
Y111516D02*
D03*
Y109547D02*
D03*
D33*
X72953Y106850D02*
D03*
X70984D02*
D03*
X69016D02*
D03*
X67047D02*
D03*
Y118150D02*
D03*
X69016D02*
D03*
X70984D02*
D03*
X72953D02*
D03*
D34*
X152402Y119980D02*
D03*
X127598D02*
D03*
Y105020D02*
D03*
X152402D02*
D03*
X189902Y119980D02*
D03*
X165098D02*
D03*
Y105020D02*
D03*
X189902D02*
D03*
D66*
X155000Y67500D02*
D03*
X125000Y52500D02*
D03*
D67*
X27500Y90000D02*
D03*
X60000Y92500D02*
D03*
X202500Y87500D02*
D03*
X135000Y60000D02*
D03*
X165000Y57500D02*
D03*
X115000Y62500D02*
D03*
X67500Y60000D02*
D03*
X100000Y92500D02*
D03*
X87500Y125000D02*
D03*
D68*
X143400Y95000D02*
D03*
X136600D02*
D03*
X140000D02*
D03*
X143400Y85000D02*
D03*
X136600D02*
D03*
X140000D02*
D03*
X180900Y95000D02*
D03*
X174100D02*
D03*
X177500D02*
D03*
X180900Y85000D02*
D03*
X174100D02*
D03*
X177500D02*
D03*
X157500Y22500D02*
D03*
X154100D02*
D03*
X160900D02*
D03*
X157500Y32500D02*
D03*
X154100D02*
D03*
X160900D02*
D03*
X59200Y45000D02*
D03*
X55800D02*
D03*
X85800Y100000D02*
D03*
X89200D02*
D03*
D69*
X62500Y79200D02*
D03*
Y75800D02*
D03*
D70*
X70000Y112500D02*
D03*
D71*
X180899Y84999D02*
X180900Y85000D01*
X182500Y80000D02*
Y80131D01*
X180899Y81732D02*
X182500Y80131D01*
X180899Y81732D02*
Y84999D01*
X69894Y87606D02*
X70000Y87500D01*
X69894Y87606D02*
Y89496D01*
X69075Y82146D02*
Y87500D01*
X69390Y90000D02*
X69894Y89496D01*
X68760Y81831D02*
X69075Y82146D01*
X38272Y91822D02*
X45000D01*
X25678D02*
X38272D01*
X27500Y90000D02*
X27507Y89993D01*
X36280D01*
X36286Y89987D01*
X36437D02*
X45522D01*
X38272Y91822D02*
X38844Y92394D01*
X36437Y89987D02*
X38272Y91822D01*
X39894Y92394D02*
X40000Y92500D01*
X36286Y89987D02*
X36437D01*
X38844Y92394D02*
X39894D01*
X45522Y89987D02*
X46179Y90643D01*
X15000Y95374D02*
X22126D01*
X10000D02*
X15000D01*
X21912Y106289D02*
Y111793D01*
Y106289D02*
X23201Y105000D01*
X35000D01*
X29469Y116818D02*
X30000Y117350D01*
Y117500D01*
X29469Y111189D02*
Y116818D01*
X25000Y117350D02*
X25532Y116818D01*
Y111189D02*
Y116818D01*
X25000Y117350D02*
Y117500D01*
X21516Y112189D02*
X21912Y111793D01*
X42159Y15000D02*
X70000D01*
X55610Y32500D02*
Y37500D01*
Y30619D02*
Y32500D01*
X65000D01*
X50000Y29331D02*
X54321D01*
X55610Y30619D01*
X48821Y41238D02*
Y44407D01*
X48740Y44488D02*
Y46240D01*
X48821Y38069D02*
Y41238D01*
X48740Y44488D02*
X48821Y44407D01*
Y38069D02*
X49390Y37500D01*
X48659Y44407D02*
X48740Y44488D01*
X62500Y60000D02*
X67500D01*
X60488D02*
X62500D01*
X60488Y53469D02*
Y60000D01*
Y62500D01*
X70000Y15000D02*
X82500Y27500D01*
X37500Y19659D02*
X42159Y15000D01*
X37500Y19659D02*
Y35000D01*
X172500Y20000D02*
Y35000D01*
X167500Y15000D02*
X172500Y20000D01*
X137500Y15000D02*
X167500D01*
X132500Y20000D02*
Y37500D01*
Y20000D02*
X137500Y15000D01*
X172012Y50000D02*
Y57500D01*
X160000D02*
X164823D01*
X157988D02*
X160000D01*
X157988Y50122D02*
Y57500D01*
X107988Y62500D02*
Y70000D01*
X122012Y62500D02*
Y69878D01*
X120000Y62500D02*
X122012D01*
X115000D02*
X120000D01*
X114622D02*
X115000D01*
X100000Y27500D02*
X105000Y32500D01*
X82500Y27500D02*
X100000D01*
X77500D02*
Y64390D01*
X72500Y22500D02*
X77500Y27500D01*
X65000Y22500D02*
X72500D01*
X46260Y71811D02*
Y77382D01*
Y66240D02*
Y71811D01*
X84075Y72028D02*
Y72815D01*
X48740Y55512D02*
Y63760D01*
X55000Y52500D02*
X59153D01*
X48740Y46240D02*
X55000Y52500D01*
X54390Y70000D02*
Y71240D01*
X53740D02*
Y75000D01*
Y77382D01*
Y75000D02*
X57500D01*
X42500Y67500D02*
Y71822D01*
X10000Y87500D02*
X15000D01*
X49428Y105000D02*
X52500D01*
X46356D02*
X49428D01*
X35000D02*
X46356D01*
X60000D02*
X62012Y102988D01*
Y100000D02*
Y102988D01*
X87500Y118421D02*
X87988Y117933D01*
Y117500D02*
Y117933D01*
X87500Y118421D02*
Y125000D01*
X166396Y43391D02*
X166503Y43497D01*
X166396Y39246D02*
Y43391D01*
X160900Y32500D02*
Y33750D01*
X166396Y39246D01*
X102500Y40000D02*
X130000D01*
X132500Y37500D01*
X95000Y32500D02*
X102500Y40000D01*
X170000Y57500D02*
X172012D01*
X107988Y62500D02*
X110000D01*
X85800Y100000D02*
X85950Y99850D01*
Y96634D02*
X87239Y95345D01*
X85950Y96634D02*
Y99850D01*
X87239Y95345D02*
X97155D01*
X100000Y92500D01*
X155610Y86899D02*
Y95000D01*
X143400Y85000D02*
X143428Y85028D01*
Y89972D01*
X143456Y90000D01*
X143250Y80900D02*
Y84850D01*
X142500Y80000D02*
Y80150D01*
X143250Y84850D02*
X143400Y85000D01*
X142500Y80150D02*
X143250Y80900D01*
X136905Y56968D02*
X137012Y56861D01*
X135000Y59317D02*
Y60000D01*
X136905Y56968D02*
Y57411D01*
X135000Y60000D02*
Y60683D01*
X82154Y70106D02*
X84075Y72028D01*
X80106Y70106D02*
X82154D01*
X80000Y70000D02*
X80106Y70106D01*
X42606Y67394D02*
X45106D01*
X42500Y67500D02*
X42606Y67394D01*
X45106D02*
X46260Y66240D01*
X87988Y113139D02*
Y117500D01*
X87500Y112650D02*
X87988Y113139D01*
X60000Y92943D02*
X62012Y94955D01*
X60000Y92500D02*
Y92943D01*
X62012Y94955D02*
Y100000D01*
X33110Y72500D02*
X37265D01*
X38554Y73789D01*
Y78823D01*
X32500Y71890D02*
X33110Y72500D01*
X38554Y78823D02*
X38660Y78930D01*
X32500Y107500D02*
X35000Y105000D01*
X158110Y50000D02*
X172012D01*
X152012Y50122D02*
Y57500D01*
X151890Y42500D02*
Y50000D01*
X107988Y70000D02*
X121890D01*
X128110Y70000D02*
Y77342D01*
X127988Y62500D02*
Y70000D01*
X137012Y56861D02*
X142882Y62731D01*
X142988Y62863D02*
Y67500D01*
X137012Y52500D02*
Y56861D01*
X145000Y32500D02*
X154100D01*
X160900Y22500D02*
Y32500D01*
X145000Y22500D02*
X154100D01*
X22126Y95374D02*
X25678Y91822D01*
X45000D02*
X52370D01*
X45000D02*
X46179Y90643D01*
Y87699D02*
X46260Y87618D01*
X46179Y87699D02*
Y90643D01*
X53659Y87699D02*
X53740Y87618D01*
X52370Y91822D02*
X53659Y90533D01*
Y87699D02*
Y90533D01*
X60488Y53469D02*
X61457Y52500D01*
X61654D01*
X197500Y117500D02*
X202500D01*
X192500Y112500D02*
X197500Y117500D01*
X161260Y112500D02*
X192500D01*
X153779Y105020D02*
X161260Y112500D01*
X152402Y105020D02*
X153779D01*
X177500D02*
X200020D01*
X202500Y107500D01*
X191211Y85000D02*
X193110Y86899D01*
X180900Y85000D02*
X191211D01*
X193110Y86899D02*
Y95000D01*
X153711Y85000D02*
X155610Y86899D01*
X143400Y85000D02*
X153711D01*
X140010Y119990D02*
X152392D01*
X152402Y119980D01*
X140000Y120000D02*
X140010Y119990D01*
X127598Y119980D02*
X127608Y119990D01*
X139990D01*
X140000Y120000D01*
Y85000D02*
Y90000D01*
X127598Y105020D02*
X139980D01*
X140000Y95000D02*
Y105000D01*
X139980Y105020D02*
X140000Y105000D01*
X139980Y105020D02*
X152402D01*
X130610Y95000D02*
X136600D01*
X143400D02*
X149390D01*
X177500Y120000D02*
X177510Y119990D01*
X165098Y119980D02*
X165108Y119990D01*
X177490D01*
X177500Y120000D01*
X189892Y119990D02*
X189902Y119980D01*
X177510Y119990D02*
X189892D01*
X177500Y85000D02*
Y90000D01*
X165118Y105000D02*
X165138Y105020D01*
X177480D01*
X177500Y95000D02*
Y105000D01*
X177480Y105020D02*
X177500Y105000D01*
X168110Y95000D02*
X174100D01*
X180900D02*
X186890D01*
X77500Y64390D02*
X78110Y65000D01*
X33346Y80000D02*
X34215Y80869D01*
X36105D02*
X37394Y82157D01*
X34215Y80869D02*
X36105D01*
X37394Y82157D02*
Y84894D01*
X37500Y85000D01*
X72500Y73169D02*
Y73957D01*
X62500Y75800D02*
X70657D01*
X72500Y73957D01*
X62650Y79350D02*
X67067D01*
X68760Y81043D01*
Y81831D01*
X62500Y79200D02*
X62650Y79350D01*
X71890Y65000D02*
X72195Y65305D01*
Y72864D01*
X72500Y73169D01*
X78110Y65000D02*
X84390D01*
X84075Y72815D02*
X84390Y72500D01*
X84075Y72815D02*
Y80354D01*
X83760Y80669D02*
X84075Y80354D01*
X75925Y89646D02*
X75945Y89665D01*
X75925Y82146D02*
X76240Y81831D01*
X75925Y82146D02*
Y89646D01*
X75945Y89665D02*
X87165D01*
X75610Y90000D02*
X75945Y89665D01*
X87165D02*
X87500Y89331D01*
X61654Y52500D02*
X61772Y52618D01*
X26772Y72618D02*
Y79882D01*
Y72618D02*
X26890Y72500D01*
X26654Y80000D02*
X26772Y79882D01*
X59200Y45000D02*
X59200Y45000D01*
X64390D01*
X70000Y45610D02*
X70610Y45000D01*
X68347Y52500D02*
X70000Y50846D01*
Y45610D02*
Y50846D01*
X33484Y108484D02*
Y112189D01*
X32500Y107500D02*
X33484Y108484D01*
X35000Y98110D02*
X36890Y100000D01*
X35000Y95000D02*
Y98110D01*
X30000Y99390D02*
X30610Y100000D01*
X30000Y95000D02*
Y99390D01*
X72988Y125000D02*
X77500D01*
X89200Y100000D02*
X94390D01*
X24000Y48500D02*
X27500Y45000D01*
Y35000D02*
Y45000D01*
X24000Y48500D02*
Y56000D01*
X27500Y27500D02*
Y35000D01*
X25000Y17500D02*
Y25000D01*
X27500Y27500D01*
X24000Y16500D02*
X25000Y17500D01*
X46869Y51869D02*
X48740Y53740D01*
Y55512D01*
X43131Y51869D02*
X46869D01*
X41260Y53740D02*
Y55512D01*
Y53740D02*
X43131Y51869D01*
X46260Y66240D02*
X48740Y63760D01*
D72*
X32500Y42500D02*
Y71890D01*
X34363Y40637D02*
X41354D01*
X32500Y42500D02*
X34363Y40637D01*
X45291Y21638D02*
X46260Y20669D01*
X41354Y40637D02*
X45291Y36700D01*
Y21638D02*
Y36700D01*
D73*
X97500Y80000D02*
X100000Y77500D01*
X97500Y80000D02*
X100000Y82500D01*
X102500Y85000D01*
X128243D01*
X134783Y60683D02*
X135000D01*
X132500Y62967D02*
Y80743D01*
X128243Y85000D02*
X132500Y80743D01*
Y62967D02*
X134783Y60683D01*
X135000Y59317D02*
X136905Y57411D01*
D74*
X105000Y32500D02*
X115000D01*
X85000D02*
X95000D01*
X182500Y35000D02*
X192500D01*
X17500D02*
X27500D01*
D75*
X202500Y117500D02*
D03*
X85000Y22500D02*
D03*
Y32500D02*
D03*
X95000D02*
D03*
X115000Y22500D02*
D03*
X105000D02*
D03*
X125000D02*
D03*
X95000D02*
D03*
X105000Y32500D02*
D03*
X115000D02*
D03*
X145000Y22500D02*
D03*
X65000D02*
D03*
X188500Y16000D02*
D03*
Y56000D02*
D03*
X14000Y16500D02*
D03*
Y56000D02*
D03*
D76*
X202500Y107500D02*
D03*
X145000Y32500D02*
D03*
X65000D02*
D03*
D77*
X37500Y35000D02*
D03*
X202500D02*
D03*
D78*
X27500D02*
D03*
X17500D02*
D03*
X7500D02*
D03*
X192500D02*
D03*
X182500D02*
D03*
X172500D02*
D03*
D79*
X125000Y32500D02*
D03*
X198500Y16000D02*
D03*
Y56000D02*
D03*
X24000Y16500D02*
D03*
Y56000D02*
D03*
D80*
X10000Y79626D02*
D03*
Y87500D02*
D03*
Y95374D02*
D03*
D81*
Y71752D02*
D03*
Y103248D02*
D03*
D82*
X108937Y112835D02*
D03*
D83*
X101063D02*
D03*
D84*
X156378Y67500D02*
D03*
X155000Y70453D02*
D03*
X153622Y67500D02*
D03*
X155000Y64547D02*
D03*
X123622Y52500D02*
D03*
X125000Y49547D02*
D03*
X126378Y52500D02*
D03*
X125000Y55453D02*
D03*
D85*
X182500Y80000D02*
D03*
X201000Y97500D02*
D03*
Y81500D02*
D03*
X197000Y73500D02*
D03*
Y9500D02*
D03*
X189000Y73500D02*
D03*
X193000Y49500D02*
D03*
X189000Y9500D02*
D03*
X185000Y49500D02*
D03*
X181000Y41500D02*
D03*
Y25500D02*
D03*
X177000Y17500D02*
D03*
X161000Y81500D02*
D03*
X153000Y113500D02*
D03*
X145000D02*
D03*
X133000Y89500D02*
D03*
X129000Y113500D02*
D03*
Y17500D02*
D03*
X117000Y121500D02*
D03*
X121000Y113500D02*
D03*
X117000Y105500D02*
D03*
X121000Y17500D02*
D03*
X109000Y121500D02*
D03*
Y105500D02*
D03*
X113000Y97500D02*
D03*
X101000Y121500D02*
D03*
Y105500D02*
D03*
X105000Y97500D02*
D03*
X93000Y121500D02*
D03*
Y105500D02*
D03*
X85000Y57500D02*
D03*
X89000Y49500D02*
D03*
X85000Y41500D02*
D03*
X89000Y17500D02*
D03*
X77000Y105500D02*
D03*
X81000Y17500D02*
D03*
X73000Y33500D02*
D03*
X53000Y57500D02*
D03*
X37000Y121500D02*
D03*
Y57500D02*
D03*
X33000Y17500D02*
D03*
X21000Y121500D02*
D03*
Y73500D02*
D03*
X25000Y65500D02*
D03*
X21000Y41500D02*
D03*
Y9500D02*
D03*
X17000Y81500D02*
D03*
Y65500D02*
D03*
X13000Y25500D02*
D03*
Y9500D02*
D03*
X9000Y65500D02*
D03*
X5000Y57500D02*
D03*
X9000Y49500D02*
D03*
X5000Y25500D02*
D03*
Y9500D02*
D03*
X70000Y87500D02*
D03*
X36286Y89987D02*
D03*
X15000Y95374D02*
D03*
X92500Y112500D02*
D03*
X82500D02*
D03*
X48821Y41238D02*
D03*
X165000Y52500D02*
D03*
X160000Y57500D02*
D03*
X115000Y67500D02*
D03*
X120000Y62500D02*
D03*
X70000Y112500D02*
D03*
X146614Y72208D02*
D03*
X46260Y71811D02*
D03*
X100000Y77500D02*
D03*
X97500Y80000D02*
D03*
X100000Y82500D02*
D03*
X62500Y60000D02*
D03*
X57500Y75000D02*
D03*
X42500Y71822D02*
D03*
X15000Y87500D02*
D03*
X53298Y110000D02*
D03*
X77500Y120000D02*
D03*
X49428Y105000D02*
D03*
X52500D02*
D03*
X65000D02*
D03*
X46356D02*
D03*
X166503Y43497D02*
D03*
X170000Y57500D02*
D03*
X110000Y62500D02*
D03*
X143456Y90000D02*
D03*
X142500Y80000D02*
D03*
X80000Y70000D02*
D03*
X42500Y67500D02*
D03*
X87500Y112500D02*
D03*
X38660Y78930D02*
D03*
X60678Y117500D02*
D03*
X40000Y92500D02*
D03*
X147500Y52500D02*
D03*
X137012Y56861D02*
D03*
X122122Y45000D02*
D03*
X142988Y62863D02*
D03*
X157776Y75453D02*
D03*
X140000Y120000D02*
D03*
Y90000D02*
D03*
X177500Y120000D02*
D03*
Y90000D02*
D03*
X37500Y85000D02*
D03*
X60000Y105000D02*
D03*
X35000Y95000D02*
D03*
X30000Y117500D02*
D03*
Y95000D02*
D03*
X25000Y117500D02*
D03*
X77500Y125000D02*
D03*
X57500Y112500D02*
D03*
M02*
